<svg width="131" height="65" viewBox="0 0 131 65" fill="none" xmlns="http://www.w3.org/2000/svg">
<g clip-path="url(#clip0_3854_7216)">
<path d="M51.2214 54.4751C51.273 54.3185 51.3113 54.1579 51.336 53.9948C48.4602 53.2985 45.7431 52.0621 43.3296 50.3516C43.168 50.5472 43.0291 50.7605 42.9154 50.9871C42.8508 51.0146 42.782 51.0308 42.7119 51.0352C45.098 52.7452 47.7742 54.0096 50.6112 54.7671C50.82 54.6815 51.0237 54.584 51.2214 54.4751Z" fill="#221F1D"/>
<path d="M42.4127 50.4482C42.6236 50.3004 42.8344 50.1342 42.9194 50.0787C42.8713 50.0418 42.7382 49.9125 42.6938 49.8755C42.5385 49.857 42.2796 49.8755 41.5844 49.772C41.5474 49.6834 41.4993 49.5614 41.466 49.4691C41.3768 49.4658 41.2884 49.4863 41.2097 49.5286C41.1311 49.5707 41.0651 49.6331 41.0186 49.7092C41.5363 50.1526 42.0688 50.559 42.6162 50.9544C42.5681 50.8325 42.5238 50.7438 42.4202 50.4593" fill="#221F1D"/>
<path d="M34.2622 21.9483C34.2622 21.9224 34.2068 21.8818 34.1957 21.8633C34.1068 22.0776 34.0218 22.2956 33.9404 22.5136C34.1402 22.388 34.3399 22.2771 34.3435 22.2735C34.3053 22.1682 34.278 22.0592 34.2622 21.9483Z" fill="#221F1D"/>
<path d="M36.107 18.1071C35.6554 18.8327 35.2418 19.5813 34.8682 20.3499L35.238 20.446C35.3748 20.3277 35.4562 20.2686 35.4968 20.2391C35.5634 20.4201 35.6374 20.5901 35.7003 20.7637C36.0282 20.0888 36.3906 19.4274 36.7875 18.7795C36.6618 18.4692 36.5804 18.314 36.4583 18.0664L36.1107 18.1071" fill="#221F1D"/>
<path d="M29.8057 27.8742L29.8242 27.8262L30.4565 27.5749V27.5048C30.1385 27.2385 29.8683 26.9198 29.6577 26.5625C29.5764 27.0539 29.5135 27.549 29.458 28.0405C29.58 27.9962 29.7502 28.0405 29.7946 27.8668" fill="#221F1D"/>
<path d="M40.6711 50.8991C40.4233 50.611 40.3863 50.404 40.109 50.1602C39.8741 50.2207 39.6451 50.3023 39.4248 50.404C43.1288 53.7322 47.704 55.939 52.6161 56.7667V55.8282C48.2859 55.0703 44.227 53.2012 40.8375 50.404C40.8206 50.5796 40.7637 50.749 40.6711 50.8991Z" fill="#221F1D"/>
<path d="M51.9393 54.1445C52.0236 54.4394 52.0818 54.741 52.1132 55.0461C51.9964 54.935 51.8729 54.8313 51.7433 54.7357C51.6064 54.8428 51.5953 54.8466 51.4326 54.9869C51.7839 55.0683 52.2425 55.1347 52.6013 55.1975V54.2554C52.409 54.2184 52.1168 54.1851 51.9245 54.1445" fill="#221F1D"/>
<path d="M31.0406 24.2704C31.0887 24.1521 31.1442 24.0339 31.17 23.9859C31.3697 23.2469 31.6064 22.5079 31.869 21.8021C31.8341 21.6292 31.7477 21.4708 31.6212 21.3477C31.5324 21.4142 31.2514 21.6581 31.1553 21.7468C31.098 21.6822 31.0376 21.6205 30.974 21.562C30.3911 23.1603 29.9578 24.8091 29.6797 26.4874C29.7832 26.3137 29.798 26.2952 29.8831 26.1179C29.9386 26.0773 30.0976 26.007 30.2936 25.9109C30.2566 25.7484 30.2123 25.5969 30.1752 25.4011C30.2307 25.3123 30.6153 24.9466 30.7891 24.7507C30.6498 24.4499 30.5707 24.1248 30.5561 23.7937C30.6944 23.9703 30.8576 24.1259 31.0406 24.2556" fill="#221F1D"/>
<path d="M28.6299 32.9688C28.5115 32.8136 28.3932 32.6511 28.1898 32.4183C28.147 32.2857 28.116 32.1497 28.0974 32.0118C28.0181 31.8478 27.9292 31.6887 27.8311 31.5352C27.8391 32.8796 27.9528 34.2213 28.1713 35.5479C28.241 35.4802 28.3303 35.4363 28.4265 35.4223C28.4404 35.2278 28.5055 35.0404 28.6151 34.879C28.5519 34.6974 28.4778 34.5198 28.3932 34.347C28.4302 34.2805 28.6817 34.1733 28.7335 34.1327C28.7075 33.9036 28.6853 33.6782 28.6669 33.4491C28.5777 33.3876 28.5022 33.3083 28.4449 33.2163C28.4989 33.1283 28.5608 33.0455 28.6299 32.9688Z" fill="#221F1D"/>
<path d="M32.1172 23.7652C32.0242 23.8148 31.9351 23.8717 31.851 23.9352C31.7955 24.1385 31.7364 24.3417 31.6846 24.5449C31.7303 24.6204 31.7971 24.6807 31.8769 24.7186C31.8746 24.8183 31.8962 24.9171 31.9397 25.0068L32.1839 24.8996C32.2799 24.6409 32.3243 24.3417 32.5536 24.2161C32.5525 24.0832 32.5859 23.9524 32.6508 23.8364C32.7157 23.7204 32.8096 23.6233 32.9234 23.5546C33.17 22.7615 33.4572 21.9782 33.7851 21.2047C33.7851 21.2047 33.456 20.994 33.2637 20.8906C33.1297 20.9167 32.9975 20.9512 32.868 20.994C32.8421 21.0606 32.8125 21.1271 32.7867 21.1899L33.1231 21.3303C33.223 21.4374 33.2563 21.4855 33.493 21.7774C33.493 21.7774 33.1491 22.3612 32.9863 22.6383C32.9678 22.6383 32.8125 22.5866 32.6794 22.509C32.5747 22.4474 32.466 22.3932 32.3539 22.3464C32.2837 22.5386 32.2282 22.7159 32.1653 22.9265C32.1284 23.2037 32.1395 23.599 32.121 23.7652" fill="#221F1D"/>
<path d="M34.3319 19.536C34.1518 19.8787 33.948 20.2084 33.7217 20.5226C33.8006 20.6067 33.8981 20.6712 34.0064 20.711C34.402 19.8327 34.8478 18.9777 35.3415 18.1504C35.0938 17.7514 35.0494 17.6923 35.0161 17.622C35.0925 17.3683 35.1481 17.1088 35.1825 16.8461C35.1758 16.8095 35.1577 16.7759 35.1307 16.75C34.857 17.1602 34.6019 17.5814 34.3578 18.0026C34.3578 18.0248 34.3578 19.1776 34.3319 19.536Z" fill="#221F1D"/>
<path d="M31.9095 20.4963C31.9095 20.4963 31.769 20.1268 31.5397 20.0898C31.4066 20.4039 31.2734 20.718 31.1699 21.0358C31.2254 21.0358 31.3622 21.0358 31.388 21.0358C31.579 20.8747 31.7548 20.6966 31.9132 20.5036" fill="#221F1D"/>
<path d="M31.8435 19.6588L32.0912 19.5775C32.2867 19.669 32.4867 19.7504 32.6904 19.8214C32.7129 19.7803 32.743 19.744 32.7791 19.7142C32.7791 19.548 32.7791 19.4408 32.7569 19.3152C32.7347 19.1896 32.609 18.7831 32.5498 18.6501C32.8235 18.5651 33.0195 18.5134 33.3708 18.3914C33.5742 18.022 33.5335 17.5416 33.9736 17.3125C34.0229 17.2831 34.0647 17.2426 34.0957 17.1943C34.3545 16.7657 34.6282 16.3407 34.913 15.9269L34.7724 15.8345C34.7972 15.6714 34.785 15.5048 34.737 15.3469C34.689 15.189 34.6064 15.0438 34.4951 14.9219C33.4324 16.3902 32.5194 17.9609 31.7695 19.6108C31.7695 19.6292 31.8028 19.6292 31.8435 19.6588Z" fill="#221F1D"/>
<path d="M51.4514 52.8422C51.2925 52.5561 51.0666 52.3127 50.7931 52.1327C50.011 51.9039 49.2419 51.6324 48.4892 51.3198C48.3598 51.4085 48.2378 51.5009 48.149 51.5748C48.1157 51.7817 48.1194 51.8667 48.0787 52.0256C47.8851 52.037 47.6911 52.008 47.5092 51.9406C47.3797 51.6413 47.4204 51.257 47.2726 51.0058C47.0265 51.0281 46.7789 51.0281 46.5329 51.0058L46.2629 51.2756C45.9088 51.0661 45.5905 50.8017 45.3199 50.4922C45.1291 50.5412 44.935 50.577 44.7393 50.5994C46.817 51.896 49.0895 52.8516 51.4699 53.4297C51.5051 53.2267 51.5051 53.0193 51.4699 52.8163" fill="#221F1D"/>
<path d="M37.161 19.5979C37.142 19.5065 37.1173 19.4164 37.0871 19.3281C36.9428 19.5683 36.806 19.8121 36.6729 20.0671C37.124 19.6607 37.1721 19.7457 37.161 19.609" fill="#221F1D"/>
<path d="M26.4365 45.3477C26.6547 45.8169 26.8878 46.2788 27.1282 46.737C27.132 46.4071 27.1122 46.0774 27.0689 45.7504C26.885 45.5781 26.6706 45.4415 26.4365 45.3477Z" fill="#221F1D"/>
<path d="M28.8105 51.9257C29.0398 52.1141 29.1804 52.2065 29.5797 52.5169H29.6833C29.4429 52.2102 29.2026 51.8998 28.9733 51.582L28.8105 51.9331" fill="#221F1D"/>
<path d="M30.4826 20.8234C30.1199 21.2322 29.7874 21.6669 29.4878 22.124C29.4746 22.3443 29.4746 22.5651 29.4878 22.7853C29.362 22.8999 29.118 23.044 28.9367 23.1548C28.8776 23.3654 28.811 23.576 28.7592 23.7904C28.2455 25.7764 27.9455 27.8115 27.8643 29.8612C28.0255 30.0807 28.1619 30.3174 28.2711 30.5669C28.345 30.8661 28.2082 31.1766 28.3303 31.4722C28.4106 31.6404 28.4995 31.8044 28.5965 31.9636C28.5965 31.5165 28.5781 31.0657 28.5965 30.6149C28.5939 30.5669 28.5839 30.5195 28.567 30.4746C28.5371 30.3638 28.5259 30.2489 28.5337 30.1346C28.5508 30.0638 28.5769 29.9955 28.6114 29.9313C28.729 26.8059 29.3703 23.7222 30.5085 20.8086" fill="#221F1D"/>
<path d="M30.5899 51.4549C30.5899 51.4549 30.59 51.2148 30.5678 51.1076C30.1413 50.5459 29.7344 49.9733 29.3473 49.3894C29.303 49.3858 29.2585 49.3858 29.2142 49.3894C29.0404 49.4264 28.8888 49.456 28.752 49.4782C29.9017 51.2377 31.2128 52.8865 32.6683 54.4035C32.6683 54.385 32.8865 54.3369 32.8976 54.3185C32.9864 54.4663 33.0122 54.4737 33.1639 54.7508C33.2675 54.7508 33.5337 54.7064 33.7186 54.6769C33.4079 54.3739 33.1047 54.0635 32.8089 53.7458C31.9832 53.0647 31.2387 52.2911 30.5899 51.4401" fill="#221F1D"/>
<path d="M30.0272 8.28906C29.9421 8.39252 29.8497 8.49228 29.7646 8.59574C29.8552 8.60948 29.9468 8.61566 30.0383 8.61422C30.0474 8.50602 30.0474 8.39726 30.0383 8.28906" fill="#221F1D"/>
<path d="M39.7757 2.09132L39.5723 2.21325C39.6684 2.21325 39.8348 2.37583 39.9421 2.3943C39.9791 2.3943 40.3119 2.13566 40.2416 1.98047C40.1529 2.06176 40.1233 2.09871 40.0161 2.19847C39.9288 2.18161 39.8465 2.14495 39.7757 2.09132Z" fill="#221F1D"/>
<path d="M28.8332 51.3811C27.5843 49.6524 26.4962 47.8133 25.5825 45.8867C25.393 45.9004 25.2105 45.9641 25.0537 46.0715C25.5196 47.0567 26.0337 48.026 26.5959 48.9794C27.1765 49.9622 27.8014 50.9044 28.4634 51.817L28.615 51.8429C28.5854 51.6803 28.5706 51.6323 28.5521 51.5362C28.6427 51.479 28.7365 51.4271 28.8332 51.3811Z" fill="#221F1D"/>
<path d="M23.1078 40.1014C23.2155 40.0817 23.3241 40.0681 23.4333 40.0607C22.1215 35.2194 21.8817 30.1505 22.7306 25.207C22.5642 25.3179 22.4977 25.3623 22.3608 25.4362C22.279 25.4343 22.1975 25.4269 22.1167 25.414C21.323 30.2526 21.5574 35.204 22.8046 39.9461C22.9062 39.9871 23.0029 40.0391 23.093 40.1014" fill="#221F1D"/>
<path d="M26.7326 13.9808C27.4042 12.8002 28.1452 11.6601 28.9515 10.5667C28.9256 10.4375 28.896 10.3044 28.8775 10.1751C28.8331 9.84995 29.1586 9.64301 29.1845 9.34375C28.1256 10.6954 27.1677 12.1231 26.3184 13.6151C26.4764 13.7196 26.6206 13.8438 26.7474 13.9846" fill="#221F1D"/>
<path d="M24.3699 19.0792C24.3699 18.9868 24.3699 18.791 24.3699 18.2442C24.3699 18.0964 24.3182 17.9486 24.285 17.8008C23.6941 19.2583 23.1999 20.753 22.8056 22.2753C22.6984 22.6892 22.6023 23.1067 22.5098 23.5205C22.6446 23.6889 22.7349 23.8883 22.7723 24.1006C22.7723 24.2336 22.8056 24.3334 22.9092 24.3371C23.0349 23.6942 23.1792 23.0549 23.3456 22.412C23.6377 21.2777 23.9853 20.1655 24.381 19.0866" fill="#221F1D"/>
<path d="M28.582 42.4713C28.7901 42.3572 28.9658 42.1918 29.0923 41.991C28.7558 41.1448 28.46 40.2802 28.2048 39.4045C27.7721 38.8983 27.687 38.2296 27.6056 37.0065C27.5724 36.8439 27.5058 36.4781 27.4467 36.1382C26.8952 32.9391 26.8727 29.6712 27.3801 26.4648C27.2843 26.6696 27.1678 26.8639 27.0325 27.0449C26.8717 27.1025 26.7057 27.1446 26.5369 27.1706C25.9635 31.5633 26.3611 36.0282 27.7018 40.2507C27.846 40.3578 28.0716 40.4908 28.3823 40.6903C28.3823 40.6903 28.1567 41.8358 28.6005 42.4713" fill="#221F1D"/>
<path d="M29.1254 45.8031C28.9627 45.5001 28.811 45.1934 28.6594 44.8867C28.6594 44.8867 28.6225 45.0715 28.6187 45.1047L28.3857 45.138C28.4043 45.2647 28.4379 45.3887 28.4856 45.5075C28.5818 45.5629 28.8887 45.707 29.1254 45.8068" fill="#221F1D"/>
<path d="M32.187 46.1337C32.4039 46.1331 32.6194 46.1008 32.8269 46.0377C32.8269 46.0377 32.8269 46.0377 32.8564 46.0156C32.4866 45.3948 32.1168 44.763 31.7692 44.1163C31.6841 44.0793 31.514 44.0018 31.3993 43.9353C31.2847 43.8687 30.9445 43.8577 30.8076 43.8281C31.1084 44.4415 31.4277 45.0413 31.7655 45.6275C31.8861 45.5963 32.0114 45.5875 32.1352 45.6017C32.1612 45.7236 32.1574 45.8382 32.1834 46.1337" fill="#221F1D"/>
<path d="M35.1463 51.5586C35.1278 51.5844 35.113 51.6066 35.0908 51.6325C35.2198 51.9638 35.3056 52.3102 35.346 52.6634C35.3126 52.6904 35.2828 52.7214 35.2572 52.7557C39.1305 56.6486 43.9867 59.4207 49.3102 60.7775C50.4 61.0504 51.5037 61.265 52.6163 61.4204V60.6814C51.6105 60.5299 50.501 60.3119 49.4951 60.0718C43.9969 58.6606 39.0179 55.7066 35.1463 51.5586Z" fill="#221F1D"/>
<path d="M38.023 52.1945C37.7222 52.2781 37.4005 52.2396 37.128 52.0873L36.8987 51.134C36.6398 50.8753 36.3847 50.6093 36.1369 50.3359C36.0167 50.5564 35.8455 50.7451 35.6377 50.8864C39.4184 54.9706 44.2977 57.879 49.6907 59.2629C50.63 59.5067 51.6692 59.6952 52.6085 59.843V59.104C51.7321 58.9672 50.7594 58.7862 49.8756 58.5608C45.4673 57.4286 41.3984 55.2482 38.0156 52.2055" fill="#221F1D"/>
<path d="M37.8341 7.24882L38.008 7.28207C38.1781 7.1121 38.1558 6.93475 38.2816 6.75C38.1078 6.87932 37.9377 7.00495 37.7676 7.14166C37.771 7.16306 37.7786 7.18355 37.79 7.20195C37.8015 7.22036 37.8165 7.23629 37.8341 7.24882Z" fill="#221F1D"/>
<path d="M33.9474 52.5664C33.8073 52.6119 33.6701 52.6662 33.5368 52.729C33.5368 52.8915 33.5368 53.0652 33.5146 53.1871C33.7292 53.4125 33.9474 53.6379 34.1656 53.8559C34.6887 54.1529 35.1839 54.4967 35.6448 54.8831C35.6448 54.909 35.5746 55.1454 35.5672 55.1639C39.388 58.5629 43.9665 61.0002 48.9212 62.273C50.1401 62.5763 51.3747 62.8131 52.6194 62.9824V62.2434C51.4381 62.0816 50.2666 61.8558 49.1098 61.5672C43.2976 60.0809 38.0348 56.9581 33.9474 52.5701" fill="#221F1D"/>
<path d="M38.8919 6.41815C39.2248 6.2371 39.2248 6.2371 39.3098 6.61029C39.3283 6.69157 39.3505 6.77286 39.3727 6.85415L39.6944 6.61768V5.73828C39.3801 5.95259 39.0657 6.17059 38.7588 6.39598C38.7747 6.41587 38.797 6.42966 38.8219 6.43504C38.8469 6.44043 38.8729 6.43708 38.8956 6.42554" fill="#221F1D"/>
<path d="M39.839 3.89168C39.7693 3.88766 39.6993 3.89515 39.632 3.91385C38.7074 4.50504 37.8112 5.1418 36.9434 5.82413C36.9558 5.8876 36.9645 5.95177 36.9692 6.01627C37.2466 6.07539 37.2466 6.07539 37.0099 6.60007C36.9863 6.65043 36.9702 6.70395 36.9619 6.75895C37.828 6.04854 38.7317 5.38497 39.6689 4.77108L39.5284 4.70087C39.408 4.73895 39.2841 4.76494 39.1585 4.77847C39.1378 4.67679 39.1481 4.57123 39.1881 4.47548C39.2547 4.47548 39.4063 4.45331 39.532 4.43114C39.6417 4.25757 39.7405 4.0774 39.8279 3.89168" fill="#221F1D"/>
<path d="M26.3923 1.23435C26.4019 1.25444 26.4094 1.2755 26.4145 1.29716L26.5551 1.16045C26.6597 1.01092 26.7512 0.852691 26.8287 0.6875H26.6401C26.4404 0.887026 26.237 1.08286 26.041 1.28608C26.1627 1.25915 26.2863 1.24185 26.4108 1.23435" fill="#221F1D"/>
<path d="M18.9922 18.9315C19.0149 19.0056 19.0472 19.0764 19.0884 19.1421C19.1402 19.0645 19.192 19.0312 19.288 18.8872C19.2967 18.7 19.3253 18.5141 19.3731 18.3329C19.4369 18.3814 19.4876 18.4449 19.5211 18.5177C19.9551 17.2179 20.4563 15.9414 21.0225 14.6934C21.0158 14.568 21.0334 14.4426 21.0743 14.3239L20.93 14.25C20.8753 14.3043 20.813 14.3503 20.7452 14.3867C20.0699 15.8588 19.4846 17.3703 18.9922 18.913" fill="#221F1D"/>
<path d="M28.8961 0.6875C28.5448 1.01265 28.1935 1.3452 27.8533 1.68144C27.7676 1.93364 27.6612 2.17833 27.5352 2.41303C28.1084 1.82184 28.7075 1.25652 29.3177 0.70228L28.8961 0.6875Z" fill="#221F1D"/>
<path d="M17.6239 7.58824C17.6239 7.53282 17.6239 7.49587 17.6239 7.3998C17.6239 7.30373 17.6239 7.27787 17.5907 7.21875C15.26 11.0681 13.5081 15.2386 12.391 19.5968C12.1025 20.7152 11.856 21.8384 11.6514 22.9666C11.7237 22.9621 11.7938 22.9392 11.8548 22.9C12.0668 21.8064 12.3109 20.7225 12.587 19.6485C13.678 15.4078 15.3744 11.346 17.6239 7.58824Z" fill="#221F1D"/>
<path d="M18.2676 9.57811C19.1278 8.03589 20.08 6.54661 21.1188 5.11835C21.0564 5.0923 20.9902 5.07611 20.9228 5.07031C19.9769 6.37589 19.104 7.73277 18.3082 9.13472C18.3082 9.26033 18.286 9.41188 18.2676 9.58187" fill="#221F1D"/>
<path d="M37.5791 61.9944C37.5901 62.0927 37.6073 62.1903 37.6308 62.2864C38.5879 62.8852 39.5755 63.4339 40.5894 63.9307H41.4104C40.1394 63.325 38.9047 62.6465 37.7122 61.8984L37.5791 61.9944Z" fill="#221F1D"/>
<path d="M31.5807 2.91383C31.5923 2.76928 31.5586 2.62471 31.4846 2.5C31.063 2.86949 30.6451 3.26855 30.2383 3.67129L30.4417 3.98536C30.8116 3.61587 31.1813 3.24638 31.5807 2.91383Z" fill="#221F1D"/>
<path d="M17.6238 3.58573C15.0528 7.24931 13.0122 11.2572 11.5625 15.4908C11.5107 15.7236 11.4553 15.9527 11.4072 16.1855C12.8634 11.7184 14.9732 7.49109 17.6682 3.64115C17.6554 3.62001 17.6406 3.60021 17.6238 3.58203" fill="#221F1D"/>
<path d="M26.6729 26.0888C26.9477 25.8962 27.2119 25.6891 27.4642 25.468C27.4574 25.1983 27.4339 24.9292 27.3939 24.6625C27.5788 24.4519 27.712 24.2634 27.823 24.1414C27.8673 23.9605 27.9043 23.772 27.9487 23.6021C28.8506 20.0889 30.3885 16.7704 32.4864 13.8105L32.0462 13.1602C29.817 16.2494 28.1863 19.7283 27.2386 23.4173C27.0143 24.3041 26.8282 25.1945 26.6802 26.0888" fill="#221F1D"/>
<path d="M25.4634 24.1297C25.3155 24.8206 25.2674 25.0756 25.2379 25.2381C25.3607 25.3955 25.4523 25.5749 25.5078 25.7665C25.5078 25.8035 25.2194 26.0806 25.138 26.1619C25.1676 26.4686 25.1602 26.4944 25.1676 26.705C25.1124 26.8079 25.0412 26.9015 24.9568 26.9822C24.9272 27.1891 24.905 27.3923 24.8828 27.5992C24.9057 27.7996 24.9852 27.9893 25.1121 28.146C25.1809 28.0477 25.2576 27.955 25.3414 27.869C25.4301 27.8394 25.5115 27.8948 25.5929 27.8948C26.1853 22.1216 28.3607 16.6237 31.8797 12.0066L31.7762 11.009L31.754 10.9609C28.9041 14.5123 26.8453 18.6301 25.7149 23.0397C25.6225 23.4092 25.5374 23.7787 25.4561 24.1482" fill="#221F1D"/>
<path d="M25.7493 39.1372C25.9017 38.987 26.0622 38.8451 26.23 38.7124C26.2968 38.7362 26.3602 38.7684 26.4186 38.8084C25.5853 35.5527 25.2831 32.1839 25.5237 28.832C25.4867 28.8616 25.324 28.8801 25.2907 28.9097C25.2138 29.1375 25.1211 29.3597 25.0134 29.5748C24.9199 29.5421 24.8296 29.5013 24.7434 29.4528C24.5796 32.713 24.9163 35.979 25.7419 39.1372" fill="#221F1D"/>
<path d="M29.8273 44.9698C30.0486 45.0136 30.2721 45.0457 30.4967 45.0659C30.3561 44.7962 30.223 44.519 30.0862 44.2456C30.0134 44.2705 29.9394 44.2914 29.8644 44.3084C29.7682 44.2752 29.7238 44.2678 29.6091 44.2383C29.4945 44.2937 29.3392 44.3787 29.3281 44.3787C29.3984 44.5228 29.4686 44.6668 29.5426 44.811C29.6492 44.8394 29.7472 44.894 29.8273 44.9698Z" fill="#221F1D"/>
<path d="M30.2017 19.925C30.2313 19.9472 30.2313 19.9841 30.3015 20.1467C30.3856 20.0837 30.4613 20.0105 30.5271 19.9287C30.5383 19.7479 30.6083 19.5757 30.7265 19.4383C30.8447 19.3009 31.0045 19.2059 31.1816 19.1676C31.7201 18.0033 32.3379 16.8774 33.0307 15.7978C32.9144 15.6153 32.813 15.4238 32.7275 15.2251C33.0751 14.7779 33.4413 14.3124 33.5559 14.1757C33.7297 14.1092 33.8259 14.0797 33.9257 14.0389C33.9257 14.0389 33.8888 13.8727 33.8739 13.6953C33.7665 13.7185 33.6579 13.7358 33.5485 13.7471C32.1344 15.6581 30.9607 17.7354 30.0537 19.9324H30.2202" fill="#221F1D"/>
<path d="M38.008 50.2729C37.5642 49.8036 37.701 49.9477 37.5383 49.7852C37.42 50.0882 37.5938 50.4281 37.5383 50.7384C41.6555 54.7743 46.9273 57.4306 52.6231 58.339V57.4041C47.219 56.5115 42.2166 53.9912 38.2853 50.1805C38.2521 50.1805 38.0413 50.2581 38.0153 50.2729" fill="#221F1D"/>
<path d="M33.5225 45.3006C33.7703 45.3227 33.922 45.3597 34.1513 45.3745C34.185 45.3099 34.2147 45.2433 34.24 45.1749L34.129 44.9902C33.9268 44.9014 33.7315 44.7977 33.5447 44.6798C33.3757 44.3713 33.225 44.0529 33.0935 43.7266C32.923 43.909 32.7865 44.1205 32.6904 44.351C32.9419 44.8092 33.2045 45.2599 33.4818 45.7071C33.4818 45.5704 33.504 45.4115 33.5225 45.3006Z" fill="#221F1D"/>
<path d="M36.5588 57.1875C36.5255 57.4166 36.4996 57.557 36.459 57.812C40.0514 60.5702 44.1666 62.5713 48.5557 63.6943C48.8774 63.7793 49.2028 63.8569 49.5245 63.9308H52.6163C51.2962 63.7461 49.9876 63.4883 48.6962 63.1585C44.2806 62.0282 40.1478 59.9951 36.5588 57.1875Z" fill="#221F1D"/>
<path d="M24.1367 26.3219C24.0552 26.2318 23.9648 26.1501 23.8668 26.0781C23.7096 26.3192 23.5852 26.5801 23.497 26.8541C23.4637 27.1238 23.4341 27.3972 23.4045 27.6669C23.471 28.0845 23.4748 28.1879 23.5561 28.9269C23.4832 29.0925 23.3887 29.2478 23.2751 29.3888C23.124 32.4915 23.4041 35.6002 24.1072 38.6261C24.2817 38.5475 24.452 38.46 24.6175 38.3637C23.7136 34.409 23.5506 30.3212 24.1367 26.3072" fill="#221F1D"/>
<path d="M36.126 58.8279C36.2147 58.9794 36.4293 59.3378 36.4958 59.4745C36.4293 59.5705 36.4293 59.5927 36.3553 59.6925C38.7809 61.4317 41.4178 62.8557 44.2028 63.9306H45.8707C42.3769 62.7573 39.0934 61.0334 36.1445 58.8242" fill="#221F1D"/>
<path d="M39.3652 2.57515C39.4318 2.4717 39.4613 2.40519 39.4835 2.37193C39.5057 2.33868 39.5057 2.26108 39.5094 2.25C38.4179 2.9091 37.3647 3.62954 36.3549 4.40784C36.3298 4.53346 36.2952 4.65699 36.2513 4.77733C36.2072 4.92084 36.1871 5.07068 36.1922 5.22073C37.3879 4.27568 38.6457 3.4116 39.9569 2.63427C39.746 2.60102 39.55 2.63427 39.3652 2.57885" fill="#221F1D"/>
<path d="M30.1719 11.5232C30.4382 11.1537 30.7119 10.8027 30.9929 10.448C30.9615 10.3459 30.9207 10.247 30.8708 10.1524L30.5972 10.2005C30.5876 10.1627 30.5802 10.1245 30.575 10.0859L30.2533 10.496C30.2533 10.666 30.2237 10.9653 30.1719 11.5232Z" fill="#221F1D"/>
<path d="M21.3332 23.7119C21.7707 21.5863 22.3969 19.504 23.2045 17.4896C23.1416 17.2199 23.0899 17.0314 23.0455 16.8984C22.0815 19.2126 21.3578 21.6195 20.8857 24.0814C21.0152 23.9594 21.2556 23.8042 21.3332 23.7119Z" fill="#221F1D"/>
<path d="M30.4748 8.20312L30.3935 8.24007C30.3935 8.24007 30.3344 8.51719 30.2715 8.85343C30.3787 8.72411 30.497 8.59848 30.608 8.48394C30.6161 8.43077 30.6078 8.37637 30.584 8.32812C30.5602 8.27987 30.522 8.24011 30.4748 8.21421" fill="#221F1D"/>
<path d="M24.5105 24.2151C24.6115 23.7422 24.7224 23.2692 24.8433 22.7963C25.8605 18.8563 27.5982 15.1382 29.9689 11.8297H29.8025C29.6546 11.9812 29.4881 12.1253 29.3366 12.2694C29.3366 12.0736 29.3144 11.9812 29.3144 11.7891C27.8193 13.9186 26.5783 16.215 25.6162 18.6321C25.6162 19.0903 25.6457 19.2861 25.6717 19.8957C25.5459 19.8699 25.4091 19.8256 25.1946 19.7664C25.3462 20.0805 25.5348 20.3835 25.3647 20.7677L25.2057 20.6828L25.0984 20.8269C25.021 20.7532 24.9604 20.6638 24.9209 20.5646C24.6954 21.2518 24.4919 21.9465 24.307 22.6558C24.2479 22.885 24.1924 23.1141 24.1406 23.3431C24.212 23.3711 24.2813 23.4045 24.3477 23.4429C24.3255 23.7053 24.2663 24.0784 24.2479 24.2262C24.3365 24.2335 24.4256 24.2335 24.5141 24.2262" fill="#221F1D"/>
<path d="M25.7269 2.02058C25.7269 1.9319 25.7269 1.84322 25.7269 1.76562H25.5827C25.3016 2.06122 25.0379 2.35805 24.7912 2.6561C24.7543 2.83347 24.721 3.02561 24.6914 3.19188C25.0341 2.79528 25.3854 2.40485 25.7454 2.02058" fill="#221F1D"/>
<path d="M20.2646 3.65712C20.6566 3.15461 21.056 2.62624 21.4628 2.12742C21.4126 2.11314 21.3651 2.09067 21.3222 2.06091C21.3186 2.02899 21.3186 1.99676 21.3222 1.96484C20.9192 2.45627 20.5234 2.95139 20.1426 3.46129C20.144 3.51224 20.1553 3.56243 20.1759 3.60909C20.2054 3.61595 20.2315 3.63295 20.2498 3.65712" fill="#221F1D"/>
<path d="M19.9354 4.09301L19.88 4.01172C19.6278 4.27082 19.4437 4.58813 19.3438 4.93545C19.5398 4.65464 19.7136 4.37013 19.9354 4.09301Z" fill="#221F1D"/>
<path d="M18.6553 5.94508C18.696 5.75294 18.7404 5.57558 18.7773 5.39453C18.4667 5.85764 18.1659 6.32443 17.875 6.79492C17.875 6.88729 17.875 7.06834 17.875 7.16441C18.1301 6.74689 18.3964 6.33675 18.6664 5.9303" fill="#221F1D"/>
<path d="M21.5547 2.02062L21.9245 1.5957C21.847 1.58789 21.769 1.58789 21.6916 1.5957C21.6694 1.71394 21.5806 2.00953 21.5695 2.0354" fill="#221F1D"/>
<path d="M18.8741 2.02137C19.2181 1.57059 19.5731 1.1272 19.9318 0.6875H19.8357C19.5065 1.09394 19.1774 1.50408 18.8594 1.92161C18.8594 1.96225 18.8594 1.98072 18.8594 2.02137" fill="#221F1D"/>
<path d="M28.0824 5.94922C27.8826 6.17461 27.6904 6.4037 27.498 6.63279C27.5141 6.65112 27.5341 6.66562 27.5565 6.67521C27.5789 6.68481 27.6032 6.68925 27.6275 6.68821C27.662 6.69029 27.6965 6.69029 27.7311 6.68821C27.8676 6.44874 27.9911 6.20205 28.1008 5.94922" fill="#221F1D"/>
<path d="M25.5485 9.35074C25.484 9.37685 25.4222 9.40902 25.3637 9.44683L25.249 9.61306C25.249 9.61306 25.2786 9.87537 25.3156 10.123C25.3156 10.123 25.3414 10.123 25.3525 10.123C25.6238 9.72143 25.9011 9.32241 26.1846 8.92578C26.1128 8.95454 26.0365 8.97075 25.9591 8.97382C25.8522 9.12265 25.7164 9.24834 25.5596 9.34332L25.5485 9.35074Z" fill="#221F1D"/>
<path d="M28.7332 5.21608L28.4521 5.53384C28.5483 5.60035 28.6038 5.8553 28.6038 5.859C28.6056 5.87866 28.6056 5.89846 28.6038 5.91812C28.7369 5.76663 28.87 5.61513 29.0069 5.46734C29.1437 5.31954 29.3767 5.06828 29.5653 4.87245L29.3582 4.55469C29.1474 4.77269 28.9403 4.99438 28.7332 5.21608Z" fill="#221F1D"/>
<path d="M22.1687 15.9441V15.9219C22.0023 16.0476 21.9727 16.066 21.7508 16.4946C21.689 16.4774 21.626 16.465 21.5622 16.4577C20.822 18.2483 20.2187 20.0925 19.7575 21.9742C19.7873 22.1713 19.8071 22.3699 19.8166 22.5691C19.7465 22.5964 19.6749 22.6198 19.6022 22.6393C17.4517 32.224 19.0654 42.2679 24.1103 50.6986C24.2621 50.7477 24.4064 50.8173 24.5392 50.9056C24.566 50.8804 24.5944 50.8569 24.6243 50.8354C21.443 45.6428 19.5605 39.7609 19.1364 33.6874C18.7121 27.614 19.7586 21.5278 22.1872 15.9441" fill="#221F1D"/>
<path d="M29.9383 4.12066C29.9419 4.0727 29.9419 4.02452 29.9383 3.97656L29.502 4.41995C29.6128 4.51373 29.7376 4.58976 29.8717 4.64535C29.8533 4.45321 29.82 4.43843 29.8384 4.34606C29.8569 4.25368 29.9161 4.19087 29.9568 4.12066" fill="#221F1D"/>
<path d="M18.5818 21.7747C18.5053 21.6721 18.4397 21.562 18.3859 21.4458C18.3618 21.3823 18.3432 21.3168 18.3304 21.25C15.8712 30.8119 17.0836 40.947 21.729 49.6604C22.1654 50.0558 22.3022 50.1556 22.4206 50.1592C17.6001 41.5213 16.2287 31.3811 18.5818 21.7747Z" fill="#221F1D"/>
<path d="M22.3168 1.1272C22.4462 0.9794 22.5756 0.831602 22.7088 0.6875H22.4499C22.3241 0.827907 22.191 0.968315 22.0801 1.11242H22.3279" fill="#221F1D"/>
<path d="M26.1043 11.1236C26.1725 11.2911 26.2041 11.4713 26.1967 11.652C26.7588 10.7701 27.3592 9.90801 27.9977 9.06551C27.9681 8.97318 27.7573 8.80321 27.7536 8.77734C27.1693 9.53604 26.6183 10.3145 26.1006 11.1126" fill="#221F1D"/>
<path d="M28.7964 8.07016C29.0256 7.79304 29.2549 7.51592 29.4917 7.24619L29.462 7.19816C29.4399 7.1686 29.377 7.1686 29.3363 7.17599C29.3136 7.17027 29.2914 7.16285 29.2697 7.15382C29.2374 7.11914 29.2077 7.08208 29.181 7.04297C28.9221 7.33856 28.6707 7.63785 28.4229 7.94084C28.5634 7.94084 28.715 7.95931 28.7927 8.07016" fill="#221F1D"/>
<path d="M29.7904 6.91169C30.0049 6.67152 30.2268 6.43135 30.4488 6.17271C30.4488 6.17271 30.4302 6.13945 30.4192 6.11728C30.3595 6.03274 30.281 5.96317 30.1899 5.91406C29.9421 6.1764 29.698 6.44244 29.4502 6.70847C29.5645 6.76386 29.6756 6.82554 29.7831 6.89322" fill="#221F1D"/>
<path d="M31.0332 5.06353C31.1349 5.14228 31.2469 5.20691 31.366 5.25567L31.6656 4.96377C31.6656 4.92682 31.7654 4.68295 31.7654 4.67926C31.7026 4.60905 31.6582 4.62753 31.5768 4.53516C31.3956 4.71251 31.207 4.88618 31.0332 5.06353Z" fill="#221F1D"/>
<path d="M20.4046 27.3153C19.903 32.1638 20.3783 37.0636 21.8024 41.7255C21.8357 41.4845 21.8914 41.2469 21.9688 41.0162C20.7021 36.5768 20.2967 31.9364 20.7743 27.3449C20.8705 26.3891 21.0061 25.4408 21.1812 24.4998C21.1079 24.3727 20.9929 24.2747 20.8557 24.2227C20.6671 25.2388 20.5118 26.2696 20.4046 27.308" fill="#221F1D"/>
<path d="M24.6357 48.4961C25.0425 49.2351 25.4728 49.9741 25.9264 50.7131C26.1206 50.8277 26.2933 50.9752 26.4368 51.149C26.6861 51.6626 27.0006 52.142 27.3724 52.5753C27.4406 52.5317 27.4906 52.4647 27.5129 52.3869C26.6203 51.1591 25.8051 49.877 25.0721 48.5478C24.9132 48.5478 24.7689 48.5219 24.6357 48.5072" fill="#221F1D"/>
<path d="M35.6894 1.41171C35.6932 1.44732 35.6932 1.48325 35.6894 1.51886C35.6894 1.54472 35.6894 1.58167 35.6894 1.60754C36.1258 1.28977 36.5659 0.983095 37.0097 0.6875H36.3402C36.0222 0.905501 35.7079 1.13089 35.3936 1.35998C35.4379 1.40801 35.4268 1.48191 35.4786 1.52625C35.5525 1.49299 35.6192 1.44126 35.6968 1.41171" fill="#221F1D"/>
<path d="M18.6812 20.2695C18.6298 20.3972 18.5866 20.528 18.5518 20.6612C18.5518 20.7573 18.6443 21.064 18.6997 21.2857C18.698 21.266 18.698 21.2462 18.6997 21.2265C18.7514 21.027 18.8107 20.8349 18.8625 20.639C18.8054 20.5116 18.7399 20.3882 18.6664 20.2695" fill="#221F1D"/>
<path d="M21.5368 4.55875C21.7994 4.18925 22.062 3.8604 22.3356 3.51677C22.3903 3.36686 22.4359 3.21387 22.4725 3.05859C22.1433 3.46135 21.8179 3.87149 21.5036 4.28902C21.4382 4.37573 21.3836 4.47002 21.3408 4.56983C21.4059 4.57696 21.4717 4.57696 21.5368 4.56983" fill="#221F1D"/>
<path d="M23.5076 1.83203C23.2487 2.12763 22.9935 2.43061 22.7421 2.7336C22.7221 2.87585 22.6925 3.01659 22.6533 3.15482C22.9159 2.82966 23.1821 2.5082 23.4558 2.19413C23.4558 2.09807 23.4854 1.98352 23.5076 1.85051" fill="#221F1D"/>
<path d="M15.0351 39.714C15.1165 39.6881 15.1054 39.6733 15.1683 39.6586C13.9224 33.5054 14.0423 27.154 15.5196 21.0521C16.9968 14.9503 19.7955 9.24636 23.7185 4.34234C23.8035 4.08 23.9107 3.82505 23.9921 3.56641C23.2821 4.41624 22.6065 5.29194 21.9656 6.1935C21.9126 6.36599 21.8432 6.53302 21.7584 6.69232C21.7584 6.69232 21.7325 6.67385 21.6845 6.59625C18.19 11.6601 15.8173 17.4108 14.7249 23.464C13.6323 29.5172 13.8453 35.7337 15.3495 41.6981C15.4604 41.9605 15.527 42.0936 15.6232 42.3595C15.6232 42.3928 15.6232 42.4851 15.5862 42.5849L15.7526 43.1724C15.8524 43.2869 15.993 43.4274 16.1779 43.6011C15.9486 42.8621 15.7415 42.1231 15.5566 41.3841C15.2904 40.6118 15.2607 40.4271 15.0351 39.7361" fill="#221F1D"/>
<path d="M25.6818 3.98828C25.3674 4.35777 25.0642 4.72727 24.7646 5.09676C24.7952 5.22243 24.804 5.35241 24.7905 5.48103C24.9643 5.26673 25.1345 5.05242 25.312 4.83812C25.4118 4.62011 25.5413 4.31344 25.6818 3.98828Z" fill="#221F1D"/>
<path d="M17.7314 10.5944C17.8423 10.3838 17.9496 10.1696 18.0642 9.95896C18.0239 9.88361 17.9953 9.80263 17.9791 9.71875C17.846 9.95896 17.7166 10.2028 17.6094 10.4577C17.6351 10.4534 17.6613 10.4534 17.687 10.4577C17.7092 10.5205 17.7314 10.5686 17.7498 10.6093" fill="#221F1D"/>
<path d="M14.0953 20.0332C14.7934 17.3362 15.7443 14.7111 16.9355 12.1925C16.9355 12.1925 16.9355 12.1703 16.9355 12.1666L16.7838 12.0742C13.5385 18.9307 12.1037 26.503 12.6161 34.0702C12.6493 34.1071 12.7159 34.1404 12.7159 34.1848C12.7159 34.4397 12.7159 34.691 12.6826 34.9422C12.727 35.4374 12.7787 35.9287 12.8379 36.4202L13.0931 36.9449C12.3296 31.2959 12.67 25.5526 14.0953 20.0332Z" fill="#221F1D"/>
<path d="M35.8408 3.15551C35.7891 3.31439 35.752 3.3809 35.6152 3.72083C36.8335 2.7606 38.1146 1.88294 39.4502 1.09373C39.6869 0.953325 39.9273 0.816611 40.1677 0.683594H39.0582C37.9499 1.34747 36.8771 2.06897 35.8445 2.84513C35.8542 2.94837 35.8542 3.05227 35.8445 3.15551" fill="#221F1D"/>
<path d="M11.6364 23.1747C11.5846 23.4666 11.5366 23.7548 11.4922 24.0467C11.5144 24.0947 11.5809 24.3239 11.6216 24.4162C11.6771 24.0467 11.74 23.655 11.8066 23.2744C11.7705 23.2704 11.7362 23.2575 11.7065 23.2368C11.6769 23.2162 11.6527 23.1885 11.6364 23.1562" fill="#221F1D"/>
<path d="M24.0101 6.03906C23.8363 6.26815 23.6662 6.50093 23.4961 6.73002C23.5812 6.70046 23.718 6.65981 23.8955 6.61178C23.949 6.42424 23.9873 6.23273 24.0101 6.03906Z" fill="#221F1D"/>
<path d="M23.7666 9.1241L23.9368 9.10191C24.0439 8.9356 24.1919 8.73241 24.3731 8.49594C24.4208 8.50723 24.4668 8.52462 24.5099 8.54766L24.558 8.51441C24.7614 8.22251 24.9611 7.9343 25.1719 7.64979C25.1325 7.61862 25.0851 7.59939 25.0351 7.59437C25.0351 7.54264 25.0351 7.46874 25.0351 7.41332C25.0064 7.38898 24.9804 7.36174 24.9574 7.33203C24.5531 7.87642 24.1636 8.4282 23.7888 8.9874C23.7928 9.03288 23.7928 9.07862 23.7888 9.1241" fill="#221F1D"/>
<path d="M24.4951 5.80772C24.4951 5.8262 24.5875 5.43823 24.6357 5.24609C24.5284 5.37542 24.4249 5.50843 24.3213 5.64145C24.3805 5.70057 24.4396 5.75969 24.4951 5.80772Z" fill="#221F1D"/>
<path d="M28.3744 3.52113C28.086 3.89063 27.8456 4.19731 27.5645 4.51507C27.5645 4.58897 27.5645 4.56311 27.4795 4.83284C28.33 3.88201 29.2225 2.97551 30.1569 2.11337C30.0682 1.96187 30.1569 1.7956 30.1236 1.63672C29.5516 2.15401 28.9932 2.68731 28.4484 3.23662C28.4151 3.35856 28.4077 3.42137 28.3744 3.51005" fill="#221F1D"/>
<path d="M17.162 20.8289C18.422 15.8984 20.5931 11.2468 23.5635 7.11328C23.4082 7.20565 23.4526 7.20196 23.079 7.46061L23.0199 7.40518C19.3608 12.6539 16.9693 18.6786 16.0332 25.0062C15.097 31.3339 15.6416 37.7923 17.6243 43.8742C17.7574 44.1846 17.8758 44.4949 17.8758 44.4987C18.0073 44.5456 18.1236 44.6274 18.2123 44.7351C15.472 37.0516 15.1061 28.7227 17.162 20.8289Z" fill="#221F1D"/>
<path d="M11.8029 0.6875H9.85018C3.76592 10.1973 0.691868 21.3184 1.02894 32.6001C1.36609 43.8817 5.09874 54.7999 11.74 63.93H13.6963C6.8636 54.8828 3.01165 43.9388 2.67245 32.61C2.33325 21.2811 5.5237 10.1266 11.8029 0.6875Z" fill="#221F1D"/>
<path d="M3.76349 30.9269C3.74813 20.1273 7.02596 9.57928 13.1605 0.6875H11.8033C5.52409 10.1266 2.33374 21.2811 2.67294 32.61C3.01214 43.9388 6.86408 54.8828 13.6967 63.93H15.1021C7.73508 54.5053 3.74293 42.8852 3.76349 30.9269Z" fill="#212629"/>
<path d="M62.583 25.9414H70.5265L70.0495 27.4416H64.3175V31.3471H69.5725V32.8694H64.3175V37.1629H70.0683L70.582 38.6815H62.583V25.9414Z" fill="#212629"/>
<path d="M80.3087 25.9336H81.866L87.4391 38.6774H85.671L84.3066 35.6032H77.8682L76.5071 38.6774H74.7168L80.3087 25.9336ZM81.0886 28.217L78.5406 34.0292H83.6188L81.0886 28.217Z" fill="#212629"/>
<path d="M91.7285 25.9336H97.1421C99.4614 25.9336 101.121 27.4116 101.121 29.4179C101.121 31.2654 100.2 32.1928 98.4332 32.6879L101.617 38.6774H99.7422L96.665 32.9503H93.4813V38.6774H91.7285V25.9336ZM93.4813 27.4116V31.4501H96.8093C98.3999 31.4501 99.2686 30.7443 99.2686 29.4179C99.2686 28.0914 98.3999 27.4189 96.6804 27.4189L93.4813 27.4116Z" fill="#212629"/>
<path d="M105.5 25.9414H115.865V27.4785H111.55V38.6815H109.815V27.4785H105.5V25.9414Z" fill="#212629"/>
<path d="M120.606 25.9414H122.356V31.3471H128.71V25.9414H130.458V38.6815H128.71V32.9026H122.356V38.6815H120.606V25.9414Z" fill="#212629"/>
<path d="M62.5312 51.1875H69.5358L69.395 51.9819H63.3818V56.9996H68.5996V57.7978H63.3818V63.9276H62.5312V51.1875Z" fill="#212629"/>
<path d="M74.2432 51.1875H75.1093V59.6563C75.1093 62.2428 76.5071 63.595 79.2283 63.595C81.6731 63.595 82.9967 62.2168 82.9967 59.708V51.1875H83.8474V59.6009C83.8474 62.712 82.1689 64.3747 79.0176 64.3747C76.03 64.3747 74.2432 62.6085 74.2432 59.6563V51.1875Z" fill="#212629"/>
<path d="M89.5938 51.1875H90.7995L98.2286 62.7822V51.1875H99.0948V63.9276H98.0144L90.4445 52.1408V63.9276H89.5938V51.1875Z" fill="#212629"/>
<path d="M104.968 51.1875H109.354C112.804 51.1875 115.03 53.774 115.03 57.8014C115.03 59.7597 114.45 61.3153 113.314 62.4312C112.238 63.4731 110.892 63.9314 108.806 63.9314H104.968V51.1875ZM105.833 51.9487V63.1369H108.91C110.714 63.1369 111.831 62.749 112.734 61.8289C113.636 60.9088 114.146 59.4272 114.146 57.7128C114.146 55.8653 113.599 54.2284 112.645 53.2788C111.776 52.3957 110.574 51.9523 108.98 51.9523L105.833 51.9487Z" fill="#212629"/>
<path d="M62.8828 0.691406H67.5016C70.0651 0.691406 71.6028 1.79989 71.6028 3.62519C71.6028 5.7276 69.6759 6.27445 68.6152 6.58113C69.2766 6.66848 69.9208 6.85925 70.5233 7.14646C71.0234 7.40806 71.4415 7.8024 71.7316 8.28609C72.0226 8.76979 72.1736 9.32412 72.1685 9.88809C72.1685 11.0557 71.4807 13.4241 67.942 13.4241H62.8828V0.691406ZM63.7334 1.39714V6.22272H66.9325C69.181 6.22272 70.7563 5.19553 70.7563 3.71386C70.7563 2.2322 69.5172 1.39714 67.4837 1.39714H63.7334ZM63.7334 6.93954V12.7073H67.8387C69.891 12.7073 71.27 11.5989 71.27 9.9177C71.27 8.04433 69.5727 6.96171 66.7063 6.96171L63.7334 6.93954Z" fill="#212629"/>
<path d="M77.1426 0.691406H84.698L84.3242 1.48582H77.9934V6.48876H83.581V7.28318H77.9934V12.6371H84.5017L84.8021 13.4352H77.1426V0.691406Z" fill="#212629"/>
<path d="M88.87 0.691406H97.2719L90.0382 12.6741H97.6456V13.4352H88.6592L95.8741 1.46734H88.87V0.691406Z" fill="#212629"/>
<path d="M101.447 7.10718C101.447 3.16467 103.762 0.375 107.072 0.375C110.382 0.375 112.697 3.18315 112.697 7.21803C112.697 11.0719 110.326 13.8689 107.072 13.8689C103.818 13.8689 101.447 11.0423 101.447 7.11826M111.802 7.27714C111.802 3.5822 109.927 1.1805 106.994 1.1805C104.198 1.1805 102.342 3.56742 102.342 7.0924C102.342 10.6174 104.268 13.0856 106.994 13.0856C111.133 13.0856 111.802 8.71817 111.802 7.26975" fill="#212629"/>
<path d="M121.861 6.13731C119.272 5.21727 118.444 4.56327 118.444 3.46957C118.444 2.0544 119.631 1.15284 121.506 1.15284C123.381 1.15284 124.38 2.47193 124.834 3.24417L125.574 2.67515C124.834 1.6886 123.84 0.410156 121.428 0.410156C119.017 0.410156 117.542 1.55928 117.542 3.43262C117.542 5.60524 119.761 6.38857 121.469 6.98714C123.451 7.6744 125.237 8.48729 125.237 10.1833C125.237 11.8792 123.758 13.0284 121.646 13.0284C118.747 13.0284 117.845 10.9813 117.49 10.0096L116.75 10.5749C117.133 11.5419 117.799 12.3711 118.66 12.9543C119.522 13.5377 120.539 13.848 121.58 13.8449C124.287 13.8449 126.143 12.3226 126.143 10.0798C126.143 7.92196 124.294 7.0204 121.846 6.13731" fill="#212629"/>
</g>
<defs>
<clipPath id="clip0_3854_7216">
<rect width="130" height="64" fill="white" transform="translate(0.799805 0.375)"/>
</clipPath>
</defs>
</svg>
