<svg width="1200" height="200" viewBox="0 0 1200 200" fill="none" xmlns="http://www.w3.org/2000/svg" xmlns:xlink="http://www.w3.org/1999/xlink">
<mask id="path-1-inside-1_1999_5695" fill="white">
<path d="M0 8C0 3.58173 3.58172 0 8 0H1192C1196.42 0 1200 3.58172 1200 8V200H0V8Z"/>
</mask>
<path d="M0 8C0 3.58173 3.58172 0 8 0H1192C1196.42 0 1200 3.58172 1200 8V200H0V8Z" fill="white"/>
<path d="M0 8C0 3.58173 3.58172 0 8 0H1192C1196.42 0 1200 3.58172 1200 8V200H0V8Z" fill="url(#pattern0_1999_5695)" fill-opacity="0.8"/>
<path d="M0 8C0 2.47715 4.47715 -2 10 -2H1190C1195.52 -2 1200 2.47715 1200 8C1200 4.68629 1196.42 2 1192 2H8C3.58172 2 0 4.68629 0 8ZM0 8M1200 200H0H1200M1200 200M0 200V0V200M0 200M1200 0V200V0" fill="#0049AA" mask="url(#path-1-inside-1_1999_5695)"/>
<defs>
<pattern id="pattern0_1999_5695" patternUnits="userSpaceOnUse" patternTransform="matrix(384 0 0 384 0 0)" preserveAspectRatio="none" viewBox="0 0 960 960" width="1" height="1">
<g id="pattern0_1999_5695_inner">
<mask id="mask0_1999_5695" style="mask-type:alpha" maskUnits="userSpaceOnUse" x="0" y="0" width="960" height="960">
<rect width="960" height="960" fill="url(#paint0_radial_1999_5695)"/>
</mask>
<g mask="url(#mask0_1999_5695)">
<g clip-path="url(#clip0_1999_5695)">
<mask id="path-5-inside-2_1999_5695" fill="white">
<path d="M0 0H96V96H0V0Z"/>
</mask>
<path d="M96 96V97H97V96H96ZM96 0H95V96H96H97V0H96ZM96 96V95H0V96V97H96V96Z" fill="#E0E2E5" mask="url(#path-5-inside-2_1999_5695)"/>
<mask id="path-7-inside-3_1999_5695" fill="white">
<path d="M96 0H192V96H96V0Z"/>
</mask>
<path d="M192 96V97H193V96H192ZM192 0H191V96H192H193V0H192ZM192 96V95H96V96V97H192V96Z" fill="#E0E2E5" mask="url(#path-7-inside-3_1999_5695)"/>
<mask id="path-9-inside-4_1999_5695" fill="white">
<path d="M192 0H288V96H192V0Z"/>
</mask>
<path d="M288 96V97H289V96H288ZM288 0H287V96H288H289V0H288ZM288 96V95H192V96V97H288V96Z" fill="#E0E2E5" mask="url(#path-9-inside-4_1999_5695)"/>
<mask id="path-11-inside-5_1999_5695" fill="white">
<path d="M288 0H384V96H288V0Z"/>
</mask>
<path d="M384 96V97H385V96H384ZM384 0H383V96H384H385V0H384ZM384 96V95H288V96V97H384V96Z" fill="#E0E2E5" mask="url(#path-11-inside-5_1999_5695)"/>
<mask id="path-13-inside-6_1999_5695" fill="white">
<path d="M384 0H480V96H384V0Z"/>
</mask>
<path d="M480 96V97H481V96H480ZM480 0H479V96H480H481V0H480ZM480 96V95H384V96V97H480V96Z" fill="#E0E2E5" mask="url(#path-13-inside-6_1999_5695)"/>
<mask id="path-15-inside-7_1999_5695" fill="white">
<path d="M480 0H576V96H480V0Z"/>
</mask>
<path d="M576 96V97H577V96H576ZM576 0H575V96H576H577V0H576ZM576 96V95H480V96V97H576V96Z" fill="#E0E2E5" mask="url(#path-15-inside-7_1999_5695)"/>
<mask id="path-17-inside-8_1999_5695" fill="white">
<path d="M576 0H672V96H576V0Z"/>
</mask>
<path d="M672 96V97H673V96H672ZM672 0H671V96H672H673V0H672ZM672 96V95H576V96V97H672V96Z" fill="#E0E2E5" mask="url(#path-17-inside-8_1999_5695)"/>
<mask id="path-19-inside-9_1999_5695" fill="white">
<path d="M672 0H768V96H672V0Z"/>
</mask>
<path d="M768 96V97H769V96H768ZM768 0H767V96H768H769V0H768ZM768 96V95H672V96V97H768V96Z" fill="#E0E2E5" mask="url(#path-19-inside-9_1999_5695)"/>
<mask id="path-21-inside-10_1999_5695" fill="white">
<path d="M768 0H864V96H768V0Z"/>
</mask>
<path d="M864 96V97H865V96H864ZM864 0H863V96H864H865V0H864ZM864 96V95H768V96V97H864V96Z" fill="#E0E2E5" mask="url(#path-21-inside-10_1999_5695)"/>
<mask id="path-23-inside-11_1999_5695" fill="white">
<path d="M864 0H960V96H864V0Z"/>
</mask>
<path d="M960 96V97H961V96H960ZM960 0H959V96H960H961V0H960ZM960 96V95H864V96V97H960V96Z" fill="#E0E2E5" mask="url(#path-23-inside-11_1999_5695)"/>
<mask id="path-25-inside-12_1999_5695" fill="white">
<path d="M0 96H96V192H0V96Z"/>
</mask>
<path d="M96 192V193H97V192H96ZM96 96H95V192H96H97V96H96ZM96 192V191H0V192V193H96V192Z" fill="#E0E2E5" mask="url(#path-25-inside-12_1999_5695)"/>
<mask id="path-27-inside-13_1999_5695" fill="white">
<path d="M96 96H192V192H96V96Z"/>
</mask>
<path d="M192 192V193H193V192H192ZM192 96H191V192H192H193V96H192ZM192 192V191H96V192V193H192V192Z" fill="#E0E2E5" mask="url(#path-27-inside-13_1999_5695)"/>
<mask id="path-29-inside-14_1999_5695" fill="white">
<path d="M192 96H288V192H192V96Z"/>
</mask>
<path d="M192 96H288V192H192V96Z" fill="#F4F5F6"/>
<path d="M288 192V193H289V192H288ZM288 96H287V192H288H289V96H288ZM288 192V191H192V192V193H288V192Z" fill="#E0E2E5" mask="url(#path-29-inside-14_1999_5695)"/>
<mask id="path-31-inside-15_1999_5695" fill="white">
<path d="M288 96H384V192H288V96Z"/>
</mask>
<path d="M384 192V193H385V192H384ZM384 96H383V192H384H385V96H384ZM384 192V191H288V192V193H384V192Z" fill="#E0E2E5" mask="url(#path-31-inside-15_1999_5695)"/>
<mask id="path-33-inside-16_1999_5695" fill="white">
<path d="M384 96H480V192H384V96Z"/>
</mask>
<path d="M480 192V193H481V192H480ZM480 96H479V192H480H481V96H480ZM480 192V191H384V192V193H480V192Z" fill="#E0E2E5" mask="url(#path-33-inside-16_1999_5695)"/>
<mask id="path-35-inside-17_1999_5695" fill="white">
<path d="M480 96H576V192H480V96Z"/>
</mask>
<path d="M576 192V193H577V192H576ZM576 96H575V192H576H577V96H576ZM576 192V191H480V192V193H576V192Z" fill="#E0E2E5" mask="url(#path-35-inside-17_1999_5695)"/>
<mask id="path-37-inside-18_1999_5695" fill="white">
<path d="M576 96H672V192H576V96Z"/>
</mask>
<path d="M672 192V193H673V192H672ZM672 96H671V192H672H673V96H672ZM672 192V191H576V192V193H672V192Z" fill="#E0E2E5" mask="url(#path-37-inside-18_1999_5695)"/>
<mask id="path-39-inside-19_1999_5695" fill="white">
<path d="M672 96H768V192H672V96Z"/>
</mask>
<path d="M768 192V193H769V192H768ZM768 96H767V192H768H769V96H768ZM768 192V191H672V192V193H768V192Z" fill="#E0E2E5" mask="url(#path-39-inside-19_1999_5695)"/>
<mask id="path-41-inside-20_1999_5695" fill="white">
<path d="M768 96H864V192H768V96Z"/>
</mask>
<path d="M768 96H864V192H768V96Z" fill="#F4F5F6"/>
<path d="M864 192V193H865V192H864ZM864 96H863V192H864H865V96H864ZM864 192V191H768V192V193H864V192Z" fill="#E0E2E5" mask="url(#path-41-inside-20_1999_5695)"/>
<mask id="path-43-inside-21_1999_5695" fill="white">
<path d="M864 96H960V192H864V96Z"/>
</mask>
<path d="M960 192V193H961V192H960ZM960 96H959V192H960H961V96H960ZM960 192V191H864V192V193H960V192Z" fill="#E0E2E5" mask="url(#path-43-inside-21_1999_5695)"/>
<mask id="path-45-inside-22_1999_5695" fill="white">
<path d="M0 192H96V288H0V192Z"/>
</mask>
<path d="M0 192H96V288H0V192Z" fill="#F4F5F6"/>
<path d="M96 288V289H97V288H96ZM96 192H95V288H96H97V192H96ZM96 288V287H0V288V289H96V288Z" fill="#E0E2E5" mask="url(#path-45-inside-22_1999_5695)"/>
<mask id="path-47-inside-23_1999_5695" fill="white">
<path d="M96 192H192V288H96V192Z"/>
</mask>
<path d="M192 288V289H193V288H192ZM192 192H191V288H192H193V192H192ZM192 288V287H96V288V289H192V288Z" fill="#E0E2E5" mask="url(#path-47-inside-23_1999_5695)"/>
<mask id="path-49-inside-24_1999_5695" fill="white">
<path d="M192 192H288V288H192V192Z"/>
</mask>
<path d="M288 288V289H289V288H288ZM288 192H287V288H288H289V192H288ZM288 288V287H192V288V289H288V288Z" fill="#E0E2E5" mask="url(#path-49-inside-24_1999_5695)"/>
<mask id="path-51-inside-25_1999_5695" fill="white">
<path d="M288 192H384V288H288V192Z"/>
</mask>
<path d="M384 288V289H385V288H384ZM384 192H383V288H384H385V192H384ZM384 288V287H288V288V289H384V288Z" fill="#E0E2E5" mask="url(#path-51-inside-25_1999_5695)"/>
<mask id="path-53-inside-26_1999_5695" fill="white">
<path d="M384 192H480V288H384V192Z"/>
</mask>
<path d="M480 288V289H481V288H480ZM480 192H479V288H480H481V192H480ZM480 288V287H384V288V289H480V288Z" fill="#E0E2E5" mask="url(#path-53-inside-26_1999_5695)"/>
<mask id="path-55-inside-27_1999_5695" fill="white">
<path d="M480 192H576V288H480V192Z"/>
</mask>
<path d="M576 288V289H577V288H576ZM576 192H575V288H576H577V192H576ZM576 288V287H480V288V289H576V288Z" fill="#E0E2E5" mask="url(#path-55-inside-27_1999_5695)"/>
<mask id="path-57-inside-28_1999_5695" fill="white">
<path d="M576 192H672V288H576V192Z"/>
</mask>
<path d="M576 192H672V288H576V192Z" fill="#F4F5F6"/>
<path d="M672 288V289H673V288H672ZM672 192H671V288H672H673V192H672ZM672 288V287H576V288V289H672V288Z" fill="#E0E2E5" mask="url(#path-57-inside-28_1999_5695)"/>
<mask id="path-59-inside-29_1999_5695" fill="white">
<path d="M672 192H768V288H672V192Z"/>
</mask>
<path d="M768 288V289H769V288H768ZM768 192H767V288H768H769V192H768ZM768 288V287H672V288V289H768V288Z" fill="#E0E2E5" mask="url(#path-59-inside-29_1999_5695)"/>
<mask id="path-61-inside-30_1999_5695" fill="white">
<path d="M768 192H864V288H768V192Z"/>
</mask>
<path d="M864 288V289H865V288H864ZM864 192H863V288H864H865V192H864ZM864 288V287H768V288V289H864V288Z" fill="#E0E2E5" mask="url(#path-61-inside-30_1999_5695)"/>
<mask id="path-63-inside-31_1999_5695" fill="white">
<path d="M864 192H960V288H864V192Z"/>
</mask>
<path d="M960 288V289H961V288H960ZM960 192H959V288H960H961V192H960ZM960 288V287H864V288V289H960V288Z" fill="#E0E2E5" mask="url(#path-63-inside-31_1999_5695)"/>
<mask id="path-65-inside-32_1999_5695" fill="white">
<path d="M0 288H96V384H0V288Z"/>
</mask>
<path d="M96 384V385H97V384H96ZM96 288H95V384H96H97V288H96ZM96 384V383H0V384V385H96V384Z" fill="#E0E2E5" mask="url(#path-65-inside-32_1999_5695)"/>
<mask id="path-67-inside-33_1999_5695" fill="white">
<path d="M96 288H192V384H96V288Z"/>
</mask>
<path d="M192 384V385H193V384H192ZM192 288H191V384H192H193V288H192ZM192 384V383H96V384V385H192V384Z" fill="#E0E2E5" mask="url(#path-67-inside-33_1999_5695)"/>
<mask id="path-69-inside-34_1999_5695" fill="white">
<path d="M192 288H288V384H192V288Z"/>
</mask>
<path d="M288 384V385H289V384H288ZM288 288H287V384H288H289V288H288ZM288 384V383H192V384V385H288V384Z" fill="#E0E2E5" mask="url(#path-69-inside-34_1999_5695)"/>
<mask id="path-71-inside-35_1999_5695" fill="white">
<path d="M288 288H384V384H288V288Z"/>
</mask>
<path d="M384 384V385H385V384H384ZM384 288H383V384H384H385V288H384ZM384 384V383H288V384V385H384V384Z" fill="#E0E2E5" mask="url(#path-71-inside-35_1999_5695)"/>
<mask id="path-73-inside-36_1999_5695" fill="white">
<path d="M384 288H480V384H384V288Z"/>
</mask>
<path d="M480 384V385H481V384H480ZM480 288H479V384H480H481V288H480ZM480 384V383H384V384V385H480V384Z" fill="#E0E2E5" mask="url(#path-73-inside-36_1999_5695)"/>
<mask id="path-75-inside-37_1999_5695" fill="white">
<path d="M480 288H576V384H480V288Z"/>
</mask>
<path d="M576 384V385H577V384H576ZM576 288H575V384H576H577V288H576ZM576 384V383H480V384V385H576V384Z" fill="#E0E2E5" mask="url(#path-75-inside-37_1999_5695)"/>
<mask id="path-77-inside-38_1999_5695" fill="white">
<path d="M576 288H672V384H576V288Z"/>
</mask>
<path d="M672 384V385H673V384H672ZM672 288H671V384H672H673V288H672ZM672 384V383H576V384V385H672V384Z" fill="#E0E2E5" mask="url(#path-77-inside-38_1999_5695)"/>
<mask id="path-79-inside-39_1999_5695" fill="white">
<path d="M672 288H768V384H672V288Z"/>
</mask>
<path d="M768 384V385H769V384H768ZM768 288H767V384H768H769V288H768ZM768 384V383H672V384V385H768V384Z" fill="#E0E2E5" mask="url(#path-79-inside-39_1999_5695)"/>
<mask id="path-81-inside-40_1999_5695" fill="white">
<path d="M768 288H864V384H768V288Z"/>
</mask>
<path d="M864 384V385H865V384H864ZM864 288H863V384H864H865V288H864ZM864 384V383H768V384V385H864V384Z" fill="#E0E2E5" mask="url(#path-81-inside-40_1999_5695)"/>
<mask id="path-83-inside-41_1999_5695" fill="white">
<path d="M864 288H960V384H864V288Z"/>
</mask>
<path d="M864 288H960V384H864V288Z" fill="#F4F5F6"/>
<path d="M960 384V385H961V384H960ZM960 288H959V384H960H961V288H960ZM960 384V383H864V384V385H960V384Z" fill="#E0E2E5" mask="url(#path-83-inside-41_1999_5695)"/>
<mask id="path-85-inside-42_1999_5695" fill="white">
<path d="M0 384H96V480H0V384Z"/>
</mask>
<path d="M96 480V481H97V480H96ZM96 384H95V480H96H97V384H96ZM96 480V479H0V480V481H96V480Z" fill="#E0E2E5" mask="url(#path-85-inside-42_1999_5695)"/>
<mask id="path-87-inside-43_1999_5695" fill="white">
<path d="M96 384H192V480H96V384Z"/>
</mask>
<path d="M192 480V481H193V480H192ZM192 384H191V480H192H193V384H192ZM192 480V479H96V480V481H192V480Z" fill="#E0E2E5" mask="url(#path-87-inside-43_1999_5695)"/>
<mask id="path-89-inside-44_1999_5695" fill="white">
<path d="M192 384H288V480H192V384Z"/>
</mask>
<path d="M288 480V481H289V480H288ZM288 384H287V480H288H289V384H288ZM288 480V479H192V480V481H288V480Z" fill="#E0E2E5" mask="url(#path-89-inside-44_1999_5695)"/>
<mask id="path-91-inside-45_1999_5695" fill="white">
<path d="M288 384H384V480H288V384Z"/>
</mask>
<path d="M288 384H384V480H288V384Z" fill="#F4F5F6"/>
<path d="M384 480V481H385V480H384ZM384 384H383V480H384H385V384H384ZM384 480V479H288V480V481H384V480Z" fill="#E0E2E5" mask="url(#path-91-inside-45_1999_5695)"/>
<mask id="path-93-inside-46_1999_5695" fill="white">
<path d="M384 384H480V480H384V384Z"/>
</mask>
<path d="M480 480V481H481V480H480ZM480 384H479V480H480H481V384H480ZM480 480V479H384V480V481H480V480Z" fill="#E0E2E5" mask="url(#path-93-inside-46_1999_5695)"/>
<mask id="path-95-inside-47_1999_5695" fill="white">
<path d="M480 384H576V480H480V384Z"/>
</mask>
<path d="M576 480V481H577V480H576ZM576 384H575V480H576H577V384H576ZM576 480V479H480V480V481H576V480Z" fill="#E0E2E5" mask="url(#path-95-inside-47_1999_5695)"/>
<mask id="path-97-inside-48_1999_5695" fill="white">
<path d="M576 384H672V480H576V384Z"/>
</mask>
<path d="M672 480V481H673V480H672ZM672 384H671V480H672H673V384H672ZM672 480V479H576V480V481H672V480Z" fill="#E0E2E5" mask="url(#path-97-inside-48_1999_5695)"/>
<mask id="path-99-inside-49_1999_5695" fill="white">
<path d="M672 384H768V480H672V384Z"/>
</mask>
<path d="M768 480V481H769V480H768ZM768 384H767V480H768H769V384H768ZM768 480V479H672V480V481H768V480Z" fill="#E0E2E5" mask="url(#path-99-inside-49_1999_5695)"/>
<mask id="path-101-inside-50_1999_5695" fill="white">
<path d="M768 384H864V480H768V384Z"/>
</mask>
<path d="M864 480V481H865V480H864ZM864 384H863V480H864H865V384H864ZM864 480V479H768V480V481H864V480Z" fill="#E0E2E5" mask="url(#path-101-inside-50_1999_5695)"/>
<mask id="path-103-inside-51_1999_5695" fill="white">
<path d="M864 384H960V480H864V384Z"/>
</mask>
<path d="M960 480V481H961V480H960ZM960 384H959V480H960H961V384H960ZM960 480V479H864V480V481H960V480Z" fill="#E0E2E5" mask="url(#path-103-inside-51_1999_5695)"/>
<mask id="path-105-inside-52_1999_5695" fill="white">
<path d="M0 480H96V576H0V480Z"/>
</mask>
<path d="M0 480H96V576H0V480Z" fill="#F4F5F6"/>
<path d="M96 576V577H97V576H96ZM96 480H95V576H96H97V480H96ZM96 576V575H0V576V577H96V576Z" fill="#E0E2E5" mask="url(#path-105-inside-52_1999_5695)"/>
<mask id="path-107-inside-53_1999_5695" fill="white">
<path d="M96 480H192V576H96V480Z"/>
</mask>
<path d="M192 576V577H193V576H192ZM192 480H191V576H192H193V480H192ZM192 576V575H96V576V577H192V576Z" fill="#E0E2E5" mask="url(#path-107-inside-53_1999_5695)"/>
<mask id="path-109-inside-54_1999_5695" fill="white">
<path d="M192 480H288V576H192V480Z"/>
</mask>
<path d="M288 576V577H289V576H288ZM288 480H287V576H288H289V480H288ZM288 576V575H192V576V577H288V576Z" fill="#E0E2E5" mask="url(#path-109-inside-54_1999_5695)"/>
<mask id="path-111-inside-55_1999_5695" fill="white">
<path d="M288 480H384V576H288V480Z"/>
</mask>
<path d="M384 576V577H385V576H384ZM384 480H383V576H384H385V480H384ZM384 576V575H288V576V577H384V576Z" fill="#E0E2E5" mask="url(#path-111-inside-55_1999_5695)"/>
<mask id="path-113-inside-56_1999_5695" fill="white">
<path d="M384 480H480V576H384V480Z"/>
</mask>
<path d="M480 576V577H481V576H480ZM480 480H479V576H480H481V480H480ZM480 576V575H384V576V577H480V576Z" fill="#E0E2E5" mask="url(#path-113-inside-56_1999_5695)"/>
<mask id="path-115-inside-57_1999_5695" fill="white">
<path d="M480 480H576V576H480V480Z"/>
</mask>
<path d="M576 576V577H577V576H576ZM576 480H575V576H576H577V480H576ZM576 576V575H480V576V577H576V576Z" fill="#E0E2E5" mask="url(#path-115-inside-57_1999_5695)"/>
<mask id="path-117-inside-58_1999_5695" fill="white">
<path d="M576 480H672V576H576V480Z"/>
</mask>
<path d="M576 480H672V576H576V480Z" fill="#F4F5F6"/>
<path d="M672 576V577H673V576H672ZM672 480H671V576H672H673V480H672ZM672 576V575H576V576V577H672V576Z" fill="#E0E2E5" mask="url(#path-117-inside-58_1999_5695)"/>
<mask id="path-119-inside-59_1999_5695" fill="white">
<path d="M672 480H768V576H672V480Z"/>
</mask>
<path d="M768 576V577H769V576H768ZM768 480H767V576H768H769V480H768ZM768 576V575H672V576V577H768V576Z" fill="#E0E2E5" mask="url(#path-119-inside-59_1999_5695)"/>
<mask id="path-121-inside-60_1999_5695" fill="white">
<path d="M768 480H864V576H768V480Z"/>
</mask>
<path d="M864 576V577H865V576H864ZM864 480H863V576H864H865V480H864ZM864 576V575H768V576V577H864V576Z" fill="#E0E2E5" mask="url(#path-121-inside-60_1999_5695)"/>
<mask id="path-123-inside-61_1999_5695" fill="white">
<path d="M864 480H960V576H864V480Z"/>
</mask>
<path d="M960 576V577H961V576H960ZM960 480H959V576H960H961V480H960ZM960 576V575H864V576V577H960V576Z" fill="#E0E2E5" mask="url(#path-123-inside-61_1999_5695)"/>
<mask id="path-125-inside-62_1999_5695" fill="white">
<path d="M0 576H96V672H0V576Z"/>
</mask>
<path d="M96 672V673H97V672H96ZM96 576H95V672H96H97V576H96ZM96 672V671H0V672V673H96V672Z" fill="#E0E2E5" mask="url(#path-125-inside-62_1999_5695)"/>
<mask id="path-127-inside-63_1999_5695" fill="white">
<path d="M96 576H192V672H96V576Z"/>
</mask>
<path d="M192 672V673H193V672H192ZM192 576H191V672H192H193V576H192ZM192 672V671H96V672V673H192V672Z" fill="#E0E2E5" mask="url(#path-127-inside-63_1999_5695)"/>
<mask id="path-129-inside-64_1999_5695" fill="white">
<path d="M192 576H288V672H192V576Z"/>
</mask>
<path d="M288 672V673H289V672H288ZM288 576H287V672H288H289V576H288ZM288 672V671H192V672V673H288V672Z" fill="#E0E2E5" mask="url(#path-129-inside-64_1999_5695)"/>
<mask id="path-131-inside-65_1999_5695" fill="white">
<path d="M288 576H384V672H288V576Z"/>
</mask>
<path d="M384 672V673H385V672H384ZM384 576H383V672H384H385V576H384ZM384 672V671H288V672V673H384V672Z" fill="#E0E2E5" mask="url(#path-131-inside-65_1999_5695)"/>
<mask id="path-133-inside-66_1999_5695" fill="white">
<path d="M384 576H480V672H384V576Z"/>
</mask>
<path d="M480 672V673H481V672H480ZM480 576H479V672H480H481V576H480ZM480 672V671H384V672V673H480V672Z" fill="#E0E2E5" mask="url(#path-133-inside-66_1999_5695)"/>
<mask id="path-135-inside-67_1999_5695" fill="white">
<path d="M480 576H576V672H480V576Z"/>
</mask>
<path d="M576 672V673H577V672H576ZM576 576H575V672H576H577V576H576ZM576 672V671H480V672V673H576V672Z" fill="#E0E2E5" mask="url(#path-135-inside-67_1999_5695)"/>
<mask id="path-137-inside-68_1999_5695" fill="white">
<path d="M576 576H672V672H576V576Z"/>
</mask>
<path d="M672 672V673H673V672H672ZM672 576H671V672H672H673V576H672ZM672 672V671H576V672V673H672V672Z" fill="#E0E2E5" mask="url(#path-137-inside-68_1999_5695)"/>
<mask id="path-139-inside-69_1999_5695" fill="white">
<path d="M672 576H768V672H672V576Z"/>
</mask>
<path d="M768 672V673H769V672H768ZM768 576H767V672H768H769V576H768ZM768 672V671H672V672V673H768V672Z" fill="#E0E2E5" mask="url(#path-139-inside-69_1999_5695)"/>
<mask id="path-141-inside-70_1999_5695" fill="white">
<path d="M768 576H864V672H768V576Z"/>
</mask>
<path d="M864 672V673H865V672H864ZM864 576H863V672H864H865V576H864ZM864 672V671H768V672V673H864V672Z" fill="#E0E2E5" mask="url(#path-141-inside-70_1999_5695)"/>
<mask id="path-143-inside-71_1999_5695" fill="white">
<path d="M864 576H960V672H864V576Z"/>
</mask>
<path d="M960 672V673H961V672H960ZM960 576H959V672H960H961V576H960ZM960 672V671H864V672V673H960V672Z" fill="#E0E2E5" mask="url(#path-143-inside-71_1999_5695)"/>
<mask id="path-145-inside-72_1999_5695" fill="white">
<path d="M0 672H96V768H0V672Z"/>
</mask>
<path d="M96 768V769H97V768H96ZM96 672H95V768H96H97V672H96ZM96 768V767H0V768V769H96V768Z" fill="#E0E2E5" mask="url(#path-145-inside-72_1999_5695)"/>
<mask id="path-147-inside-73_1999_5695" fill="white">
<path d="M96 672H192V768H96V672Z"/>
</mask>
<path d="M192 768V769H193V768H192ZM192 672H191V768H192H193V672H192ZM192 768V767H96V768V769H192V768Z" fill="#E0E2E5" mask="url(#path-147-inside-73_1999_5695)"/>
<mask id="path-149-inside-74_1999_5695" fill="white">
<path d="M192 672H288V768H192V672Z"/>
</mask>
<path d="M288 768V769H289V768H288ZM288 672H287V768H288H289V672H288ZM288 768V767H192V768V769H288V768Z" fill="#E0E2E5" mask="url(#path-149-inside-74_1999_5695)"/>
<mask id="path-151-inside-75_1999_5695" fill="white">
<path d="M288 672H384V768H288V672Z"/>
</mask>
<path d="M288 672H384V768H288V672Z" fill="#F4F5F6"/>
<path d="M384 768V769H385V768H384ZM384 672H383V768H384H385V672H384ZM384 768V767H288V768V769H384V768Z" fill="#E0E2E5" mask="url(#path-151-inside-75_1999_5695)"/>
<mask id="path-153-inside-76_1999_5695" fill="white">
<path d="M384 672H480V768H384V672Z"/>
</mask>
<path d="M480 768V769H481V768H480ZM480 672H479V768H480H481V672H480ZM480 768V767H384V768V769H480V768Z" fill="#E0E2E5" mask="url(#path-153-inside-76_1999_5695)"/>
<mask id="path-155-inside-77_1999_5695" fill="white">
<path d="M480 672H576V768H480V672Z"/>
</mask>
<path d="M576 768V769H577V768H576ZM576 672H575V768H576H577V672H576ZM576 768V767H480V768V769H576V768Z" fill="#E0E2E5" mask="url(#path-155-inside-77_1999_5695)"/>
<mask id="path-157-inside-78_1999_5695" fill="white">
<path d="M576 672H672V768H576V672Z"/>
</mask>
<path d="M672 768V769H673V768H672ZM672 672H671V768H672H673V672H672ZM672 768V767H576V768V769H672V768Z" fill="#E0E2E5" mask="url(#path-157-inside-78_1999_5695)"/>
<mask id="path-159-inside-79_1999_5695" fill="white">
<path d="M672 672H768V768H672V672Z"/>
</mask>
<path d="M768 768V769H769V768H768ZM768 672H767V768H768H769V672H768ZM768 768V767H672V768V769H768V768Z" fill="#E0E2E5" mask="url(#path-159-inside-79_1999_5695)"/>
<mask id="path-161-inside-80_1999_5695" fill="white">
<path d="M768 672H864V768H768V672Z"/>
</mask>
<path d="M864 768V769H865V768H864ZM864 672H863V768H864H865V672H864ZM864 768V767H768V768V769H864V768Z" fill="#E0E2E5" mask="url(#path-161-inside-80_1999_5695)"/>
<mask id="path-163-inside-81_1999_5695" fill="white">
<path d="M864 672H960V768H864V672Z"/>
</mask>
<path d="M864 672H960V768H864V672Z" fill="#F4F5F6"/>
<path d="M960 768V769H961V768H960ZM960 672H959V768H960H961V672H960ZM960 768V767H864V768V769H960V768Z" fill="#E0E2E5" mask="url(#path-163-inside-81_1999_5695)"/>
<mask id="path-165-inside-82_1999_5695" fill="white">
<path d="M0 768H96V864H0V768Z"/>
</mask>
<path d="M0 768H96V864H0V768Z" fill="#F4F5F6"/>
<path d="M96 864V865H97V864H96ZM96 768H95V864H96H97V768H96ZM96 864V863H0V864V865H96V864Z" fill="#E0E2E5" mask="url(#path-165-inside-82_1999_5695)"/>
<mask id="path-167-inside-83_1999_5695" fill="white">
<path d="M96 768H192V864H96V768Z"/>
</mask>
<path d="M192 864V865H193V864H192ZM192 768H191V864H192H193V768H192ZM192 864V863H96V864V865H192V864Z" fill="#E0E2E5" mask="url(#path-167-inside-83_1999_5695)"/>
<mask id="path-169-inside-84_1999_5695" fill="white">
<path d="M192 768H288V864H192V768Z"/>
</mask>
<path d="M288 864V865H289V864H288ZM288 768H287V864H288H289V768H288ZM288 864V863H192V864V865H288V864Z" fill="#E0E2E5" mask="url(#path-169-inside-84_1999_5695)"/>
<mask id="path-171-inside-85_1999_5695" fill="white">
<path d="M288 768H384V864H288V768Z"/>
</mask>
<path d="M384 864V865H385V864H384ZM384 768H383V864H384H385V768H384ZM384 864V863H288V864V865H384V864Z" fill="#E0E2E5" mask="url(#path-171-inside-85_1999_5695)"/>
<mask id="path-173-inside-86_1999_5695" fill="white">
<path d="M384 768H480V864H384V768Z"/>
</mask>
<path d="M480 864V865H481V864H480ZM480 768H479V864H480H481V768H480ZM480 864V863H384V864V865H480V864Z" fill="#E0E2E5" mask="url(#path-173-inside-86_1999_5695)"/>
<mask id="path-175-inside-87_1999_5695" fill="white">
<path d="M480 768H576V864H480V768Z"/>
</mask>
<path d="M576 864V865H577V864H576ZM576 768H575V864H576H577V768H576ZM576 864V863H480V864V865H576V864Z" fill="#E0E2E5" mask="url(#path-175-inside-87_1999_5695)"/>
<mask id="path-177-inside-88_1999_5695" fill="white">
<path d="M576 768H672V864H576V768Z"/>
</mask>
<path d="M576 768H672V864H576V768Z" fill="#F4F5F6"/>
<path d="M672 864V865H673V864H672ZM672 768H671V864H672H673V768H672ZM672 864V863H576V864V865H672V864Z" fill="#E0E2E5" mask="url(#path-177-inside-88_1999_5695)"/>
<mask id="path-179-inside-89_1999_5695" fill="white">
<path d="M672 768H768V864H672V768Z"/>
</mask>
<path d="M768 864V865H769V864H768ZM768 768H767V864H768H769V768H768ZM768 864V863H672V864V865H768V864Z" fill="#E0E2E5" mask="url(#path-179-inside-89_1999_5695)"/>
<mask id="path-181-inside-90_1999_5695" fill="white">
<path d="M768 768H864V864H768V768Z"/>
</mask>
<path d="M864 864V865H865V864H864ZM864 768H863V864H864H865V768H864ZM864 864V863H768V864V865H864V864Z" fill="#E0E2E5" mask="url(#path-181-inside-90_1999_5695)"/>
<mask id="path-183-inside-91_1999_5695" fill="white">
<path d="M864 768H960V864H864V768Z"/>
</mask>
<path d="M960 864V865H961V864H960ZM960 768H959V864H960H961V768H960ZM960 864V863H864V864V865H960V864Z" fill="#E0E2E5" mask="url(#path-183-inside-91_1999_5695)"/>
<mask id="path-185-inside-92_1999_5695" fill="white">
<path d="M0 864H96V960H0V864Z"/>
</mask>
<path d="M96 960V961H97V960H96ZM96 864H95V960H96H97V864H96ZM96 960V959H0V960V961H96V960Z" fill="#E0E2E5" mask="url(#path-185-inside-92_1999_5695)"/>
<mask id="path-187-inside-93_1999_5695" fill="white">
<path d="M96 864H192V960H96V864Z"/>
</mask>
<path d="M192 960V961H193V960H192ZM192 864H191V960H192H193V864H192ZM192 960V959H96V960V961H192V960Z" fill="#E0E2E5" mask="url(#path-187-inside-93_1999_5695)"/>
<mask id="path-189-inside-94_1999_5695" fill="white">
<path d="M192 864H288V960H192V864Z"/>
</mask>
<path d="M288 960V961H289V960H288ZM288 864H287V960H288H289V864H288ZM288 960V959H192V960V961H288V960Z" fill="#E0E2E5" mask="url(#path-189-inside-94_1999_5695)"/>
<mask id="path-191-inside-95_1999_5695" fill="white">
<path d="M288 864H384V960H288V864Z"/>
</mask>
<path d="M384 960V961H385V960H384ZM384 864H383V960H384H385V864H384ZM384 960V959H288V960V961H384V960Z" fill="#E0E2E5" mask="url(#path-191-inside-95_1999_5695)"/>
<mask id="path-193-inside-96_1999_5695" fill="white">
<path d="M384 864H480V960H384V864Z"/>
</mask>
<path d="M480 960V961H481V960H480ZM480 864H479V960H480H481V864H480ZM480 960V959H384V960V961H480V960Z" fill="#E0E2E5" mask="url(#path-193-inside-96_1999_5695)"/>
<mask id="path-195-inside-97_1999_5695" fill="white">
<path d="M480 864H576V960H480V864Z"/>
</mask>
<path d="M576 960V961H577V960H576ZM576 864H575V960H576H577V864H576ZM576 960V959H480V960V961H576V960Z" fill="#E0E2E5" mask="url(#path-195-inside-97_1999_5695)"/>
<mask id="path-197-inside-98_1999_5695" fill="white">
<path d="M576 864H672V960H576V864Z"/>
</mask>
<path d="M672 960V961H673V960H672ZM672 864H671V960H672H673V864H672ZM672 960V959H576V960V961H672V960Z" fill="#E0E2E5" mask="url(#path-197-inside-98_1999_5695)"/>
<mask id="path-199-inside-99_1999_5695" fill="white">
<path d="M672 864H768V960H672V864Z"/>
</mask>
<path d="M768 960V961H769V960H768ZM768 864H767V960H768H769V864H768ZM768 960V959H672V960V961H768V960Z" fill="#E0E2E5" mask="url(#path-199-inside-99_1999_5695)"/>
<mask id="path-201-inside-100_1999_5695" fill="white">
<path d="M768 864H864V960H768V864Z"/>
</mask>
<path d="M864 960V961H865V960H864ZM864 864H863V960H864H865V864H864ZM864 960V959H768V960V961H864V960Z" fill="#E0E2E5" mask="url(#path-201-inside-100_1999_5695)"/>
<mask id="path-203-inside-101_1999_5695" fill="white">
<path d="M864 864H960V960H864V864Z"/>
</mask>
<path d="M960 960V961H961V960H960ZM960 864H959V960H960H961V864H960ZM960 960V959H864V960V961H960V960Z" fill="#E0E2E5" mask="url(#path-203-inside-101_1999_5695)"/>
</g>
<rect x="0.5" y="0.5" width="959" height="959" stroke="#E0E2E5"/>
</g>
</g>
</pattern><radialGradient id="paint0_radial_1999_5695" cx="0" cy="0" r="1" gradientUnits="userSpaceOnUse" gradientTransform="translate(480 -0.000114441) rotate(90) scale(960 501.059)">
<stop/>
<stop offset="0.953125" stop-opacity="0"/>
</radialGradient>
<clipPath id="clip0_1999_5695">
<rect width="960" height="960" fill="white"/>
</clipPath>
</defs>
</svg>
