<svg width="188" height="32" viewBox="0 0 188 32" fill="none" xmlns="http://www.w3.org/2000/svg">
<path d="M49 6V10.9C49 10.8 48.2 10.8 47.9 10.7C47.6 10.7 47.3 10.6 46.8 10.6C46 10.6 45.2 10.7 44.6 11C44 11.3 43.5 11.7 43.1 12.2C42.7 12.7 42.4 13.4 42.2 14.2C42.1 15 42 15.9 42 16.8C42 18.7 42.3 20.2 43 21.2C43.7 22.2 44.7 22.7 45.9 22.7C46.7 22.7 47.3 22.6 47.8 22.3C48.3 22 48.7 21.8 49.1 21.1L49.2 22.9H51V6H49ZM49 17.5C49 18 48.9 18.5 48.8 19C48.7 19.5 48.5 19.9 48.2 20.2C48 20.5 47.7 20.8 47.3 21C47 21.2 46.6 21.3 46.2 21.3C45.4 21.3 44.8 20.9 44.4 20.1C44 19.3 43.8 18.2 43.8 16.6C43.8 15.1 44 14 44.5 13.2C44.9 12.4 45.7 12.1 46.7 12.1C47.2 12.1 47.6 12.1 48 12.2C48.4 12.3 49 12.4 49 12.5V17.5ZM58.8 22.3C58.1 22.6 57.3 22.8 56.5 22.8C55 22.8 53.9 22.4 53.2 21.5C52.5 20.6 52.1 19.2 52.1 17.3C52.1 15.1 52.5 13.4 53.3 12.3C54.1 11.2 55.2 10.6 56.6 10.6C58 10.6 59 11.1 59.8 12.1C60.5 13.1 60.8 14.7 60.7 16.8H54V17C54 18.6 54.2 19.7 54.7 20.4C55.2 21.1 55.8 21.4 56.7 21.4C57.2 21.4 57.8 21.3 58.3 21.1C58.8 20.9 59.4 20.6 60.1 20.1L60.8 21.3C60.1 21.7 59.5 22 58.8 22.3ZM58.2 12.9C57.8 12.3 57.2 12 56.5 12C55.8 12 55.2 12.3 54.8 12.9C54.4 13.5 54.2 14.4 54.1 15.5H58.8C58.8 14.4 58.6 13.5 58.2 12.9ZM69.2 13.6C69 14.5 68.7 15.4 68.4 16.4C68.1 17.3 67.8 18.3 67.5 19.4C67.2 20.4 66.9 21.5 66.5 22.6H64.7C64.3 21.4 64 20.3 63.6 19.3L62.7 16.3C62.4 15.4 62.2 14.4 61.9 13.6C61.7 12.7 61.5 11.8 61.3 11H63L64.2 15.8C64.6 17.4 65.1 19 65.6 20.7L66.9 15.9C67.3 14.3 67.7 12.7 68.1 11H69.7C69.7 11.8 69.5 12.7 69.2 13.6ZM77.1 22.3C76.4 22.6 75.6 22.8 74.8 22.8C73.3 22.8 72.2 22.4 71.5 21.5C70.8 20.6 70.4 19.2 70.4 17.3C70.4 15.1 70.8 13.4 71.6 12.3C72.4 11.2 73.5 10.6 74.9 10.6C76.3 10.6 77.3 11.1 78.1 12.1C78.8 13.1 79.1 14.7 79 16.8H72.3V17C72.3 18.6 72.5 19.7 73 20.4C73.5 21.1 74.1 21.4 75 21.4C75.5 21.4 76.1 21.3 76.6 21.1C77.1 20.9 77.7 20.6 78.4 20.1L79.1 21.3C78.4 21.7 77.8 22 77.1 22.3ZM76.5 12.9C76.1 12.3 75.5 12 74.8 12C74.1 12 73.5 12.3 73.1 12.9C72.7 13.5 72.5 14.4 72.4 15.5H77C77.1 14.4 76.9 13.5 76.5 12.9ZM80.5 22.6V6.5H82.2V22.6H80.5ZM88.1 22.8C86.6 22.8 85.5 22.3 84.8 21.4C84.1 20.4 83.7 18.9 83.7 16.9C83.7 14.8 84.1 13.3 84.8 12.2C85.5 11.2 86.7 10.7 88.3 10.7C89.8 10.7 90.9 11.2 91.6 12.2C92.3 13.2 92.6 14.7 92.6 16.7C92.6 20.8 91.1 22.8 88.1 22.8ZM90.2 13.2C89.8 12.4 89.1 12 88.1 12C87.2 12 86.6 12.4 86.2 13.1C85.8 13.9 85.6 15 85.6 16.6C85.6 18.3 85.8 19.5 86.2 20.2C86.6 20.9 87.3 21.3 88.2 21.3C89.8 21.3 90.7 19.8 90.7 16.7C90.7 15.1 90.5 13.9 90.2 13.2ZM102.4 21.1C101.6 22.2 100.4 22.8 98.7 22.8C98.3 22.8 97.9 22.8 97.6 22.7C97.3 22.7 97 22.6 96.5 22.5V26.4H94.8V10.9H96.3L96.4 12.4C96.8 11.7 97.2 11.3 97.7 11C98.2 10.7 98.8 10.6 99.6 10.6C100.9 10.6 101.8 11.1 102.5 12.1C103.2 13.1 103.5 14.6 103.5 16.5C103.5 18.5 103.2 20 102.4 21.1ZM101.1 13.3C100.7 12.5 100.1 12.1 99.3 12.1C98.9 12.1 98.5 12.2 98.2 12.4C97.9 12.6 97.6 12.9 97.4 13.2C97.2 13.5 97 13.9 96.8 14.4C96.6 14.9 96.6 15.3 96.6 15.9V21C96.9 21.1 97.2 21.2 97.6 21.3C98 21.4 98.4 21.4 98.9 21.4C99.9 21.4 100.6 21 101.1 20.3C101.6 19.6 101.8 18.4 101.8 16.9C101.7 15.2 101.5 14 101.1 13.3ZM117.6 22.6V14.7C117.6 13.9 117.5 13.2 117.4 12.7C117.3 12.2 116.9 12 116.3 12C115.9 12 115.5 12.1 115.1 12.4C114.7 12.7 114.2 13.1 113.5 13.6V22.5H111.8V14.7C111.8 13.9 111.7 13.2 111.6 12.7C111.5 12.2 111.1 12 110.5 12C110.1 12 109.7 12.1 109.3 12.4C108.9 12.7 108.4 13.1 107.7 13.6V22.5H106V10.9H107.5L107.6 12.3L109.3 11.1C109.8 10.8 110.4 10.6 111 10.6C111.7 10.6 112.2 10.8 112.5 11.1C112.8 11.4 113.1 11.8 113.3 12.4C113.9 11.9 114.5 11.5 115.1 11.2C115.7 10.9 116.2 10.7 116.8 10.7C117.8 10.7 118.4 11 118.8 11.6C119.2 12.2 119.3 13.1 119.3 14.4V22.6H117.6ZM127.5 22.3C126.8 22.6 126 22.8 125.2 22.8C123.7 22.8 122.6 22.4 121.9 21.5C121.2 20.6 120.8 19.2 120.8 17.3C120.8 15.1 121.2 13.4 122 12.3C122.8 11.2 123.9 10.6 125.3 10.6C126.7 10.6 127.7 11.1 128.5 12.1C129.2 13.1 129.5 14.7 129.4 16.8H122.7V17C122.7 18.6 122.9 19.7 123.4 20.4C123.9 21.1 124.5 21.4 125.4 21.4C125.9 21.4 126.5 21.3 127 21.1C127.5 20.9 128.1 20.6 128.8 20.1L129.5 21.3C128.8 21.7 128.1 22 127.5 22.3ZM126.8 12.9C126.4 12.3 125.8 12 125.1 12C124.4 12 123.8 12.3 123.4 12.9C123 13.5 122.8 14.4 122.7 15.5H127.4C127.4 14.4 127.2 13.5 126.8 12.9ZM136.9 22.5V14.7C136.9 13.9 136.8 13.2 136.6 12.7C136.4 12.2 136 12 135.4 12C135 12 134.6 12.1 134.2 12.4C133.8 12.7 133.2 13.1 132.6 13.6V22.5H130.9V10.9H132.4L132.5 12.3C133.1 11.9 133.7 11.5 134.2 11.1C134.8 10.8 135.3 10.6 135.9 10.6C136.9 10.6 137.6 10.9 137.9 11.5C138.3 12.1 138.5 13 138.5 14.3V22.5H136.9ZM144.7 22.8C144.1 22.8 143.5 22.7 143.1 22.6C142.7 22.5 142.4 22.2 142.2 21.9C142 21.6 141.8 21.2 141.8 20.6C141.7 20.1 141.7 19.4 141.7 18.7V12.3H140V10.9H141.7V7.7L143.4 7.5V10.9H145.8L145.7 12.3H143.5V19.8C143.5 20.2 143.6 20.5 143.7 20.7C143.8 20.9 144 21.1 144.2 21.2C144.4 21.3 144.7 21.4 145.1 21.4H145.6L146.1 21.3L146.3 22.7C145.7 22.7 145.2 22.8 144.7 22.8Z" fill="#443F3F"/>
<path d="M157.4 20.4001C157.2 20.9001 156.9 21.3001 156.5 21.6001C156.1 21.9001 155.6 22.2001 155.1 22.4001C154.5 22.6001 153.9 22.7001 153.3 22.7001C151.8 22.7001 150.8 22.4001 150.1 21.8001C149.4 21.2001 149.2 20.3001 149.3 19.3001L150.8 19.1001C150.8 19.4001 150.8 19.6001 150.9 19.9001C151 20.2001 151.1 20.4001 151.3 20.6001C151.5 20.8001 151.8 21.0001 152.1 21.1001C152.5 21.2001 152.9 21.3001 153.5 21.3001C154.3 21.3001 154.9 21.1001 155.4 20.7001C155.9 20.3001 156.1 19.7001 156.1 19.0001C156.1 18.4001 155.9 17.9001 155.6 17.6001C155.3 17.2001 154.9 17.0001 154.4 16.7001C153.9 16.5001 153.4 16.2001 152.8 16.0001C152.2 15.8001 151.7 15.5001 151.2 15.2001C150.7 14.9001 150.3 14.5001 150 14.0001C149.7 13.5001 149.5 12.9001 149.5 12.1001C149.5 11.6001 149.6 11.1001 149.8 10.6001C150 10.2001 150.3 9.8001 150.6 9.5001C151 9.2001 151.4 9.0001 151.9 8.8001C152.4 8.6001 153 8.6001 153.7 8.6001C154.4 8.6001 155 8.7001 155.4 8.9001C155.9 9.1001 156.3 9.3001 156.6 9.6001C156.9 9.9001 157.1 10.2001 157.2 10.6001C157.3 11.0001 157.4 11.4001 157.4 11.8001L155.9 12.0001C155.9 11.7001 155.9 11.5001 155.8 11.2001C155.7 11.0001 155.6 10.7001 155.4 10.6001C155.2 10.4001 155 10.3001 154.7 10.2001C154.4 10.1001 154 10.0001 153.6 10.0001C153.2 10.0001 152.8 10.1001 152.5 10.2001C152.2 10.3001 151.9 10.5001 151.7 10.6001C151.5 10.8001 151.3 11.0001 151.2 11.2001C151.1 11.4001 151 11.7001 151 12.0001C151 12.6001 151.2 13.1001 151.5 13.4001C151.8 13.8001 152.3 14.0001 152.8 14.3001L154.4 15.0001C155 15.2001 155.5 15.5001 156 15.8001C156.5 16.1001 156.9 16.5001 157.3 17.0001C157.6 17.5001 157.8 18.1001 157.8 18.9001C157.7 19.4001 157.6 19.9001 157.4 20.4001ZM159.7 22.6001V8.9001H166.6L166.5 10.3001H161.4V14.8001H165.4V16.2001H161.4V21.2001H166.7V22.6001H159.7ZM168.8 22.6001V8.9001H175.7L175.6 10.3001H170.5V14.8001H174.5V16.2001H170.5V21.2001H175.8V22.6001H168.8ZM186.8 18.4001C186.5 19.3001 186.1 20.0001 185.6 20.6001C185.1 21.2001 184.4 21.7001 183.7 22.0001C182.9 22.3001 182.1 22.5001 181.1 22.5001H178.2V8.9001H181.1C183.1 8.9001 184.7 9.5001 185.7 10.7001C186.7 11.9001 187.2 13.5001 187.2 15.6001C187.2 16.6001 187.1 17.5001 186.8 18.4001ZM184.4 11.7001C183.7 10.7001 182.6 10.2001 181 10.2001H179.9V21.1001H181.3C182.7 21.1001 183.7 20.6001 184.4 19.7001C185.1 18.8001 185.5 17.4001 185.5 15.7001C185.4 14.0001 185.1 12.7001 184.4 11.7001Z" fill="#D04200"/>
<path d="M30 0H2C0.9 0 0 0.9 0 2V30C0 31.1 0.9 32 2 32H30C31.1 32 32 31.1 32 30V2C32 0.9 31.1 0 30 0Z" fill="#D04200"/>
<path d="M17.9428 27.5582C17.9428 27.003 18.1279 26.4478 18.313 25.8926C17.7578 26.3553 17.5727 26.9105 17.3876 27.6507C17.4802 26.8179 17.8503 21.2659 17.8503 20.9883C19.2383 16.9168 18.5906 4.88732 20.4413 3.31424C18.4055 3.68438 17.6652 5.81267 17.0175 7.47828C16.3698 5.53506 16.925 4.23959 14.7042 3.49931C16.4623 4.97986 16.0922 6.27534 16.4623 8.31109C15.4444 6.92308 15.722 5.25746 14.5191 3.86945C14.1489 3.49931 13.0385 2.6665 13.0385 2.6665C13.0385 2.75904 13.9639 4.51719 14.1489 5.53506C14.334 6.46041 14.7042 8.40362 14.7042 9.1439C14.8892 13.0303 15.8146 16.8242 16.5548 20.7107C16.6474 21.3584 17.0175 23.3016 17.0175 23.3016L17.11 24.1344C17.0175 23.5792 16.8324 23.1166 16.8324 22.9315C16.6474 22.3763 16.1847 20.8957 15.9996 20.248C14.334 16.8242 11.3729 10.2543 7.30142 9.23643C9.61477 11.2722 12.0207 13.9557 12.5759 16.5466C11.3729 14.7885 6.56114 11.1796 4.52539 9.79164C8.22676 13.5855 11.1879 17.5645 14.4266 21.8211C15.3519 23.024 16.5548 25.5224 16.6474 26.0777C16.7399 26.4478 16.7399 28.0209 16.8324 28.9462C15.0743 24.5971 14.0564 22.3763 10.7252 20.4331C10.17 20.1555 8.41183 19.5077 8.41183 19.5077C9.24463 20.4331 10.17 20.4331 10.9103 21.636C9.4297 20.6181 7.85662 20.4331 6.09847 20.4331C11.6505 23.3016 14.6116 24.1344 16.4623 29.594C16.6474 30.5193 16.3698 31.0745 16.3698 31.9998H17.5727V30.7044C17.6652 30.3342 17.6652 29.1313 17.8503 28.8537C18.4055 27.3731 19.3309 26.7254 20.7189 25.8001C19.4234 26.2627 18.8682 26.0777 17.9428 27.5582ZM23.4024 14.6034C22.9397 15.0661 21.5517 16.7317 21.5517 16.7317C21.6442 14.3258 22.1994 11.7349 23.7725 9.88417C21.6442 11.2722 20.4413 14.7885 19.7935 16.9168C19.6085 17.7496 17.0175 22.7464 18.2205 25.4299C18.4055 24.412 18.9607 23.4867 19.6085 22.6539C19.8861 22.2838 21.089 20.3405 22.292 17.657C23.3098 14.9736 25.068 13.3079 27.4739 12.0125C25.7157 12.2901 24.6978 13.3079 23.4024 14.6034Z" fill="white"/>
</svg>
