<svg width="146" height="102" viewBox="0 0 146 102" fill="none" xmlns="http://www.w3.org/2000/svg">
<g clip-path="url(#clip0_3011_528)">
<path d="M7.4004 80.001V84.901C7.4004 84.801 6.6004 84.801 6.3004 84.701C6.0004 84.701 5.7004 84.601 5.2004 84.601C4.4004 84.601 3.60039 84.701 3.00039 85.001C2.40039 85.301 1.90039 85.701 1.50039 86.201C1.10039 86.701 0.800392 87.401 0.600392 88.201C0.500392 89.001 0.400391 89.901 0.400391 90.801C0.400391 92.701 0.700391 94.201 1.40039 95.201C2.10039 96.201 3.1004 96.701 4.3004 96.701C5.1004 96.701 5.7004 96.601 6.2004 96.301C6.7004 96.001 7.1004 95.801 7.5004 95.101L7.6004 96.901H9.4004V80.001H7.4004ZM7.4004 91.501C7.4004 92.001 7.3004 92.501 7.2004 93.001C7.1004 93.501 6.9004 93.901 6.6004 94.201C6.4004 94.501 6.1004 94.801 5.7004 95.001C5.4004 95.201 5.0004 95.301 4.6004 95.301C3.8004 95.301 3.2004 94.901 2.8004 94.101C2.4004 93.301 2.20039 92.201 2.20039 90.601C2.20039 89.101 2.40039 88.001 2.90039 87.201C3.3004 86.401 4.1004 86.101 5.1004 86.101C5.6004 86.101 6.0004 86.101 6.4004 86.201C6.8004 86.301 7.4004 86.401 7.4004 86.501V91.501ZM17.2004 96.301C16.5004 96.601 15.7004 96.801 14.9004 96.801C13.4004 96.801 12.3004 96.401 11.6004 95.501C10.9004 94.601 10.5004 93.201 10.5004 91.301C10.5004 89.101 10.9004 87.401 11.7004 86.301C12.5004 85.201 13.6004 84.601 15.0004 84.601C16.4004 84.601 17.4004 85.101 18.2004 86.101C18.9004 87.101 19.2004 88.701 19.1004 90.801H12.4004V91.001C12.4004 92.601 12.6004 93.701 13.1004 94.401C13.6004 95.101 14.2004 95.401 15.1004 95.401C15.6004 95.401 16.2004 95.301 16.7004 95.101C17.2004 94.901 17.8004 94.601 18.5004 94.101L19.2004 95.301C18.5004 95.701 17.9004 96.001 17.2004 96.301ZM16.6004 86.901C16.2004 86.301 15.6004 86.001 14.9004 86.001C14.2004 86.001 13.6004 86.301 13.2004 86.901C12.8004 87.501 12.6004 88.401 12.5004 89.501H17.2004C17.2004 88.401 17.0004 87.501 16.6004 86.901ZM27.6004 87.601C27.4004 88.501 27.1004 89.401 26.8004 90.401C26.5004 91.301 26.2004 92.301 25.9004 93.401C25.6004 94.401 25.3004 95.501 24.9004 96.601H23.1004C22.7004 95.401 22.4004 94.301 22.0004 93.301L21.1004 90.301C20.8004 89.401 20.6004 88.401 20.3004 87.601C20.1004 86.701 19.9004 85.801 19.7004 85.001H21.4004L22.6004 89.801C23.0004 91.401 23.5004 93.001 24.0004 94.701L25.3004 89.901C25.7004 88.301 26.1004 86.701 26.5004 85.001H28.1004C28.1004 85.801 27.9004 86.701 27.6004 87.601ZM35.5004 96.301C34.8004 96.601 34.0004 96.801 33.2004 96.801C31.7004 96.801 30.6004 96.401 29.9004 95.501C29.2004 94.601 28.8004 93.201 28.8004 91.301C28.8004 89.101 29.2004 87.401 30.0004 86.301C30.8004 85.201 31.9004 84.601 33.3004 84.601C34.7004 84.601 35.7004 85.101 36.5004 86.101C37.2004 87.101 37.5004 88.701 37.4004 90.801H30.7004V91.001C30.7004 92.601 30.9004 93.701 31.4004 94.401C31.9004 95.101 32.5004 95.401 33.4004 95.401C33.9004 95.401 34.5004 95.301 35.0004 95.101C35.5004 94.901 36.1004 94.601 36.8004 94.101L37.5004 95.301C36.8004 95.701 36.2004 96.001 35.5004 96.301ZM34.9004 86.901C34.5004 86.301 33.9004 86.001 33.2004 86.001C32.5004 86.001 31.9004 86.301 31.5004 86.901C31.1004 87.501 30.9004 88.401 30.8004 89.501H35.4004C35.5004 88.401 35.3004 87.501 34.9004 86.901ZM38.9005 96.601V80.501H40.6004V96.601H38.9005ZM46.5005 96.801C45.0005 96.801 43.9005 96.301 43.2005 95.401C42.5005 94.401 42.1005 92.901 42.1005 90.901C42.1005 88.801 42.5005 87.301 43.2005 86.201C43.9005 85.201 45.1005 84.701 46.7005 84.701C48.2005 84.701 49.3005 85.201 50.0005 86.201C50.7005 87.201 51.0005 88.701 51.0005 90.701C51.0005 94.801 49.5005 96.801 46.5005 96.801ZM48.6005 87.201C48.2005 86.401 47.5005 86.001 46.5005 86.001C45.6005 86.001 45.0005 86.401 44.6005 87.101C44.2005 87.901 44.0005 89.001 44.0005 90.601C44.0005 92.301 44.2005 93.501 44.6005 94.201C45.0005 94.901 45.7005 95.301 46.6005 95.301C48.2005 95.301 49.1005 93.801 49.1005 90.701C49.1005 89.101 48.9005 87.901 48.6005 87.201ZM60.8005 95.101C60.0005 96.201 58.8005 96.801 57.1005 96.801C56.7005 96.801 56.3005 96.801 56.0005 96.701C55.7005 96.701 55.4005 96.601 54.9005 96.501V100.401H53.2005V84.901H54.7005L54.8005 86.401C55.2005 85.701 55.6005 85.301 56.1005 85.001C56.6005 84.701 57.2005 84.601 58.0005 84.601C59.3005 84.601 60.2005 85.101 60.9005 86.101C61.6005 87.101 61.9005 88.601 61.9005 90.501C61.9005 92.501 61.6005 94.001 60.8005 95.101ZM59.5005 87.301C59.1005 86.501 58.5005 86.101 57.7005 86.101C57.3005 86.101 56.9005 86.201 56.6005 86.401C56.3005 86.601 56.0005 86.901 55.8005 87.201C55.6005 87.501 55.4005 87.901 55.2005 88.401C55.0005 88.901 55.0005 89.301 55.0005 89.901V95.001C55.3005 95.101 55.6005 95.201 56.0005 95.301C56.4005 95.401 56.8005 95.401 57.3005 95.401C58.3005 95.401 59.0005 95.001 59.5005 94.301C60.0005 93.601 60.2005 92.401 60.2005 90.901C60.1005 89.201 59.9005 88.001 59.5005 87.301ZM76.0005 96.601V88.701C76.0005 87.901 75.9005 87.201 75.8005 86.701C75.7005 86.201 75.3005 86.001 74.7005 86.001C74.3005 86.001 73.9005 86.101 73.5005 86.401C73.1005 86.701 72.6005 87.101 71.9005 87.601V96.501H70.2005V88.701C70.2005 87.901 70.1005 87.201 70.0005 86.701C69.9005 86.201 69.5005 86.001 68.9005 86.001C68.5005 86.001 68.1005 86.101 67.7005 86.401C67.3005 86.701 66.8005 87.101 66.1005 87.601V96.501H64.4005V84.901H65.9005L66.0005 86.301L67.7005 85.101C68.2005 84.801 68.8005 84.601 69.4005 84.601C70.1005 84.601 70.6005 84.801 70.9005 85.101C71.2005 85.401 71.5005 85.801 71.7005 86.401C72.3005 85.901 72.9005 85.501 73.5005 85.201C74.1005 84.901 74.6005 84.701 75.2005 84.701C76.2005 84.701 76.8005 85.001 77.2005 85.601C77.6005 86.201 77.7005 87.101 77.7005 88.401V96.601H76.0005ZM85.9005 96.301C85.2005 96.601 84.4005 96.801 83.6005 96.801C82.1005 96.801 81.0005 96.401 80.3005 95.501C79.6005 94.601 79.2005 93.201 79.2005 91.301C79.2005 89.101 79.6005 87.401 80.4005 86.301C81.2005 85.201 82.3005 84.601 83.7005 84.601C85.1005 84.601 86.1005 85.101 86.9005 86.101C87.6005 87.101 87.9005 88.701 87.8005 90.801H81.1005V91.001C81.1005 92.601 81.3005 93.701 81.8005 94.401C82.3005 95.101 82.9005 95.401 83.8005 95.401C84.3005 95.401 84.9005 95.301 85.4005 95.101C85.9005 94.901 86.5005 94.601 87.2005 94.101L87.9005 95.301C87.2005 95.701 86.5005 96.001 85.9005 96.301ZM85.2005 86.901C84.8005 86.301 84.2005 86.001 83.5005 86.001C82.8005 86.001 82.2005 86.301 81.8005 86.901C81.4005 87.501 81.2005 88.401 81.1005 89.501H85.8005C85.8005 88.401 85.6005 87.501 85.2005 86.901ZM95.3005 96.501V88.701C95.3005 87.901 95.2005 87.201 95.0005 86.701C94.8005 86.201 94.4005 86.001 93.8005 86.001C93.4005 86.001 93.0005 86.101 92.6005 86.401C92.2005 86.701 91.6005 87.101 91.0005 87.601V96.501H89.3005V84.901H90.8005L90.9005 86.301C91.5005 85.901 92.1005 85.501 92.6005 85.101C93.2005 84.801 93.7005 84.601 94.3005 84.601C95.3005 84.601 96.0005 84.901 96.3005 85.501C96.7005 86.101 96.9005 87.001 96.9005 88.301V96.501H95.3005ZM103.101 96.801C102.501 96.801 101.901 96.701 101.501 96.601C101.101 96.501 100.801 96.201 100.601 95.901C100.401 95.601 100.201 95.201 100.201 94.601C100.101 94.101 100.101 93.401 100.101 92.701V86.301H98.4005V84.901H100.101V81.701L101.801 81.501V84.901H104.201L104.101 86.301H101.901V93.801C101.901 94.201 102.001 94.501 102.101 94.701C102.201 94.901 102.401 95.101 102.601 95.201C102.801 95.301 103.101 95.401 103.501 95.401H104.001L104.501 95.301L104.701 96.701C104.101 96.701 103.601 96.801 103.101 96.801Z" fill="#443F3F"/>
<path d="M115.801 94.4011C115.601 94.9011 115.301 95.3011 114.901 95.6011C114.501 95.9011 114.001 96.2011 113.501 96.4011C112.901 96.6011 112.301 96.7011 111.701 96.7011C110.201 96.7011 109.201 96.4011 108.501 95.8011C107.801 95.2011 107.601 94.3011 107.701 93.3011L109.201 93.1011C109.201 93.4011 109.201 93.6011 109.301 93.9011C109.401 94.2011 109.501 94.4011 109.701 94.6011C109.901 94.8011 110.201 95.0011 110.501 95.1011C110.901 95.2011 111.301 95.3011 111.901 95.3011C112.701 95.3011 113.301 95.1011 113.801 94.7011C114.301 94.3011 114.501 93.7011 114.501 93.0011C114.501 92.4011 114.301 91.9011 114.001 91.6011C113.701 91.2011 113.301 91.0011 112.801 90.7011C112.301 90.5011 111.801 90.2011 111.201 90.0011C110.601 89.8011 110.101 89.5011 109.601 89.2011C109.101 88.9011 108.701 88.5011 108.401 88.0011C108.101 87.5011 107.901 86.9011 107.901 86.1011C107.901 85.6011 108.001 85.1011 108.201 84.6011C108.401 84.2011 108.701 83.8011 109.001 83.5011C109.401 83.2011 109.801 83.0011 110.301 82.8011C110.801 82.6011 111.401 82.6011 112.101 82.6011C112.801 82.6011 113.401 82.7011 113.801 82.9011C114.301 83.1011 114.701 83.3011 115.001 83.6011C115.301 83.9011 115.501 84.2011 115.601 84.6011C115.701 85.0011 115.801 85.4011 115.801 85.8011L114.301 86.0011C114.301 85.7011 114.301 85.5011 114.201 85.2011C114.101 85.0011 114.001 84.7011 113.801 84.6011C113.601 84.4011 113.401 84.3011 113.101 84.2011C112.801 84.1011 112.401 84.0011 112.001 84.0011C111.601 84.0011 111.201 84.1011 110.901 84.2011C110.601 84.3011 110.301 84.5011 110.101 84.6011C109.901 84.8011 109.701 85.0011 109.601 85.2011C109.501 85.4011 109.401 85.7011 109.401 86.0011C109.401 86.6011 109.601 87.1011 109.901 87.4011C110.201 87.8011 110.701 88.0011 111.201 88.3011L112.801 89.0011C113.401 89.2011 113.901 89.5011 114.401 89.8011C114.901 90.1011 115.301 90.5011 115.701 91.0011C116.001 91.5011 116.201 92.1011 116.201 92.9011C116.101 93.4011 116.001 93.9011 115.801 94.4011ZM118.101 96.6011V82.9011H125.001L124.901 84.3011H119.801V88.8011H123.801V90.2011H119.801V95.2011H125.101V96.6011H118.101ZM127.201 96.6011V82.9011H134.101L134.001 84.3011H128.901V88.8011H132.901V90.2011H128.901V95.2011H134.201V96.6011H127.201ZM145.201 92.4011C144.901 93.3011 144.501 94.0011 144.001 94.6011C143.501 95.2011 142.801 95.7011 142.101 96.0011C141.301 96.3011 140.501 96.5011 139.501 96.5011H136.601V82.9011H139.501C141.501 82.9011 143.101 83.5011 144.101 84.7011C145.101 85.9011 145.601 87.5011 145.601 89.6011C145.601 90.6011 145.501 91.5011 145.201 92.4011ZM142.801 85.7011C142.101 84.7011 141.001 84.2011 139.401 84.2011H138.301V95.1011H139.701C141.101 95.1011 142.101 94.6011 142.801 93.7011C143.501 92.8011 143.901 91.4011 143.901 89.7011C143.801 88.0011 143.501 86.7011 142.801 85.7011Z" fill="#D04200"/>
<path d="M102.751 0.000976562H43.251C40.9135 0.000976562 39.001 1.91348 39.001 4.25098V63.751C39.001 66.0885 40.9135 68.001 43.251 68.001H102.751C105.089 68.001 107.001 66.0885 107.001 63.751V4.25098C107.001 1.91348 105.089 0.000976562 102.751 0.000976562Z" fill="#D04200"/>
<path d="M77.1304 58.5624C77.1304 57.3825 77.5237 56.2027 77.9169 55.0229C76.7371 56.0061 76.3438 57.1859 75.9506 58.759C76.1472 56.9893 76.9338 45.1912 76.9338 44.6013C79.8833 35.9493 78.5068 10.3867 82.4396 7.04393C78.1136 7.83047 76.5405 12.3531 75.164 15.8925C73.7876 11.7632 74.9674 9.01028 70.2481 7.4372C73.9842 10.5834 73.1977 13.3363 73.9842 17.6622C71.8212 14.7127 72.4111 11.1733 69.8549 8.22374C69.0683 7.4372 66.7087 5.66748 66.7087 5.66748C66.7087 5.86412 68.675 9.60018 69.0683 11.7632C69.4616 13.7295 70.2481 17.8589 70.2481 19.4319C70.6414 27.6906 72.6078 35.7527 74.1808 44.0113C74.3775 45.3878 75.164 49.5171 75.164 49.5171L75.3607 51.2868C75.164 50.107 74.7708 49.1239 74.7708 48.7306C74.3775 47.5508 73.3943 44.4046 73.001 43.0282C69.4616 35.7527 63.1692 21.7916 54.5172 19.6286C59.4331 23.9546 64.5457 29.657 65.7255 35.1628C63.1692 31.4267 52.9442 23.7579 48.6182 20.8084C56.4836 28.8704 62.776 37.3257 69.6582 46.371C71.6246 48.9272 74.1808 54.2364 74.3775 55.4162C74.5741 56.2027 74.5741 59.5455 74.7708 61.5119C71.0347 52.27 68.8717 47.5508 61.7928 43.4214C60.613 42.8315 56.8769 41.4551 56.8769 41.4551C58.6466 43.4214 60.613 43.4214 62.186 45.9777C59.0399 43.8147 55.6971 43.4214 51.961 43.4214C63.7591 49.5171 70.0515 51.2868 73.9842 62.8883C74.3775 64.8547 73.7876 66.0345 73.7876 68.0008H76.3438V65.2479C76.5405 64.4614 76.5405 61.9051 76.9338 61.3152C78.1136 58.1691 80.0799 56.7926 83.0295 54.8263C80.2766 55.8095 79.0967 55.4162 77.1304 58.5624ZM88.7319 31.0334C87.7487 32.0166 84.7992 35.556 84.7992 35.556C84.9958 30.4435 86.1756 24.9377 89.5185 21.005C84.9958 23.9546 82.4396 31.4267 81.0631 35.9493C80.6698 37.719 75.164 48.3373 77.7203 54.0397C78.1136 51.8768 79.2934 49.9104 80.6698 48.1407C81.2597 47.3541 83.816 43.2248 86.3723 37.5224C88.5353 31.82 92.2714 28.2805 97.3839 25.5276C93.6478 26.1175 91.4848 28.2805 88.7319 31.0334Z" fill="white"/>
</g>
<defs>
<clipPath id="clip0_3011_528">
<rect width="146" height="102" fill="white"/>
</clipPath>
</defs>
</svg>
