<svg width="65" height="65" viewBox="0 0 65 65" fill="none" xmlns="http://www.w3.org/2000/svg">
<path fill-rule="evenodd" clip-rule="evenodd" d="M0.799805 0.375H64.7998V64.375H0.799805V0.375Z" fill="#212629"/>
<path fill-rule="evenodd" clip-rule="evenodd" d="M15.6235 16.1137C15.5143 15.4523 15.2139 14.4363 14.1624 14.4363C12.4282 14.4363 12.4282 16.666 12.4282 17.9002C12.4282 19.8845 12.5648 20.4982 12.8925 21.0165C13.1656 21.4393 13.7459 21.6711 14.2307 21.6711C14.3468 21.6711 15.0841 21.6984 15.7942 21.0983V19.3868H14.258V17.7707H17.7196V22.087C16.8661 22.7144 15.9376 23.3417 14.1214 23.3417C10.8442 23.3417 10.4346 20.355 10.4346 18.2276C10.4346 15.8682 10.7623 14.8113 11.527 13.9248C12.5238 12.7656 13.7459 12.7656 14.2717 12.7656C17.0368 12.7656 17.3577 14.6272 17.5421 15.6977L15.6235 16.1137ZM21.1032 12.7656V21.4717H25.0046V23.1041H19.1766V12.7656H21.1032ZM32.5323 18.2003C32.5323 19.4822 32.5184 23.3417 28.7649 23.3417C25.9758 23.3417 25.0045 21.2551 25.0045 17.9275C25.0045 15.2954 25.7677 12.7656 28.751 12.7656C32.0744 12.7656 32.5323 15.7659 32.5323 18.2003ZM28.779 21.6988C29.4867 21.6988 29.9307 21.2556 30.1319 20.8737C30.3539 20.4441 30.5135 20.0145 30.5135 17.7097C30.5135 16.796 30.5135 14.4367 28.779 14.4367C28.1962 14.4367 27.6064 14.7367 27.2873 15.6504C27.0722 16.2846 27.0306 17.7097 27.0306 18.4121C27.0306 19.3395 27.0445 21.6988 28.779 21.6988ZM36.7952 12.7656C39.0975 12.7656 39.7593 14.0949 39.7593 15.321C39.7593 16.2301 39.4214 17.1737 38.1189 17.6146V17.649C39.6819 17.9383 40.1817 19.0059 40.1817 20.2319C40.1817 21.4717 39.5692 23.1041 37.0135 23.1041H33.7467V12.7656H36.7952ZM35.6969 16.9402H36.2531C36.6333 16.9402 37.8091 16.9402 37.8091 15.6866C37.8091 14.44 36.6615 14.44 36.3587 14.44H35.6969V16.9402ZM35.6969 21.4314H36.3587C37.0769 21.4314 38.1329 21.3281 38.1329 19.9987C38.1329 18.6281 36.8797 18.6143 36.3587 18.6143H35.6969V21.4314ZM45.4337 12.7656L48.3166 23.1041H46.3197L45.8495 21.0515H42.9121L42.4282 23.1041H40.4245L43.3346 12.7656H45.4337ZM45.4541 19.3634L44.3978 14.6867H44.3705L43.3073 19.3634H45.4541ZM51.0932 12.7656V21.4717H54.9945V23.1041H49.1665V12.7656H51.0932Z" fill="white"/>
<path fill-rule="evenodd" clip-rule="evenodd" d="M16.2953 28.306V26.6797H10.7148V37.0181H12.6728V32.5102H15.5722V30.8771H12.6728V28.306H16.2953ZM20.9019 37.2558C24.6524 37.2558 24.666 33.4008 24.666 32.1114C24.666 29.6795 24.204 26.6797 20.8815 26.6797C17.9055 26.6797 17.1445 29.2118 17.1445 31.8375C17.1445 35.1713 18.1093 37.2558 20.9019 37.2558ZM20.9154 35.613C21.622 35.613 22.0704 35.1721 22.2743 34.7846C22.4849 34.357 22.648 33.9294 22.648 31.6245C22.648 30.7091 22.648 28.3507 20.9154 28.3507C20.3379 28.3507 19.7399 28.6514 19.4274 29.5667C19.21 30.1947 19.1624 31.6245 19.1624 32.326C19.1624 33.2546 19.1828 35.613 20.9154 35.613ZM31.1634 26.8214C30.4903 26.6932 29.6866 26.6797 29.6111 26.6797H26.1217V37.0181H28.0931V32.7127H28.4022C29.1783 32.7127 29.4668 32.7127 30.1812 34.0421L31.7748 37.0181H34.0071L32.6402 34.2581C32.5372 34.0691 31.9946 33.1716 31.7885 32.9556C31.4302 32.577 31.1983 32.4992 30.9422 32.4132L30.9299 32.409V32.382C31.5412 32.2066 33.1897 31.6869 33.1897 29.622C33.1897 27.8876 32.1251 27.0239 31.1634 26.8214ZM28.0931 31.1407H29.0891C30.2293 31.1407 31.1772 30.9113 31.1772 29.7101C31.1772 28.3672 29.879 28.3672 29.2608 28.3672H28.0931V31.1407ZM40.0246 28.306V26.6797H34.6137V37.0181H40.1941V35.385H36.5665V32.3955H39.6924V30.7624H36.5665V28.306H40.0246ZM45.7531 29.8398L45.7471 29.8031C45.6673 29.312 45.5001 28.2831 44.459 28.2831C43.9144 28.2831 43.3487 28.5971 43.3487 29.2786C43.3487 30.1271 44.2751 30.5413 45.2722 30.9823C47.0896 31.7974 48.0796 32.6258 48.0796 34.1825C48.0796 35.7726 46.9835 37.2558 44.5792 37.2558C41.298 37.2558 41.1212 34.8439 41.0434 33.7816L43.1224 33.6013C43.1931 34.5166 43.3911 35.5855 44.6711 35.5855C45.6894 35.5855 46.0713 34.884 46.0713 34.3295C46.0713 33.3674 45.1378 32.9532 43.8296 32.3987C42.6557 31.8976 41.3333 31.1961 41.3333 29.4523C41.3333 28.0226 42.3658 26.6797 44.6428 26.6797C47.4644 26.6797 47.719 28.684 47.7826 29.7262L45.7531 29.8398ZM54.9944 28.306V26.6797H48.3222V28.306H50.6902V37.0181H52.6264V28.306H54.9944Z" fill="#E1E2E6"/>
<path fill-rule="evenodd" clip-rule="evenodd" d="M44.0579 44.3353L44.057 44.3287C43.9615 43.6832 43.7756 42.4254 42.6851 42.4254C41.1423 42.4254 41.1423 44.5543 41.1423 46.2862C41.1423 48.4152 41.2646 48.9902 41.5229 49.5379C41.7404 49.9965 42.2025 50.3388 42.6987 50.3388C43.888 50.3388 44.0987 48.9286 44.2075 47.9771L46.2599 48.6479C45.8929 51.434 44.3502 52.1665 42.7462 52.1665C39.3685 52.1665 38.9811 48.6959 38.9811 46.43C38.9811 44.2258 39.1374 40.5977 42.7123 40.5977C45.4308 40.5977 45.9201 42.6171 46.1716 43.8493L44.0579 44.3353ZM14.174 48.486L12.8985 40.9595H10.7148L12.8985 52.2873H15.2485L17.2242 43.9992H17.2589L19.2276 52.2873H21.5707L23.8168 40.9595H21.6193L20.3299 48.4583H20.2952L18.5344 40.9595H16.018L14.2087 48.486H14.174ZM32.3088 52.2873L29.1181 40.9595H26.7926L23.5742 52.2873H25.789L26.322 50.037H29.5749L30.094 52.2873H32.3088ZM29.1319 48.1886L27.9691 43.0648H27.9414L26.7648 48.1886H29.1319ZM38.9809 42.7459V40.9595H31.7021V42.7459H34.2825V52.2873H36.4006V42.7459H38.9809ZM49.809 45.4394V40.9595H47.7157V52.2873H49.809V47.2743H52.9012V52.2873H54.9945V40.9595H52.9012V45.4394H49.809Z" fill="white"/>
</svg>
