<svg width="64" height="65" viewBox="0 0 64 65" fill="none" xmlns="http://www.w3.org/2000/svg">
<path fill-rule="evenodd" clip-rule="evenodd" d="M0 0.667969H64V64.668H0V0.667969Z" fill="#97BD3D"/>
<path fill-rule="evenodd" clip-rule="evenodd" d="M14.8237 16.4067C14.7145 15.7452 14.4141 14.7292 13.3626 14.7292C11.6284 14.7292 11.6284 16.959 11.6284 18.1932C11.6284 20.1775 11.765 20.7912 12.0927 21.3094C12.3658 21.7322 12.9461 21.9641 13.4309 21.9641C13.547 21.9641 14.2843 21.9913 14.9944 21.3913V19.6797H13.4582V18.0637H16.9198V22.38C16.0663 23.0074 15.1378 23.6347 13.3216 23.6347C10.0444 23.6347 9.63477 20.648 9.63477 18.5205C9.63477 16.1612 9.96249 15.1043 10.7272 14.2178C11.724 13.0586 12.9461 13.0586 13.4719 13.0586C16.237 13.0586 16.5579 14.9202 16.7422 15.9907L14.8237 16.4067ZM20.3034 13.0586V21.7646H24.2048V23.397H18.3768V13.0586H20.3034ZM31.7326 18.4932C31.7326 19.7752 31.7187 23.6347 27.9652 23.6347C25.1761 23.6347 24.2048 21.5481 24.2048 18.2205C24.2048 15.5884 24.968 13.0586 27.9513 13.0586C31.2747 13.0586 31.7326 16.0589 31.7326 18.4932ZM27.9791 21.9918C28.6868 21.9918 29.1308 21.5485 29.332 21.1667C29.554 20.7371 29.7136 20.3075 29.7136 18.0027C29.7136 17.089 29.7136 14.7296 27.9791 14.7296C27.3963 14.7296 26.8066 15.0297 26.4874 15.9434C26.2723 16.5776 26.2307 18.0027 26.2307 18.7051C26.2307 19.6324 26.2446 21.9918 27.9791 21.9918ZM35.9953 13.0586C38.2976 13.0586 38.9594 14.3879 38.9594 15.6139C38.9594 16.5231 38.6215 17.4667 37.319 17.9075V17.942C38.882 18.2313 39.3818 19.2988 39.3818 20.5249C39.3818 21.7646 38.7693 23.397 36.2136 23.397H32.9468V13.0586H35.9953ZM34.897 17.2332H35.4532C35.8334 17.2332 37.0092 17.2332 37.0092 15.9796C37.0092 14.7329 35.8616 14.7329 35.5588 14.7329H34.897V17.2332ZM34.897 21.7243H35.5588C36.277 21.7243 37.333 21.621 37.333 20.2917C37.333 18.9211 36.0798 18.9073 35.5588 18.9073H34.897V21.7243ZM44.6339 13.0586L47.5168 23.397H45.5199L45.0496 21.3445H42.1123L41.6284 23.397H39.6247L42.5348 13.0586H44.6339ZM44.6544 19.6564L43.598 14.9796H43.5707L42.5075 19.6564H44.6544ZM50.2934 13.0586V21.7646H54.1947V23.397H48.3667V13.0586H50.2934Z" fill="white"/>
<path fill-rule="evenodd" clip-rule="evenodd" d="M15.4955 28.599V26.9727H9.91504V37.3111H11.873V32.8032H14.7723V31.1701H11.873V28.599H15.4955ZM20.102 37.5488C23.8526 37.5488 23.8662 33.6938 23.8662 32.4043C23.8662 29.9724 23.4041 26.9727 20.0816 26.9727C17.1057 26.9727 16.3447 29.5048 16.3447 32.1304C16.3447 35.4643 17.3095 37.5488 20.102 37.5488ZM20.1156 35.906C20.8222 35.906 21.2707 35.4651 21.4745 35.0776C21.6851 34.65 21.8482 34.2224 21.8482 31.9174C21.8482 31.0021 21.8482 28.6437 20.1156 28.6437C19.5381 28.6437 18.9402 28.9444 18.6276 29.8597C18.4102 30.4877 18.3626 31.9174 18.3626 32.6189C18.3626 33.5476 18.383 35.906 20.1156 35.906ZM30.3637 27.1144C29.6905 26.9862 28.8869 26.9727 28.8113 26.9727H25.3219V37.3111H27.2933V33.0057H27.6024C28.3786 33.0057 28.6671 33.0057 29.3814 34.3351L30.975 37.3111H33.2074L31.8405 34.551C31.7374 34.3621 31.1948 33.4645 30.9887 33.2486C30.6304 32.87 30.3985 32.7921 30.1424 32.7061L30.1301 32.702V32.675C30.7414 32.4995 32.39 31.9799 32.39 29.9149C32.39 28.1806 31.3253 27.3168 30.3637 27.1144ZM27.2933 31.4337H28.2893C29.4295 31.4337 30.3774 31.2043 30.3774 30.0031C30.3774 28.6602 29.0792 28.6602 28.461 28.6602H27.2933V31.4337ZM39.2249 28.599V26.9727H33.8139V37.3111H39.3944V35.678H35.7667V32.6885H38.8926V31.0554H35.7667V28.599H39.2249ZM44.9533 30.1328L44.9473 30.0961C44.8675 29.605 44.7003 28.5761 43.6592 28.5761C43.1146 28.5761 42.5489 28.8901 42.5489 29.5716C42.5489 30.4201 43.4753 30.8343 44.4724 31.2752C46.2898 32.0903 47.2798 32.9188 47.2798 34.4755C47.2798 36.0656 46.1837 37.5488 43.7794 37.5488C40.4982 37.5488 40.3214 35.1369 40.2436 34.0746L42.3226 33.8942C42.3933 34.8095 42.5913 35.8785 43.8713 35.8785C44.8896 35.8785 45.2715 35.177 45.2715 34.6225C45.2715 33.6604 44.338 33.2462 43.0298 32.6916C41.8559 32.1906 40.5335 31.489 40.5335 29.7453C40.5335 28.3155 41.566 26.9727 43.843 26.9727C46.6646 26.9727 46.9192 28.977 46.9828 30.0192L44.9533 30.1328ZM54.1947 28.599V26.9727H47.5224V28.599H49.8904V37.3111H51.8267V28.599H54.1947Z" fill="#333333"/>
<path fill-rule="evenodd" clip-rule="evenodd" d="M43.2581 44.6283L43.2571 44.6217C43.1617 43.9762 42.9757 42.7184 41.8852 42.7184C40.3425 42.7184 40.3425 44.8473 40.3425 46.5792C40.3425 48.7082 40.4648 49.2832 40.7231 49.8308C40.9405 50.2895 41.4027 50.6317 41.8988 50.6317C43.0882 50.6317 43.2989 49.2216 43.4076 48.27L45.4601 48.9409C45.0931 51.727 43.5503 52.4595 41.9464 52.4595C38.5686 52.4595 38.1812 48.9888 38.1812 46.723C38.1812 44.5187 38.3375 40.8906 41.9124 40.8906C44.6309 40.8906 45.1203 42.91 45.3717 44.1422L43.2581 44.6283ZM13.3742 48.779L12.0987 41.2525H9.91504L12.0987 52.5803H14.4487L16.4244 44.2922H16.4591L18.4278 52.5803H20.7709L23.017 41.2525H20.8194L19.5301 48.7513H19.4954L17.7346 41.2525H15.2182L13.4089 48.779H13.3742ZM31.509 52.5803L28.3183 41.2525H25.9927L22.7743 52.5803H24.9891L25.5221 50.33H28.7751L29.2942 52.5803H31.509ZM28.3321 48.4816L27.1693 43.3577H27.1416L25.965 48.4816H28.3321ZM38.1812 43.0389V41.2525H30.9024V43.0389H33.4828V52.5803H35.6009V43.0389H38.1812ZM49.0092 45.7324V41.2525H46.9159V52.5803H49.0092V47.5673H52.1014V52.5803H54.1947V41.2525H52.1014V45.7324H49.0092Z" fill="white"/>
</svg>
