<svg width="420" height="280" viewBox="0 0 420 280" fill="none" xmlns="http://www.w3.org/2000/svg">
<path d="M215.5 102.621L215.5 62.332L336 62.332M249 177.621L249 221.332L362.5 221.332M202.5 177.621L202.5 234.832M133.5 175.121L133.5 234.832L66 234.832M141.5 102.621L141.5 51.832L117.5 51.832M173.5 105L173.5 21.9997M370 122.5L395.5 122.5L395.5 39.4998M50.5 113.5L19 113.5" stroke="#B2B7BD" stroke-width="2"/>
<g filter="url(#filter0_dd_47_2961)">
<path d="M41 109.621C41 102.994 46.3726 97.6211 53 97.6211H366C372.627 97.6211 378 102.994 378 109.621V169.621C378 176.249 372.627 181.621 366 181.621H53C46.3726 181.621 41 176.249 41 169.621V109.621Z" fill="#E2ED7D" shape-rendering="crispEdges"/>
<path d="M80.81 147.381H80.69C80.51 148.401 79.94 149.261 78.98 149.961C78.04 150.641 76.78 150.981 75.2 150.981C73.96 150.981 72.81 150.751 71.75 150.291C70.71 149.831 69.8 149.151 69.02 148.251C68.26 147.331 67.66 146.201 67.22 144.861C66.78 143.521 66.56 141.971 66.56 140.211C66.56 138.451 66.78 136.901 67.22 135.561C67.68 134.201 68.32 133.061 69.14 132.141C69.96 131.221 70.94 130.521 72.08 130.041C73.22 129.561 74.49 129.321 75.89 129.321C77.77 129.321 79.37 129.731 80.69 130.551C82.01 131.371 83.05 132.551 83.81 134.091L80.6 135.981C80.22 135.081 79.65 134.331 78.89 133.731C78.15 133.131 77.15 132.831 75.89 132.831C74.33 132.831 73.08 133.311 72.14 134.271C71.22 135.211 70.76 136.611 70.76 138.471V141.831C70.76 143.671 71.23 145.071 72.17 146.031C73.11 146.991 74.37 147.471 75.95 147.471C76.57 147.471 77.15 147.401 77.69 147.261C78.23 147.101 78.7 146.871 79.1 146.571C79.5 146.271 79.82 145.901 80.06 145.461C80.3 145.021 80.42 144.501 80.42 143.901V142.551H76.31V139.221H84.23V150.621H80.81V147.381ZM92.4174 150.621C91.0974 150.621 90.1274 150.291 89.5074 149.631C88.8874 148.971 88.5774 148.041 88.5774 146.841V128.421H92.4174V147.561H94.4874V150.621H92.4174ZM103.606 150.981C102.486 150.981 101.476 150.791 100.576 150.411C99.6958 150.031 98.9358 149.481 98.2958 148.761C97.6758 148.041 97.1958 147.181 96.8558 146.181C96.5158 145.161 96.3458 144.021 96.3458 142.761C96.3458 141.501 96.5158 140.371 96.8558 139.371C97.1958 138.371 97.6758 137.521 98.2958 136.821C98.9358 136.101 99.6958 135.551 100.576 135.171C101.476 134.791 102.486 134.601 103.606 134.601C104.726 134.601 105.736 134.791 106.636 135.171C107.536 135.551 108.296 136.101 108.916 136.821C109.556 137.521 110.046 138.371 110.386 139.371C110.726 140.371 110.896 141.501 110.896 142.761C110.896 144.021 110.726 145.161 110.386 146.181C110.046 147.181 109.556 148.041 108.916 148.761C108.296 149.481 107.536 150.031 106.636 150.411C105.736 150.791 104.726 150.981 103.606 150.981ZM103.606 147.891C104.626 147.891 105.426 147.581 106.006 146.961C106.586 146.341 106.876 145.431 106.876 144.231V141.321C106.876 140.141 106.586 139.241 106.006 138.621C105.426 138.001 104.626 137.691 103.606 137.691C102.606 137.691 101.816 138.001 101.236 138.621C100.656 139.241 100.366 140.141 100.366 141.321V144.231C100.366 145.431 100.656 146.341 101.236 146.961C101.816 147.581 102.606 147.891 103.606 147.891ZM114.3 128.421H118.14V137.541H118.26C118.54 136.641 119.07 135.931 119.85 135.411C120.63 134.871 121.54 134.601 122.58 134.601C124.58 134.601 126.1 135.311 127.14 136.731C128.2 138.131 128.73 140.141 128.73 142.761C128.73 145.401 128.2 147.431 127.14 148.851C126.1 150.271 124.58 150.981 122.58 150.981C121.54 150.981 120.63 150.711 119.85 150.171C119.09 149.631 118.56 148.911 118.26 148.011H118.14V150.621H114.3V128.421ZM121.35 147.801C122.35 147.801 123.16 147.471 123.78 146.811C124.4 146.151 124.71 145.261 124.71 144.141V141.441C124.71 140.321 124.4 139.431 123.78 138.771C123.16 138.091 122.35 137.751 121.35 137.751C120.43 137.751 119.66 137.981 119.04 138.441C118.44 138.901 118.14 139.511 118.14 140.271V145.251C118.14 146.071 118.44 146.701 119.04 147.141C119.66 147.581 120.43 147.801 121.35 147.801ZM143.808 150.621C142.968 150.621 142.298 150.381 141.798 149.901C141.318 149.401 141.018 148.741 140.898 147.921H140.718C140.458 148.941 139.928 149.711 139.128 150.231C138.328 150.731 137.338 150.981 136.158 150.981C134.558 150.981 133.328 150.561 132.468 149.721C131.608 148.881 131.178 147.761 131.178 146.361C131.178 144.741 131.758 143.541 132.918 142.761C134.078 141.961 135.728 141.561 137.868 141.561H140.538V140.421C140.538 139.541 140.308 138.861 139.848 138.381C139.388 137.901 138.648 137.661 137.628 137.661C136.728 137.661 135.998 137.861 135.438 138.261C134.898 138.641 134.438 139.101 134.058 139.641L131.778 137.601C132.358 136.701 133.128 135.981 134.088 135.441C135.048 134.881 136.318 134.601 137.898 134.601C140.018 134.601 141.628 135.081 142.728 136.041C143.828 137.001 144.378 138.381 144.378 140.181V147.561H145.938V150.621H143.808ZM137.448 148.191C138.308 148.191 139.038 148.001 139.638 147.621C140.238 147.241 140.538 146.681 140.538 145.941V143.871H138.078C136.078 143.871 135.078 144.511 135.078 145.791V146.301C135.078 146.941 135.278 147.421 135.678 147.741C136.098 148.041 136.688 148.191 137.448 148.191ZM152.886 150.621C151.566 150.621 150.596 150.291 149.976 149.631C149.356 148.971 149.046 148.041 149.046 146.841V128.421H152.886V147.561H154.956V150.621H152.886ZM171.194 139.881L169.034 135.531H168.944V150.621H165.194V129.681H169.544L175.844 140.421L178.004 144.771H178.094V129.681H181.844V150.621H177.494L171.194 139.881ZM198.037 150.621C197.197 150.621 196.527 150.381 196.027 149.901C195.547 149.401 195.247 148.741 195.127 147.921H194.947C194.687 148.941 194.157 149.711 193.357 150.231C192.557 150.731 191.567 150.981 190.387 150.981C188.787 150.981 187.557 150.561 186.697 149.721C185.837 148.881 185.407 147.761 185.407 146.361C185.407 144.741 185.987 143.541 187.147 142.761C188.307 141.961 189.957 141.561 192.097 141.561H194.767V140.421C194.767 139.541 194.537 138.861 194.077 138.381C193.617 137.901 192.877 137.661 191.857 137.661C190.957 137.661 190.227 137.861 189.667 138.261C189.127 138.641 188.667 139.101 188.287 139.641L186.007 137.601C186.587 136.701 187.357 135.981 188.317 135.441C189.277 134.881 190.547 134.601 192.127 134.601C194.247 134.601 195.857 135.081 196.957 136.041C198.057 137.001 198.607 138.381 198.607 140.181V147.561H200.167V150.621H198.037ZM191.677 148.191C192.537 148.191 193.267 148.001 193.867 147.621C194.467 147.241 194.767 146.681 194.767 145.941V143.871H192.307C190.307 143.871 189.307 144.511 189.307 145.791V146.301C189.307 146.941 189.507 147.421 189.907 147.741C190.327 148.041 190.917 148.191 191.677 148.191ZM208.048 150.621C206.728 150.621 205.718 150.281 205.018 149.601C204.338 148.901 203.998 147.911 203.998 146.631V138.021H201.688V134.961H202.888C203.468 134.961 203.858 134.831 204.058 134.571C204.278 134.291 204.388 133.881 204.388 133.341V130.671H207.838V134.961H211.048V138.021H207.838V147.561H210.808V150.621H208.048ZM223.738 148.011H223.588C223.448 148.411 223.258 148.791 223.018 149.151C222.798 149.491 222.508 149.801 222.148 150.081C221.808 150.361 221.388 150.581 220.888 150.741C220.408 150.901 219.848 150.981 219.208 150.981C217.588 150.981 216.348 150.451 215.488 149.391C214.628 148.331 214.198 146.821 214.198 144.861V134.961H218.038V144.471C218.038 145.551 218.248 146.381 218.668 146.961C219.088 147.521 219.758 147.801 220.678 147.801C221.058 147.801 221.428 147.751 221.788 147.651C222.168 147.551 222.498 147.401 222.778 147.201C223.058 146.981 223.288 146.721 223.468 146.421C223.648 146.101 223.738 145.731 223.738 145.311V134.961H227.578V150.621H223.738V148.011ZM232.015 150.621V134.961H235.855V138.201H236.005C236.105 137.781 236.255 137.381 236.455 137.001C236.675 136.601 236.955 136.251 237.295 135.951C237.635 135.651 238.035 135.411 238.495 135.231C238.975 135.051 239.525 134.961 240.145 134.961H240.985V138.591H239.785C238.485 138.591 237.505 138.781 236.845 139.161C236.185 139.541 235.855 140.161 235.855 141.021V150.621H232.015ZM249.976 150.981C248.816 150.981 247.776 150.791 246.856 150.411C245.956 150.011 245.186 149.461 244.546 148.761C243.926 148.041 243.446 147.181 243.106 146.181C242.766 145.161 242.596 144.021 242.596 142.761C242.596 141.521 242.756 140.401 243.076 139.401C243.416 138.401 243.896 137.551 244.516 136.851C245.136 136.131 245.896 135.581 246.796 135.201C247.696 134.801 248.716 134.601 249.856 134.601C251.076 134.601 252.136 134.811 253.036 135.231C253.936 135.651 254.676 136.221 255.256 136.941C255.836 137.661 256.266 138.501 256.546 139.461C256.846 140.401 256.996 141.411 256.996 142.491V143.751H246.586V144.141C246.586 145.281 246.906 146.201 247.546 146.901C248.186 147.581 249.136 147.921 250.396 147.921C251.356 147.921 252.136 147.721 252.736 147.321C253.356 146.921 253.906 146.411 254.386 145.791L256.456 148.101C255.816 149.001 254.936 149.711 253.816 150.231C252.716 150.731 251.436 150.981 249.976 150.981ZM249.916 137.481C248.896 137.481 248.086 137.821 247.486 138.501C246.886 139.181 246.586 140.061 246.586 141.141V141.381H253.006V141.111C253.006 140.031 252.736 139.161 252.196 138.501C251.676 137.821 250.916 137.481 249.916 137.481ZM270.884 150.621L266.024 129.681H269.984L272.054 139.731L273.344 146.151H273.434L274.934 139.731L277.334 129.681H281.714L284.114 139.731L285.584 146.151H285.674L286.994 139.731L289.124 129.681H292.904L287.894 150.621H283.424L280.754 139.551L279.464 134.031H279.404L278.054 139.551L275.384 150.621H270.884ZM306.728 150.621C305.888 150.621 305.218 150.381 304.718 149.901C304.238 149.401 303.938 148.741 303.818 147.921H303.638C303.378 148.941 302.848 149.711 302.048 150.231C301.248 150.731 300.258 150.981 299.078 150.981C297.478 150.981 296.248 150.561 295.388 149.721C294.528 148.881 294.098 147.761 294.098 146.361C294.098 144.741 294.678 143.541 295.838 142.761C296.998 141.961 298.648 141.561 300.788 141.561H303.458V140.421C303.458 139.541 303.228 138.861 302.768 138.381C302.308 137.901 301.568 137.661 300.548 137.661C299.648 137.661 298.918 137.861 298.358 138.261C297.818 138.641 297.358 139.101 296.978 139.641L294.698 137.601C295.278 136.701 296.048 135.981 297.008 135.441C297.968 134.881 299.238 134.601 300.818 134.601C302.938 134.601 304.548 135.081 305.648 136.041C306.748 137.001 307.298 138.381 307.298 140.181V147.561H308.858V150.621H306.728ZM300.368 148.191C301.228 148.191 301.958 148.001 302.558 147.621C303.158 147.241 303.458 146.681 303.458 145.941V143.871H300.998C298.998 143.871 297.998 144.511 297.998 145.791V146.301C297.998 146.941 298.198 147.421 298.598 147.741C299.018 148.041 299.608 148.191 300.368 148.191ZM316.739 150.621C315.419 150.621 314.409 150.281 313.709 149.601C313.029 148.901 312.689 147.911 312.689 146.631V138.021H310.379V134.961H311.579C312.159 134.961 312.549 134.831 312.749 134.571C312.969 134.291 313.079 133.881 313.079 133.341V130.671H316.529V134.961H319.739V138.021H316.529V147.561H319.499V150.621H316.739ZM329.132 150.981C327.972 150.981 326.942 150.791 326.042 150.411C325.142 150.031 324.382 149.481 323.762 148.761C323.162 148.041 322.702 147.181 322.382 146.181C322.062 145.161 321.902 144.021 321.902 142.761C321.902 141.501 322.062 140.371 322.382 139.371C322.702 138.371 323.162 137.521 323.762 136.821C324.382 136.101 325.142 135.551 326.042 135.171C326.942 134.791 327.972 134.601 329.132 134.601C330.712 134.601 332.012 134.951 333.032 135.651C334.072 136.351 334.822 137.321 335.282 138.561L332.132 139.971C331.952 139.311 331.612 138.771 331.112 138.351C330.632 137.911 329.972 137.691 329.132 137.691C328.052 137.691 327.242 138.031 326.702 138.711C326.182 139.391 325.922 140.281 325.922 141.381V144.231C325.922 145.331 326.182 146.221 326.702 146.901C327.242 147.561 328.052 147.891 329.132 147.891C330.052 147.891 330.762 147.661 331.262 147.201C331.762 146.721 332.152 146.131 332.432 145.431L335.372 146.841C334.852 148.221 334.062 149.261 333.002 149.961C331.942 150.641 330.652 150.981 329.132 150.981ZM338.333 128.421H342.173V137.571H342.323C342.643 136.731 343.143 136.031 343.823 135.471C344.523 134.891 345.483 134.601 346.703 134.601C348.323 134.601 349.563 135.131 350.423 136.191C351.283 137.251 351.713 138.761 351.713 140.721V150.621H347.873V141.111C347.873 139.991 347.673 139.151 347.273 138.591C346.873 138.031 346.213 137.751 345.293 137.751C344.893 137.751 344.503 137.811 344.123 137.931C343.763 138.031 343.433 138.191 343.133 138.411C342.853 138.611 342.623 138.871 342.443 139.191C342.263 139.491 342.173 139.851 342.173 140.271V150.621H338.333V128.421Z" fill="#323625"/>
</g>
<rect x="108" y="46" width="12" height="12" rx="6" fill="#666E7B"/>
<rect x="167.5" y="16" width="12" height="12" rx="6" fill="#666E7B"/>
<rect x="13" y="107.5" width="12" height="12" rx="6" fill="#666E7B"/>
<rect x="59" y="229.5" width="12" height="12" rx="6" fill="#666E7B"/>
<rect x="196.5" y="229" width="12" height="12" rx="6" fill="#666E7B"/>
<rect x="356" y="215.5" width="12" height="12" rx="6" fill="#666E7B"/>
<rect x="335" y="56" width="12" height="12" rx="6" fill="#666E7B"/>
<rect x="389.5" y="33" width="12" height="12" rx="6" fill="#666E7B"/>
<defs>
<filter id="filter0_dd_47_2961" x="38" y="95.6211" width="343" height="90" filterUnits="userSpaceOnUse" color-interpolation-filters="sRGB">
<feFlood flood-opacity="0" result="BackgroundImageFix"/>
<feColorMatrix in="SourceAlpha" type="matrix" values="0 0 0 0 0 0 0 0 0 0 0 0 0 0 0 0 0 0 127 0" result="hardAlpha"/>
<feMorphology radius="1" operator="erode" in="SourceAlpha" result="effect1_dropShadow_47_2961"/>
<feOffset dy="1"/>
<feGaussianBlur stdDeviation="1"/>
<feComposite in2="hardAlpha" operator="out"/>
<feColorMatrix type="matrix" values="0 0 0 0 0 0 0 0 0 0 0 0 0 0 0 0 0 0 0.1 0"/>
<feBlend mode="normal" in2="BackgroundImageFix" result="effect1_dropShadow_47_2961"/>
<feColorMatrix in="SourceAlpha" type="matrix" values="0 0 0 0 0 0 0 0 0 0 0 0 0 0 0 0 0 0 127 0" result="hardAlpha"/>
<feOffset dy="1"/>
<feGaussianBlur stdDeviation="1.5"/>
<feComposite in2="hardAlpha" operator="out"/>
<feColorMatrix type="matrix" values="0 0 0 0 0 0 0 0 0 0 0 0 0 0 0 0 0 0 0.1 0"/>
<feBlend mode="normal" in2="effect1_dropShadow_47_2961" result="effect2_dropShadow_47_2961"/>
<feBlend mode="normal" in="SourceGraphic" in2="effect2_dropShadow_47_2961" result="shape"/>
</filter>
</defs>
</svg>
