<svg width="420" height="280" viewBox="0 0 420 280" fill="none" xmlns="http://www.w3.org/2000/svg">
<path d="M215.5 102.621L215.5 62.332L336 62.332M249 177.621L249 221.332L362.5 221.332M202.5 177.621L202.5 234.832M133.5 175.121L133.5 234.832L66 234.832M141.5 102.621L141.5 51.832L117.5 51.832M173.5 105L173.5 21.9997M370 122.5L395.5 122.5L395.5 39.4998M50.5 113.5L19 113.5" stroke="#B2B7BD" stroke-width="2"/>
<g filter="url(#filter0_dd_47_2961)">
<path d="M41 109.621C41 102.994 46.3726 97.6211 53 97.6211H366C372.627 97.6211 378 102.994 378 109.621V169.621C378 176.249 372.627 181.621 366 181.621H53C46.3726 181.621 41 176.249 41 169.621V109.621Z" fill="#E2ED7D" shape-rendering="crispEdges"/>
<path d="M132.43 150.621V147.381H132.31Q132.04 148.911 130.615 149.946Q129.19 150.981 126.82 150.981Q124.36 150.981 122.41 149.751Q120.46 148.521 119.32 146.121Q118.18 143.721 118.18 140.211Q118.18 136.701 119.35 134.271Q120.52 131.841 122.62 130.581Q124.72 129.321 127.51 129.321Q130.3 129.321 132.31 130.566Q134.32 131.811 135.43 134.091L132.22 135.981Q131.65 134.601 130.51 133.716Q129.37 132.831 127.51 132.831Q125.98 132.831 124.825 133.476Q123.67 134.121 123.025 135.366Q122.38 136.611 122.38 138.471V141.831Q122.38 143.661 123.025 144.921Q123.67 146.181 124.84 146.826Q126.01 147.471 127.57 147.471Q128.8 147.471 129.82 147.066Q130.84 146.661 131.44 145.866Q132.04 145.071 132.04 143.901V142.551H127.93V139.221H135.85V150.621ZM152.74 150.621 146.44 139.881 144.28 135.531H144.19V140.001V150.621H140.44V129.681H144.79L151.09 140.421L153.25 144.771H153.34V140.301V129.681H157.09V150.621ZM169.69 150.621H165.19L160.33 129.681H164.29L166.36 139.731L167.65 146.151H167.74L169.24 139.731L171.64 129.681H176.02L178.42 139.731L179.89 146.151H179.98L181.3 139.731L183.43 129.681H187.21L182.2 150.621H177.73L175.06 139.551L173.77 134.031H173.71L172.36 139.551ZM210.25 150.621V141.771H201.52V150.621H197.56V129.681H201.52V138.291H210.25V129.681H214.21V150.621ZM225.1 150.981Q222.88 150.981 221.245 149.976Q219.61 148.971 218.725 147.126Q217.84 145.281 217.84 142.761Q217.84 140.241 218.725 138.426Q219.61 136.611 221.245 135.606Q222.88 134.601 225.1 134.601Q227.35 134.601 228.985 135.606Q230.62 136.611 231.505 138.426Q232.39 140.241 232.39 142.761Q232.39 145.281 231.505 147.126Q230.62 148.971 228.985 149.976Q227.35 150.981 225.1 150.981ZM225.1 147.891Q226.63 147.891 227.5 146.946Q228.37 146.001 228.37 144.231V141.321Q228.37 139.551 227.5 138.621Q226.63 137.691 225.1 137.691Q223.63 137.691 222.745 138.621Q221.86 139.551 221.86 141.321V144.231Q221.86 146.001 222.745 146.946Q223.63 147.891 225.1 147.891ZM239.62 150.621H235.78V134.961H239.62V138.201H239.77Q239.98 137.361 240.475 136.626Q240.97 135.891 241.825 135.426Q242.68 134.961 243.91 134.961H244.75V138.591H243.55Q242.26 138.591 241.375 138.846Q240.49 139.101 240.055 139.626Q239.62 140.151 239.62 141.021ZM249.49 132.681Q248.32 132.681 247.78 132.126Q247.24 131.571 247.24 130.761V130.161Q247.24 129.321 247.78 128.781Q248.32 128.241 249.49 128.241Q250.66 128.241 251.2 128.781Q251.74 129.321 251.74 130.161V130.761Q251.74 131.571 251.2 132.126Q250.66 132.681 249.49 132.681ZM247.57 150.621V134.961H251.41V150.621ZM267.55 150.621H254.71V147.561L262.84 137.991H254.98V134.961H267.34V137.931L259.15 147.561H267.55ZM276.76 150.981Q274.54 150.981 272.905 149.976Q271.27 148.971 270.385 147.126Q269.5 145.281 269.5 142.761Q269.5 140.241 270.385 138.426Q271.27 136.611 272.905 135.606Q274.54 134.601 276.76 134.601Q279.01 134.601 280.645 135.606Q282.28 136.611 283.165 138.426Q284.05 140.241 284.05 142.761Q284.05 145.281 283.165 147.126Q282.28 148.971 280.645 149.976Q279.01 150.981 276.76 150.981ZM276.76 147.891Q278.29 147.891 279.16 146.946Q280.03 146.001 280.03 144.231V141.321Q280.03 139.551 279.16 138.621Q278.29 137.691 276.76 137.691Q275.29 137.691 274.405 138.621Q273.52 139.551 273.52 141.321V144.231Q273.52 146.001 274.405 146.946Q275.29 147.891 276.76 147.891ZM291.28 150.621H287.44V134.961H291.28V137.571H291.43Q291.91 136.311 292.945 135.456Q293.98 134.601 295.81 134.601Q298.21 134.601 299.515 136.206Q300.82 137.811 300.82 140.721V150.621H296.98V141.111Q296.98 139.461 296.38 138.606Q295.78 137.751 294.4 137.751Q293.62 137.751 292.9 138.036Q292.18 138.321 291.73 138.876Q291.28 139.431 291.28 140.271Z" fill="#323625"/>
</g>
<rect x="108" y="46" width="12" height="12" rx="6" fill="#666E7B"/>
<rect x="167.5" y="16" width="12" height="12" rx="6" fill="#666E7B"/>
<rect x="13" y="107.5" width="12" height="12" rx="6" fill="#666E7B"/>
<rect x="59" y="229.5" width="12" height="12" rx="6" fill="#666E7B"/>
<rect x="196.5" y="229" width="12" height="12" rx="6" fill="#666E7B"/>
<rect x="356" y="215.5" width="12" height="12" rx="6" fill="#666E7B"/>
<rect x="335" y="56" width="12" height="12" rx="6" fill="#666E7B"/>
<rect x="389.5" y="33" width="12" height="12" rx="6" fill="#666E7B"/>
<defs>
<filter id="filter0_dd_47_2961" x="38" y="95.6211" width="343" height="90" filterUnits="userSpaceOnUse" color-interpolation-filters="sRGB">
<feFlood flood-opacity="0" result="BackgroundImageFix"/>
<feColorMatrix in="SourceAlpha" type="matrix" values="0 0 0 0 0 0 0 0 0 0 0 0 0 0 0 0 0 0 127 0" result="hardAlpha"/>
<feMorphology radius="1" operator="erode" in="SourceAlpha" result="effect1_dropShadow_47_2961"/>
<feOffset dy="1"/>
<feGaussianBlur stdDeviation="1"/>
<feComposite in2="hardAlpha" operator="out"/>
<feColorMatrix type="matrix" values="0 0 0 0 0 0 0 0 0 0 0 0 0 0 0 0 0 0 0.1 0"/>
<feBlend mode="normal" in2="BackgroundImageFix" result="effect1_dropShadow_47_2961"/>
<feColorMatrix in="SourceAlpha" type="matrix" values="0 0 0 0 0 0 0 0 0 0 0 0 0 0 0 0 0 0 127 0" result="hardAlpha"/>
<feOffset dy="1"/>
<feGaussianBlur stdDeviation="1.5"/>
<feComposite in2="hardAlpha" operator="out"/>
<feColorMatrix type="matrix" values="0 0 0 0 0 0 0 0 0 0 0 0 0 0 0 0 0 0 0.1 0"/>
<feBlend mode="normal" in2="effect1_dropShadow_47_2961" result="effect2_dropShadow_47_2961"/>
<feBlend mode="normal" in="SourceGraphic" in2="effect2_dropShadow_47_2961" result="shape"/>
</filter>
</defs>
</svg>
