<svg width="144" height="65" viewBox="0 0 144 65" fill="none" xmlns="http://www.w3.org/2000/svg">
<path d="M67.8067 0.375V15.1526H76.4646L76.0912 17.8082H64.5863V0.375H67.8067Z" fill="#212629"/>
<path d="M88.6854 14.6842C88.6854 15.8792 88.7865 17.4882 88.8565 17.8162H85.9161C85.815 17.5429 85.745 16.8946 85.7216 16.4259C85.2783 17.1992 84.3603 18.113 82.0345 18.113C78.993 18.113 77.7095 16.0979 77.7095 14.1374C77.7095 11.2553 80.012 9.9119 83.7458 9.9119H85.675V9.04493C85.675 8.05298 85.356 7.00636 83.4502 7.00636C81.77 7.00636 81.4199 7.77961 81.2488 8.71688H78.3084C78.4796 6.63146 79.7942 4.71786 83.5747 4.74129C86.8885 4.76472 88.6931 6.08471 88.6931 9.06055V14.6764L88.6854 14.6842ZM85.6983 11.8489H84.0414C81.7933 11.8489 80.7976 12.5206 80.7976 13.9578C80.7976 15.0044 81.49 15.848 82.8513 15.848C85.3716 15.848 85.6983 14.1062 85.6983 12.2238V11.8489Z" fill="#212629"/>
<path d="M91.8743 8.24844C91.8743 7.15496 91.8743 6.01461 91.851 5.0461H94.8225C94.9003 5.38976 94.947 6.43638 94.947 6.83472C95.3903 5.94432 96.4327 4.74929 98.7352 4.74929C101.232 4.74929 102.967 6.38952 102.967 9.66997V17.8164H99.9021V10.0214C99.9021 8.42808 99.3342 7.28774 97.654 7.28774C95.8493 7.28774 94.9547 8.45152 94.9547 10.8103V17.8164H91.8899V8.25625L91.8743 8.24844Z" fill="#212629"/>
<path d="M117.382 0.375V14.2544C117.382 15.4494 117.382 16.6132 117.405 17.8082H114.433C114.387 17.4333 114.309 16.6679 114.309 16.3164C113.687 17.4333 112.528 18.105 110.552 18.105C107.339 18.105 105.286 15.4963 105.286 11.552C105.286 7.60761 107.464 4.74893 111.05 4.74893C113.002 4.74893 113.99 5.49094 114.317 6.11579V0.375H117.382ZM111.415 15.5978C114.013 15.5978 114.41 13.5124 114.41 11.3489C114.41 8.94322 114.013 7.24832 111.516 7.24832C109.541 7.24832 108.451 8.81044 108.451 11.4426C108.451 14.0748 109.587 15.59 111.423 15.59L111.415 15.5978Z" fill="#212629"/>
<path d="M142.554 7.05306L138.073 13.3093L142.67 17.8082H138.664L136.362 15.551C135.024 17.1131 133.592 18.0582 131.095 18.0582C127.486 18.0582 125.775 15.6525 125.775 13.364C125.775 11.4739 126.592 10.1382 129.291 8.49802C128.225 7.35767 127.463 6.33448 127.463 4.81923C127.463 2.33546 129.244 0.375 132.138 0.375C135.032 0.375 136.665 2.31203 136.665 4.49899C136.665 6.18608 135.747 7.3811 133.421 8.74796L136.237 11.5051L139.38 7.06087H142.546L142.554 7.05306ZM134.565 13.7858L130.808 10.107C129.524 10.9974 128.956 11.7941 128.956 12.9891C128.956 14.2544 129.843 15.426 131.43 15.426C132.713 15.426 133.507 15.0042 134.573 13.7858H134.565ZM130.31 4.60053C130.31 5.52218 130.854 6.21732 131.943 7.25613C133.554 6.20951 133.919 5.44407 133.919 4.54586C133.919 3.53048 133.351 2.56197 132.138 2.56197C131.025 2.56197 130.31 3.35865 130.31 4.60053Z" fill="#212629"/>
<path d="M79.6612 35.7883C78.9455 38.8891 76.6196 41.1542 72.4891 41.1542C67.1684 41.1542 64.6014 37.3036 64.6014 32.4142C64.6014 27.5247 67.2228 23.4945 72.6369 23.4945C76.993 23.4945 79.1944 26.0485 79.6612 28.9306H76.4485C76.0051 27.4154 74.9628 26.072 72.5124 26.072C69.222 26.072 67.9151 29.0556 67.9151 32.3048C67.9151 35.3587 69.1053 38.5845 72.6135 38.5845C75.1105 38.5845 76.0051 36.9912 76.4485 35.7805H79.6612V35.7883Z" fill="#212629"/>
<path d="M92.2006 37.7953C92.2006 38.9903 92.3017 40.5993 92.3717 40.9273H89.4313C89.3302 40.6539 89.2602 40.0057 89.2369 39.537C88.7935 40.3103 87.8756 41.2241 85.5497 41.2241C82.5082 41.2241 81.2247 39.209 81.2247 37.2485C81.2247 34.3664 83.5272 33.023 87.261 33.023H89.1902V32.156C89.1902 31.1641 88.8712 30.1174 86.9654 30.1174C85.2852 30.1174 84.9352 30.8907 84.764 31.828H81.8236C81.9948 29.7425 83.3094 27.8289 87.0899 27.8524C90.4037 27.8758 92.2084 29.1958 92.2084 32.1716V37.7874L92.2006 37.7953ZM89.2057 34.9678H87.5488C85.3008 34.9678 84.3051 35.6395 84.3051 37.0767C84.3051 38.1233 84.9974 38.9668 86.3587 38.9668C88.879 38.9668 89.2057 37.2251 89.2057 35.3427V34.9678Z" fill="#212629"/>
<path d="M95.3661 31.6177C95.3661 30.1805 95.3661 29.1105 95.3428 28.1654H98.3609C98.4076 28.4622 98.4387 29.6572 98.4387 30.5242C99.0299 28.9855 100.446 27.892 102.593 27.8686V30.8522C100.018 30.8288 98.4387 31.7426 98.4387 35.1481V40.9357H95.3739V31.6255L95.3661 31.6177Z" fill="#212629"/>
<path d="M104.468 23.5018H107.533V29.6799C108.077 28.7583 109.166 27.8679 111.321 27.8679C114.682 27.8679 116.517 30.6485 116.517 34.3038C116.517 37.9592 114.612 41.2318 110.979 41.2318C109.05 41.2318 108.132 40.5835 107.517 39.5682C107.517 40.068 107.439 40.6148 107.393 40.935H104.452C104.476 39.5447 104.476 38.131 104.476 36.7095V23.5018H104.468ZM110.427 30.3751C108.202 30.3751 107.385 31.8669 107.385 34.6006C107.385 36.936 108.101 38.748 110.38 38.748C112.309 38.748 113.375 37.0063 113.375 34.3741C113.375 32.0387 112.433 30.3751 110.434 30.3751H110.427Z" fill="#212629"/>
<path d="M130.534 34.5232C130.534 38.327 128.309 41.2325 124.327 41.2325C120.344 41.2325 118.22 38.4051 118.22 34.5779C118.22 30.7507 120.523 27.8686 124.475 27.8686C128.162 27.8686 130.534 30.5242 130.534 34.5232ZM121.332 34.5466C121.332 37.132 122.491 38.7722 124.397 38.7722C126.303 38.7722 127.392 37.1554 127.392 34.5779C127.392 31.8208 126.326 30.3289 124.35 30.3289C122.374 30.3289 121.332 31.7661 121.332 34.5545V34.5466Z" fill="#212629"/>
<path d="M132.907 31.3677C132.907 30.2743 132.907 29.1339 132.884 28.1654H135.855C135.933 28.5091 135.98 29.5557 135.98 29.954C136.423 29.0636 137.466 27.8686 139.768 27.8686C142.265 27.8686 144 29.5088 144 32.7893V40.9357H140.935V33.1407C140.935 31.5474 140.367 30.407 138.687 30.407C136.882 30.407 135.988 31.5708 135.988 33.9296V40.9357H132.923V31.3755L132.907 31.3677Z" fill="#212629"/>
<path d="M67.8068 46.6136V61.3912H76.4646L76.0913 64.0468H64.5864V46.6136H67.8068Z" fill="#212629"/>
<path d="M88.6854 60.9146C88.6854 62.1096 88.7865 63.7186 88.8565 64.0466H85.9161C85.815 63.7732 85.745 63.125 85.7216 62.6563C85.2783 63.4296 84.3603 64.3434 82.0345 64.3434C78.993 64.3434 77.7094 62.3283 77.7094 60.3678C77.7094 57.4857 80.012 56.1423 83.7458 56.1423H85.675V55.2753C85.675 54.2834 85.356 53.2367 83.4502 53.2367C81.77 53.2367 81.4199 54.01 81.2488 54.9473H78.3084C78.4796 52.8618 79.7942 50.9482 83.5747 50.9717C86.8885 50.9951 88.6931 52.3151 88.6931 55.2909V60.9067L88.6854 60.9146ZM85.6983 58.0871H84.0414C81.7933 58.0871 80.7976 58.7588 80.7976 60.196C80.7976 61.2426 81.49 62.0862 82.8513 62.0862C85.3716 62.0862 85.6983 60.3444 85.6983 58.462V58.0871Z" fill="#212629"/>
<path d="M91.8515 46.6136H94.9163V52.7996C95.4609 51.8779 96.5499 50.9875 98.7046 50.9875C102.065 50.9875 103.901 53.7681 103.901 57.4235C103.901 61.0788 101.995 64.3515 98.3624 64.3515C96.4332 64.3515 95.5153 63.7032 94.9008 62.6878C94.9008 63.1877 94.823 63.7344 94.7763 64.0546H91.8359C91.8593 62.6644 91.8593 61.2506 91.8593 59.8291V46.6136H91.8515ZM97.8178 53.4947C95.5931 53.4947 94.7763 54.9866 94.7763 57.7203C94.7763 60.0556 95.492 61.8677 97.7712 61.8677C99.7003 61.8677 100.766 60.1259 100.766 57.4937C100.766 55.1584 99.8248 53.4947 97.8256 53.4947H97.8178Z" fill="#212629"/>
<path fill-rule="evenodd" clip-rule="evenodd" d="M15.385 49.0506C15.1205 48.6523 14.965 48.1758 14.965 47.6603V2.86658C14.965 1.49191 16.0773 0.375 17.4464 0.375H19.57C19.57 0.375 19.5856 0.375 19.5934 0.375H47.9005C49.2696 0.375 50.3819 1.49191 50.3819 2.86658V4.99887C50.3819 6.37354 49.2696 7.49045 47.9005 7.49045H24.5329C23.1638 7.49045 22.0515 8.60736 22.0515 9.98203V40.5527C22.0515 41.9274 23.1638 43.0443 24.5329 43.0443H47.9005C49.2696 43.0443 50.3819 44.1612 50.3819 45.5358V47.6681C50.3819 49.0428 49.2696 50.1597 47.9005 50.1597H17.4386C16.5829 50.1597 15.8284 49.7223 15.385 49.0662V49.0506Z" fill="#212629"/>
<path fill-rule="evenodd" clip-rule="evenodd" d="M0.799805 61.8834C0.799805 62.9144 1.42211 63.797 2.31668 64.1797C2.61227 64.3047 2.93898 64.375 3.28125 64.375H47.8928C49.2619 64.375 50.3743 63.2581 50.3743 61.8834V59.7511C50.3743 58.3765 49.2619 57.2595 47.8928 57.2595H10.36C8.99091 57.2595 7.87854 56.1426 7.87854 54.768V2.86658C7.87854 1.49191 6.77394 0.375 5.40487 0.375H3.28125C1.91218 0.375 0.799805 1.49191 0.799805 2.86658V61.8834Z" fill="#212629"/>
<path d="M47.8851 14.598H45.7693C44.3988 14.598 43.2878 15.7135 43.2878 17.0896V19.2141C43.2878 20.5901 44.3988 21.7056 45.7693 21.7056H47.8851C49.2556 21.7056 50.3665 20.5901 50.3665 19.2141V17.0896C50.3665 15.7135 49.2556 14.598 47.8851 14.598Z" fill="#212629"/>
<path fill-rule="evenodd" clip-rule="evenodd" d="M47.893 28.8136H38.6906C37.3215 28.8136 36.2092 27.6967 36.2092 26.322V17.0821C36.2092 15.7074 35.0968 14.5905 33.7277 14.5905H31.6041C30.235 14.5905 29.1227 15.7074 29.1227 17.0821V33.4375C29.1227 33.953 29.2782 34.4294 29.5427 34.8278C29.9861 35.4917 30.7407 35.9212 31.5963 35.9212H47.8852C49.2543 35.9212 50.3666 34.8043 50.3666 33.4297V31.2974C50.3666 29.9227 49.2543 28.8058 47.8852 28.8058L47.893 28.8136Z" fill="#212629"/>
</svg>
