<svg width="671" height="197" viewBox="0 0 671 197" fill="none" xmlns="http://www.w3.org/2000/svg">
<path d="M470 92C477.456 92 483.5 98.0442 483.5 105.5C483.5 112.956 477.456 119 470 119H-260.5C-267.956 119 -274 112.956 -274 105.5C-274 98.0442 -267.956 92 -260.5 92H470Z" fill="white" stroke="#0A3785" stroke-width="6" stroke-linecap="round" stroke-linejoin="round"/>
<mask id="path-2-inside-1_4161_14434" fill="white">
<path d="M362 88.5C362 78.5589 370.059 70.5 380 70.5H440V142.5H380C370.059 142.5 362 134.441 362 124.5V88.5Z"/>
</mask>
<path d="M362 88.5C362 78.5589 370.059 70.5 380 70.5H440V142.5H380C370.059 142.5 362 134.441 362 124.5V88.5Z" fill="#D7DFF2"/>
<path d="M440 70.5H452V58.5H440V70.5ZM440 142.5V154.5H452V142.5H440ZM380 70.5V82.5H440V70.5V58.5H380V70.5ZM440 70.5H428V142.5H440H452V70.5H440ZM440 142.5V130.5H380V142.5V154.5H440V142.5ZM362 124.5H374V88.5H362H350V124.5H362ZM380 142.5V130.5C376.686 130.5 374 127.814 374 124.5H362H350C350 141.069 363.431 154.5 380 154.5V142.5ZM380 70.5V58.5C363.431 58.5 350 71.9315 350 88.5H362H374C374 85.1863 376.686 82.5 380 82.5V70.5Z" fill="#0A3785" mask="url(#path-2-inside-1_4161_14434)"/>
<mask id="path-4-inside-2_4161_14434" fill="white">
<path d="M593 52.5H654.5C663.613 52.5 671 59.8873 671 69C671 78.1127 663.613 85.5 654.5 85.5H593V52.5Z"/>
</mask>
<path d="M593 52.5H654.5C663.613 52.5 671 59.8873 671 69C671 78.1127 663.613 85.5 654.5 85.5H593V52.5Z" fill="#D7DFF2"/>
<path d="M593 52.5V46.5H587V52.5H593ZM593 85.5H587V91.5H593V85.5ZM593 52.5V58.5H654.5V52.5V46.5H593V52.5ZM654.5 85.5V79.5H593V85.5V91.5H654.5V85.5ZM593 85.5H599V52.5H593H587V85.5H593ZM671 69H665C665 74.799 660.299 79.5 654.5 79.5V85.5V91.5C666.926 91.5 677 81.4264 677 69H671ZM654.5 52.5V58.5C660.299 58.5 665 63.201 665 69H671H677C677 56.5736 666.926 46.5 654.5 46.5V52.5Z" fill="#0A3785" mask="url(#path-4-inside-2_4161_14434)"/>
<mask id="path-6-inside-3_4161_14434" fill="white">
<path d="M593 124.5H654.5C663.613 124.5 671 131.887 671 141C671 150.113 663.613 157.5 654.5 157.5H593V124.5Z"/>
</mask>
<path d="M593 124.5H654.5C663.613 124.5 671 131.887 671 141C671 150.113 663.613 157.5 654.5 157.5H593V124.5Z" fill="#D7DFF2"/>
<path d="M593 124.5V118.5H587V124.5H593ZM593 157.5H587V163.5H593V157.5ZM593 124.5V130.5H654.5V124.5V118.5H593V124.5ZM654.5 157.5V151.5H593V157.5V163.5H654.5V157.5ZM593 157.5H599V124.5H593H587V157.5H593ZM671 141H665C665 146.799 660.299 151.5 654.5 151.5V157.5V163.5C666.926 163.5 677 153.426 677 141H671ZM654.5 124.5V130.5C660.299 130.5 665 135.201 665 141H671H677C677 128.574 666.926 118.5 654.5 118.5V124.5Z" fill="#0A3785" mask="url(#path-6-inside-3_4161_14434)"/>
<mask id="path-8-inside-4_4161_14434" fill="white">
<path d="M431 55.5C431 42.2452 441.745 31.5 455 31.5H569V181.5H455C441.745 181.5 431 170.755 431 157.5V55.5Z"/>
</mask>
<path d="M431 55.5C431 42.2452 441.745 31.5 455 31.5H569V181.5H455C441.745 181.5 431 170.755 431 157.5V55.5Z" fill="#D7DFF2"/>
<path d="M569 31.5H581V19.5H569V31.5ZM569 181.5V193.5H581V181.5H569ZM455 31.5V43.5H569V31.5V19.5H455V31.5ZM569 31.5H557V181.5H569H581V31.5H569ZM569 181.5V169.5H455V181.5V193.5H569V181.5ZM431 157.5H443V55.5H431H419V157.5H431ZM455 181.5V169.5C448.373 169.5 443 164.127 443 157.5H431H419C419 177.382 435.118 193.5 455 193.5V181.5ZM455 31.5V19.5C435.118 19.5 419 35.6178 419 55.5H431H443C443 48.8726 448.373 43.5 455 43.5V31.5Z" fill="#0A3785" mask="url(#path-8-inside-4_4161_14434)"/>
<mask id="path-10-inside-5_4161_14434" fill="white">
<path d="M554 22.5C554 19.1863 556.686 16.5 560 16.5H596C599.314 16.5 602 19.1863 602 22.5V190.5C602 193.814 599.314 196.5 596 196.5H560C556.686 196.5 554 193.814 554 190.5V22.5Z"/>
</mask>
<path d="M554 22.5C554 19.1863 556.686 16.5 560 16.5H596C599.314 16.5 602 19.1863 602 22.5V190.5C602 193.814 599.314 196.5 596 196.5H560C556.686 196.5 554 193.814 554 190.5V22.5Z" fill="#D7DFF2"/>
<path d="M560 16.5V28.5H596V16.5V4.5H560V16.5ZM602 22.5H590V190.5H602H614V22.5H602ZM596 196.5V184.5H560V196.5V208.5H596V196.5ZM554 190.5H566V22.5H554H542V190.5H554ZM560 196.5V184.5C563.314 184.5 566 187.186 566 190.5H554H542C542 200.441 550.059 208.5 560 208.5V196.5ZM602 190.5H590C590 187.186 592.686 184.5 596 184.5V196.5V208.5C605.941 208.5 614 200.441 614 190.5H602ZM596 16.5V28.5C592.686 28.5 590 25.8137 590 22.5H602H614C614 12.5589 605.941 4.5 596 4.5V16.5ZM560 16.5V4.5C550.059 4.5 542 12.5589 542 22.5H554H566C566 25.8137 563.314 28.5 560 28.5V16.5Z" fill="#0A3785" mask="url(#path-10-inside-5_4161_14434)"/>
</svg>
