<svg width="640" height="196" viewBox="0 0 640 196" fill="none" xmlns="http://www.w3.org/2000/svg">
<path d="M132 91.001C124.544 91.001 118.5 97.0451 118.5 104.501C118.5 111.957 124.544 118.001 132 118.001L862.5 118C869.956 118 876 111.956 876 104.5C876 97.0442 869.956 91 862.5 91L132 91.001Z" fill="white" stroke="#0A3785" stroke-width="6" stroke-linecap="round" stroke-linejoin="round"/>
<mask id="path-2-inside-1_4161_14441" fill="white">
<path d="M240 87.5C240 77.5589 231.941 69.5 222 69.5H162V141.5H222C231.941 141.5 240 133.441 240 123.5V87.5Z"/>
</mask>
<path d="M240 87.5C240 77.5589 231.941 69.5 222 69.5H162V141.5H222C231.941 141.5 240 133.441 240 123.5V87.5Z" fill="#D7DFF2"/>
<path d="M162 69.5H150V57.5H162V69.5ZM162 141.5V153.5H150V141.5H162ZM222 69.5V81.5H162V69.5V57.5H222V69.5ZM162 69.5H174V141.5H162H150V69.5H162ZM162 141.5V129.5H222V141.5V153.5H162V141.5ZM240 123.5H228V87.5H240H252V123.5H240ZM222 141.5V129.5C225.314 129.5 228 126.814 228 123.5H240H252C252 140.069 238.569 153.5 222 153.5V141.5ZM222 69.5V57.5C238.569 57.5 252 70.9315 252 87.5H240H228C228 84.1863 225.314 81.5 222 81.5V69.5Z" fill="#0A3785" mask="url(#path-2-inside-1_4161_14441)"/>
<mask id="path-4-inside-2_4161_14441" fill="white">
<path d="M171 54.5C171 41.2452 160.255 30.5 147 30.5H33V180.5H147C160.255 180.5 171 169.755 171 156.5V54.5Z"/>
</mask>
<path d="M171 54.5C171 41.2452 160.255 30.5 147 30.5H33V180.5H147C160.255 180.5 171 169.755 171 156.5V54.5Z" fill="#D7DFF2"/>
<path d="M33 30.5H21V18.5H33V30.5ZM33 180.5V192.5H21V180.5H33ZM147 30.5V42.5H33V30.5V18.5H147V30.5ZM33 30.5H45V180.5H33H21V30.5H33ZM33 180.5V168.5H147V180.5V192.5H33V180.5ZM171 156.5H159V54.5H171H183V156.5H171ZM147 180.5V168.5C153.627 168.5 159 163.127 159 156.5H171H183C183 176.382 166.882 192.5 147 192.5V180.5ZM147 30.5V18.5C166.882 18.5 183 34.6178 183 54.5H171H159C159 47.8726 153.627 42.5 147 42.5V30.5Z" fill="#0A3785" mask="url(#path-4-inside-2_4161_14441)"/>
<mask id="path-6-inside-3_4161_14441" fill="white">
<path d="M48 21.5C48 18.1863 45.3137 15.5 42 15.5H6C2.68629 15.5 0 18.1863 0 21.5V189.5C0 192.814 2.68629 195.5 6 195.5H42C45.3137 195.5 48 192.814 48 189.5V21.5Z"/>
</mask>
<path d="M48 21.5C48 18.1863 45.3137 15.5 42 15.5H6C2.68629 15.5 0 18.1863 0 21.5V189.5C0 192.814 2.68629 195.5 6 195.5H42C45.3137 195.5 48 192.814 48 189.5V21.5Z" fill="#D7DFF2"/>
<path d="M42 15.5V27.5H6V15.5V3.5H42V15.5ZM0 21.5H12V189.5H0H-12V21.5H0ZM6 195.5V183.5H42V195.5V207.5H6V195.5ZM48 189.5H36V21.5H48H60V189.5H48ZM42 195.5V183.5C38.6863 183.5 36 186.186 36 189.5H48H60C60 199.441 51.9411 207.5 42 207.5V195.5ZM0 189.5H12C12 186.186 9.31372 183.5 6 183.5V195.5V207.5C-3.94114 207.5 -12 199.441 -12 189.5H0ZM6 15.5V27.5C9.31371 27.5 12 24.8137 12 21.5H0H-12C-12 11.5589 -3.94113 3.5 6 3.5V15.5ZM42 15.5V3.5C51.9411 3.5 60 11.5589 60 21.5H48H36C36 24.8137 38.6863 27.5 42 27.5V15.5Z" fill="#0A3785" mask="url(#path-6-inside-3_4161_14441)"/>
</svg>
