<svg width="56" height="57" viewBox="0 0 56 57" fill="none" xmlns="http://www.w3.org/2000/svg">
<path d="M48.3307 19.6775L47.7567 20.9982C47.667 21.2132 47.5156 21.3969 47.3217 21.5261C47.1278 21.6553 46.9 21.7243 46.667 21.7243C46.434 21.7243 46.2062 21.6553 46.0123 21.5261C45.8184 21.3969 45.667 21.2132 45.5773 20.9982L45.0033 19.6775C43.9941 17.3412 42.1459 15.468 39.8233 14.4275L38.0523 13.6365C37.8375 13.5377 37.6555 13.3793 37.5279 13.1802C37.4003 12.981 37.3325 12.7495 37.3325 12.513C37.3325 12.2765 37.4003 12.045 37.5279 11.8458C37.6555 11.6467 37.8375 11.4883 38.0523 11.3895L39.7253 10.6452C42.1063 9.57504 43.9861 7.63255 44.9777 5.21782L45.568 3.79216C45.6547 3.57132 45.8059 3.38172 46.002 3.24808C46.198 3.11445 46.4297 3.04297 46.667 3.04297C46.9042 3.04297 47.136 3.11445 47.332 3.24808C47.5281 3.38172 47.6793 3.57132 47.766 3.79216L48.3563 5.21549C49.3468 7.63067 51.2258 9.574 53.6063 10.6452L55.2817 11.3918C55.4959 11.4909 55.6772 11.6493 55.8043 11.8482C55.9314 12.047 55.999 12.2781 55.999 12.5142C55.999 12.7502 55.9314 12.9813 55.8043 13.1802C55.6772 13.379 55.4959 13.5374 55.2817 13.6365L53.5083 14.4252C51.1862 15.4667 49.3388 17.3407 48.3307 19.6775ZM23.3337 7.71216H32.667V12.3788H23.3337C19.6206 12.3788 16.0597 13.8538 13.4342 16.4793C10.8087 19.1048 9.33366 22.6658 9.33366 26.3788C9.33366 34.8022 15.0783 40.2995 28.0003 46.1655V40.3788H32.667C36.38 40.3788 39.941 38.9038 42.5665 36.2783C45.192 33.6528 46.667 30.0919 46.667 26.3788H51.3337C51.3337 31.3295 49.367 36.0775 45.8663 39.5782C42.3656 43.0788 37.6177 45.0455 32.667 45.0455V53.2122C21.0003 48.5455 4.66699 41.5455 4.66699 26.3788C4.66699 21.4281 6.63365 16.6802 10.1343 13.1795C13.635 9.67882 18.383 7.71216 23.3337 7.71216Z" fill="#002C6C"/>
</svg>
