<svg width="184" height="65" viewBox="0 0 184 65" fill="none" xmlns="http://www.w3.org/2000/svg">
<path fill-rule="evenodd" clip-rule="evenodd" d="M18.1467 5.97656L14.5566 9.56665L17.9385 12.9485L21.5286 9.35846L18.1467 5.97656Z" fill="#F3B229"/>
<path fill-rule="evenodd" clip-rule="evenodd" d="M42.1514 37.1604L55.1288 50.1374L58.7189 46.5477L45.7415 33.5703L42.1514 37.1604Z" fill="#F3B229"/>
<path fill-rule="evenodd" clip-rule="evenodd" d="M14.0889 18.5919L17.6785 22.1816L32.0128 7.84772L37.1192 12.9545L40.7093 9.36446L32.0128 0.667969L14.0889 18.5919Z" fill="#F3B229"/>
<path fill-rule="evenodd" clip-rule="evenodd" d="M51.7393 18.5971L55.3289 22.1871L58.7194 18.7971L55.1293 15.207L51.7393 18.5971Z" fill="#F3B229"/>
<path fill-rule="evenodd" clip-rule="evenodd" d="M14.5566 55.7812L18.1463 59.3713L31.1233 46.3948L27.5332 42.8047L14.5566 55.7812Z" fill="#F3B229"/>
<path fill-rule="evenodd" clip-rule="evenodd" d="M32.918 37.4209L36.5081 41.0106L49.9446 27.574L46.3545 23.9844L32.918 37.4209Z" fill="#F3B229"/>
<path fill-rule="evenodd" clip-rule="evenodd" d="M42.5049 18.3397L56.8456 32.6808L51.746 37.7808L55.3361 41.3704L64.0257 32.6808L46.0945 14.75L42.5049 18.3397Z" fill="#F3B229"/>
<path fill-rule="evenodd" clip-rule="evenodd" d="M5.32227 46.5465L8.91193 50.1366L12.287 46.7615L8.6969 43.1719L5.32227 46.5465Z" fill="#F3B229"/>
<path fill-rule="evenodd" clip-rule="evenodd" d="M32.918 18.9501L36.5081 22.5397L49.4855 9.56274L45.8954 5.97266L32.918 18.9501Z" fill="#F3B229"/>
<path fill-rule="evenodd" clip-rule="evenodd" d="M0 32.6812L17.9308 50.612L21.5209 47.0219L7.17975 32.6812L12.2943 27.5667L8.70419 23.9766L0 32.6812Z" fill="#F3B229"/>
<path fill-rule="evenodd" clip-rule="evenodd" d="M23.3232 18.3323L36.7666 31.7757L40.3563 28.186L26.9129 14.7422L23.3232 18.3323Z" fill="#F3B229"/>
<path fill-rule="evenodd" clip-rule="evenodd" d="M42.5117 55.9885L45.8949 59.3713L49.485 55.7816L46.1018 52.3984L42.5117 55.9885Z" fill="#F3B229"/>
<path fill-rule="evenodd" clip-rule="evenodd" d="M5.32227 18.8006L18.2984 31.7767L21.8885 28.1871L8.91235 15.2109L5.32227 18.8006Z" fill="#F3B229"/>
<mask id="mask0_3817_4283" style="mask-type:luminance" maskUnits="userSpaceOnUse" x="23" y="33" width="27" height="32">
<path fill-rule="evenodd" clip-rule="evenodd" d="M23.3164 33.5703H49.9514V64.6674H23.3164V33.5703Z" fill="white"/>
</mask>
<g mask="url(#mask0_3817_4283)">
<path fill-rule="evenodd" clip-rule="evenodd" d="M23.6836 37.1604L37.127 50.6038L40.7166 47.0137L27.2733 33.5703L23.6836 37.1604Z" fill="#F3B229"/>
<path fill-rule="evenodd" clip-rule="evenodd" d="M32.0129 57.5129L26.9061 52.406L23.3164 55.9957L32.0129 64.6926L49.9514 46.7541L46.3617 43.1641L32.0129 57.5129Z" fill="#F3B229"/>
</g>
<path fill-rule="evenodd" clip-rule="evenodd" d="M14.082 37.787L17.6717 41.3771L31.1232 27.926L27.5331 24.3359L14.082 37.787Z" fill="#F3B229"/>
<path fill-rule="evenodd" clip-rule="evenodd" d="M79.4323 6.54075C79.2741 6.03588 79.1198 5.705 78.9253 5.57291C78.777 5.47074 78.5008 5.44893 78.3807 5.44893C78.2405 5.44893 78.1562 5.43483 78.1562 5.32282C78.1562 5.22664 78.2725 5.20312 78.4581 5.20312C79.1758 5.20312 79.9286 5.23647 80.0552 5.23647C80.1796 5.23647 80.7836 5.20312 81.5788 5.20312C81.7656 5.20312 81.8656 5.23647 81.8656 5.32282C81.8656 5.43483 81.7532 5.44893 81.6172 5.44893C81.5087 5.44893 81.3727 5.44893 81.277 5.49895C81.1521 5.55709 81.1243 5.65071 81.1243 5.79905C81.1243 5.9833 81.2607 6.44841 81.4287 7.06101C81.6596 7.97072 82.9352 12.1341 83.1831 12.9006H83.2233L85.8849 5.74903C86.0226 5.35959 86.1149 5.254 86.2312 5.254C86.3812 5.254 86.4479 5.46304 86.6317 5.90379L89.4835 12.8022H89.5233C89.7678 11.8827 90.8695 8.25842 91.3542 6.65446C91.4423 6.33983 91.4859 6.0517 91.4859 5.85462C91.4859 5.63874 91.3645 5.44893 90.8271 5.44893C90.6933 5.44893 90.5972 5.40276 90.5972 5.32282C90.5972 5.22664 90.7015 5.20312 90.9135 5.20312C91.6381 5.20312 92.2139 5.23647 92.3375 5.23647C92.4315 5.23647 93.024 5.20312 93.4767 5.20312C93.6255 5.20312 93.7234 5.22664 93.7234 5.31043C93.7234 5.40276 93.6601 5.44893 93.5349 5.44893C93.3951 5.44893 93.2044 5.46304 93.0527 5.51477C92.7205 5.63874 92.5752 6.1855 92.2793 6.97295C91.6548 8.70045 90.2128 13.0647 89.54 15.1235C89.3878 15.604 89.3194 15.7695 89.1394 15.7695C88.9992 15.7695 88.9214 15.604 88.7149 15.0915L85.861 8.21781H85.831C85.5724 8.9189 83.744 13.7778 83.1549 15.0372C82.8903 15.604 82.8266 15.7695 82.662 15.7695C82.5227 15.7695 82.4705 15.6199 82.3461 15.2599L79.4323 6.54075Z" fill="#1A1919"/>
<path fill-rule="evenodd" clip-rule="evenodd" d="M105.497 10.6481C105.497 7.57189 103.727 5.66271 101.476 5.66271C99.8981 5.66271 98.0971 6.53907 98.0971 9.95987C98.0971 12.8164 99.6822 15.0821 102.316 15.0821C103.279 15.0821 105.497 14.6161 105.497 10.6481ZM96.2061 10.3878C96.2061 8.03831 97.7544 5.00781 101.876 5.00781C105.293 5.00781 107.422 6.99224 107.422 10.1394C107.422 13.2841 105.221 15.7678 101.74 15.7678C97.798 15.7678 96.2061 12.8164 96.2061 10.3878Z" fill="#1A1919"/>
<path fill-rule="evenodd" clip-rule="evenodd" d="M114.061 10.2651C114.061 10.4177 114.089 10.4681 114.184 10.5139C114.467 10.6096 114.887 10.6498 115.228 10.6498C115.773 10.6498 115.954 10.5921 116.205 10.4177C116.615 10.1129 117.012 9.47807 117.012 8.34992C117.012 6.40611 115.728 5.84609 114.911 5.84609C114.568 5.84609 114.322 5.85464 114.184 5.9038C114.089 5.92945 114.061 5.98332 114.061 6.09233V10.2651ZM112.443 9.18138C112.443 7.09606 112.443 6.70705 112.416 6.27186C112.389 5.79905 112.278 5.58274 111.827 5.48484C111.712 5.46304 111.486 5.44893 111.289 5.44893C111.138 5.44893 111.053 5.41602 111.053 5.32282C111.053 5.22664 111.151 5.20312 111.353 5.20312C112.087 5.20312 112.952 5.23647 113.24 5.23647C113.704 5.23647 114.747 5.20312 115.171 5.20312C116.038 5.20312 116.962 5.28606 117.698 5.78965C118.086 6.0517 118.632 6.7545 118.632 7.67019C118.632 8.68762 118.208 9.61314 116.821 10.74C118.043 12.2816 118.989 13.505 119.798 14.3528C120.566 15.1479 121.13 15.2432 121.34 15.289C121.487 15.3176 121.614 15.3283 121.72 15.3283C121.832 15.3283 121.886 15.3766 121.886 15.442C121.886 15.5442 121.792 15.5758 121.623 15.5758H120.322C119.551 15.5758 119.207 15.5044 118.856 15.3176C118.264 15 117.738 14.3528 116.973 13.299C116.424 12.5398 115.797 11.6108 115.611 11.3984C115.548 11.3244 115.464 11.3086 115.367 11.3086L114.172 11.2769C114.106 11.2769 114.061 11.3086 114.061 11.3864V11.5835C114.061 12.8582 114.061 13.9415 114.13 14.5195C114.172 14.9153 114.25 15.2219 114.668 15.2719C114.875 15.3048 115.171 15.3283 115.335 15.3283C115.447 15.3283 115.508 15.3766 115.508 15.442C115.508 15.5365 115.41 15.5758 115.228 15.5758C114.433 15.5758 113.418 15.5365 113.213 15.5365C112.952 15.5365 112.087 15.5758 111.537 15.5758C111.353 15.5758 111.262 15.5365 111.262 15.442C111.262 15.3766 111.316 15.3283 111.486 15.3283C111.689 15.3283 111.852 15.3048 111.976 15.2719C112.249 15.2219 112.319 14.9153 112.374 14.5195C112.443 13.9415 112.443 12.8582 112.443 11.5976V9.18138Z" fill="#1A1919"/>
<path fill-rule="evenodd" clip-rule="evenodd" d="M126.675 11.5976C126.675 13.3499 126.675 14.2989 126.962 14.5456C127.195 14.755 127.555 14.8521 128.621 14.8521C129.35 14.8521 129.887 14.8337 130.23 14.4631C130.399 14.2865 130.56 13.8983 130.584 13.644C130.599 13.5187 130.623 13.4337 130.734 13.4337C130.836 13.4337 130.849 13.505 130.849 13.6654C130.849 13.8218 130.75 14.8521 130.642 15.2432C130.56 15.5442 130.487 15.6199 129.774 15.6199C128.789 15.6199 128.077 15.5882 127.457 15.5758C126.838 15.5442 126.345 15.5365 125.781 15.5365C125.633 15.5365 125.324 15.5365 124.998 15.5442C124.684 15.5442 124.329 15.5758 124.057 15.5758C123.876 15.5758 123.776 15.5365 123.776 15.442C123.776 15.3766 123.838 15.3283 123.995 15.3283C124.205 15.3283 124.367 15.3048 124.492 15.2719C124.772 15.2219 124.836 14.9153 124.888 14.5195C124.959 13.9415 124.959 12.8582 124.959 11.5976V9.18138C124.959 7.09606 124.959 6.70705 124.932 6.27186C124.904 5.79905 124.791 5.58274 124.343 5.48484C124.236 5.46304 124.063 5.44893 123.887 5.44893C123.736 5.44893 123.654 5.41602 123.654 5.32282C123.654 5.22664 123.752 5.20312 123.954 5.20312C124.602 5.20312 125.465 5.23647 125.837 5.23647C126.167 5.23647 127.17 5.20312 127.703 5.20312C127.896 5.20312 127.995 5.22664 127.995 5.32282C127.995 5.41602 127.91 5.44893 127.745 5.44893C127.596 5.44893 127.379 5.46304 127.209 5.48484C126.838 5.55709 126.725 5.78965 126.702 6.27186C126.675 6.70705 126.675 7.09606 126.675 9.18138V11.5976Z" fill="#1A1919"/>
<path fill-rule="evenodd" clip-rule="evenodd" d="M137.132 10.6909C137.132 12.1418 137.141 13.1994 137.16 13.4644C137.172 13.806 137.204 14.3528 137.313 14.5071C137.49 14.7657 138.025 15.0526 139.107 15.0526C140.509 15.0526 141.444 14.779 142.263 14.0651C143.149 13.3076 143.417 12.0618 143.417 10.6498C143.417 8.9078 142.69 7.77793 142.104 7.2145C140.837 6.00768 139.273 5.84609 138.202 5.84609C137.927 5.84609 137.421 5.88286 137.313 5.93929C137.189 5.99571 137.141 6.06326 137.141 6.21203C137.132 6.68441 137.132 7.87797 137.132 8.96423V10.6909ZM135.418 9.18138C135.418 7.09606 135.418 6.70705 135.386 6.27186C135.358 5.79905 135.249 5.58274 134.797 5.48484C134.689 5.46304 134.454 5.44893 134.264 5.44893C134.108 5.44893 134.026 5.41602 134.026 5.32282C134.026 5.22664 134.127 5.20312 134.329 5.20312C135.057 5.20312 135.918 5.23647 136.307 5.23647C136.732 5.23647 137.598 5.20312 138.423 5.20312C140.138 5.20312 142.431 5.20312 143.928 6.76347C144.615 7.47953 145.256 8.61965 145.256 10.2484C145.256 11.9797 144.531 13.299 143.761 14.0826C143.129 14.7255 141.703 15.7006 139.165 15.7006C138.671 15.7006 138.106 15.6588 137.586 15.6198C137.062 15.5758 136.579 15.5365 136.243 15.5365C136.089 15.5365 135.786 15.5365 135.454 15.5442C135.14 15.5442 134.785 15.5758 134.507 15.5758C134.329 15.5758 134.238 15.5365 134.238 15.442C134.238 15.3766 134.293 15.3283 134.454 15.3283C134.661 15.3283 134.829 15.3048 134.95 15.2719C135.225 15.2219 135.294 14.9153 135.349 14.5195C135.418 13.9415 135.418 12.8582 135.418 11.5976V9.18138Z" fill="#1A1919"/>
<path fill-rule="evenodd" clip-rule="evenodd" d="M82.2778 32.5402C82.2778 32.6946 82.306 32.751 82.3979 32.7907C82.686 32.8861 83.1028 32.9267 83.441 32.9267C83.9937 32.9267 84.172 32.8703 84.4169 32.6946C84.8329 32.3893 85.2241 31.7626 85.2241 30.6358C85.2241 28.6851 83.9377 28.1242 83.1289 28.1242C82.7861 28.1242 82.536 28.1366 82.3979 28.1772C82.306 28.2072 82.2778 28.2563 82.2778 28.3683V32.5402ZM80.6551 31.4603C80.6551 29.372 80.6551 28.9851 80.6307 28.5487C80.6029 28.084 80.4948 27.8617 80.0339 27.7676C79.9279 27.7394 79.6962 27.7283 79.5056 27.7283C79.3572 27.7283 79.2734 27.7001 79.2734 27.5975C79.2734 27.5034 79.3653 27.4727 79.5774 27.4727C80.2986 27.4727 81.1634 27.5201 81.4541 27.5201C81.9166 27.5201 82.958 27.4727 83.3906 27.4727C84.2495 27.4727 85.1754 27.5633 85.9158 28.0724C86.2967 28.3323 86.8499 29.0313 86.8499 29.9504C86.8499 30.9623 86.419 31.8981 85.0352 33.0254C86.2565 34.5609 87.2039 35.7836 88.0131 36.6355C88.78 37.429 89.343 37.5286 89.5491 37.5653C89.7038 37.5927 89.8235 37.6132 89.9355 37.6132C90.0399 37.6132 90.1001 37.6466 90.1001 37.7167C90.1001 37.8295 90.0035 37.8535 89.8402 37.8535H88.5338C87.7605 37.8535 87.424 37.7872 87.0636 37.5927C86.475 37.2768 85.9539 36.6355 85.1852 35.5762C84.6368 34.8251 84.0075 33.8885 83.8275 33.6858C83.7596 33.5991 83.6728 33.5884 83.5749 33.5884L82.389 33.561C82.3193 33.561 82.2774 33.5884 82.2774 33.6683V33.8641C82.2774 35.138 82.2774 36.2196 82.3454 36.798C82.389 37.1939 82.4698 37.4982 82.8806 37.5529C83.0867 37.5816 83.3906 37.6132 83.5509 37.6132C83.6634 37.6132 83.7194 37.6466 83.7194 37.7167C83.7194 37.8112 83.6193 37.8535 83.4406 37.8535C82.6459 37.8535 81.6323 37.8112 81.428 37.8112C81.1634 37.8112 80.2986 37.8535 79.7535 37.8535C79.5774 37.8535 79.4739 37.8112 79.4739 37.7167C79.4739 37.6466 79.5316 37.6132 79.6962 37.6132C79.9027 37.6132 80.0686 37.5816 80.1947 37.5529C80.467 37.4982 80.5367 37.1939 80.5914 36.798C80.6551 36.2196 80.6551 35.138 80.6551 33.8722V31.4603Z" fill="#1A1919"/>
<path fill-rule="evenodd" clip-rule="evenodd" d="M93.1723 31.4604C93.1723 29.3721 93.1723 28.9852 93.1466 28.5488C93.121 28.0841 93.0081 27.8618 92.5558 27.7677C92.4455 27.7395 92.207 27.7284 92.024 27.7284C91.8705 27.7284 91.7842 27.7002 91.7842 27.5976C91.7842 27.5036 91.8829 27.4728 92.089 27.4728C92.4596 27.4728 92.8606 27.4895 93.2043 27.4895C93.5566 27.5036 93.8738 27.5202 94.0661 27.5202C94.5069 27.5202 97.2347 27.5202 97.4989 27.5036C97.7545 27.4728 97.9751 27.4497 98.0871 27.4236C98.1547 27.4112 98.2398 27.3672 98.3039 27.3672C98.3714 27.3672 98.3881 27.4236 98.3881 27.4895C98.3881 27.5873 98.3235 27.7536 98.2757 28.385C98.2671 28.521 98.2398 29.1302 98.2111 29.2875C98.1983 29.358 98.1667 29.4384 98.0713 29.4384C97.9751 29.4384 97.9491 29.3721 97.9491 29.2499C97.9491 29.1537 97.9392 28.9169 97.8704 28.7565C97.7699 28.5082 97.6349 28.341 96.9462 28.2564C96.7136 28.2299 95.2712 28.2072 94.9985 28.2072C94.9284 28.2072 94.9032 28.244 94.9032 28.341V31.817C94.9032 31.9114 94.919 31.9653 94.9985 31.9653C95.2995 31.9653 96.8816 31.9653 97.1941 31.9371C97.5271 31.9114 97.7306 31.8708 97.8507 31.7327C97.9491 31.622 98.0029 31.5532 98.0713 31.5532C98.1299 31.5532 98.1667 31.5814 98.1667 31.6652C98.1667 31.7469 98.1158 31.9653 98.0594 32.6664C98.0487 32.9387 98.0029 33.4897 98.0029 33.5885C98.0029 33.6954 98.0029 33.8446 97.8785 33.8446C97.7823 33.8446 97.7545 33.7916 97.7545 33.7244C97.7473 33.5885 97.7473 33.4111 97.7028 33.2273C97.6349 32.9554 97.4459 32.751 96.9338 32.6946C96.6734 32.6664 95.3119 32.6506 94.987 32.6506C94.919 32.6506 94.9032 32.707 94.9032 32.7908V33.8724C94.9032 34.3392 94.8874 35.6067 94.9032 36.0051C94.9284 36.9439 95.1468 37.1572 96.5465 37.1572C96.9055 37.1572 97.4822 37.1572 97.8405 36.9952C98.1983 36.8238 98.362 36.5425 98.4616 35.9752C98.4864 35.8187 98.5112 35.767 98.61 35.767C98.7198 35.767 98.7198 35.8799 98.7198 36.0158C98.7198 36.3326 98.61 37.2671 98.5399 37.5394C98.4394 37.8959 98.3235 37.8959 97.8011 37.8959C96.77 37.8959 96.0181 37.8647 95.4239 37.8536C94.8348 37.8297 94.4064 37.8113 93.996 37.8113C93.8447 37.8113 93.5433 37.8113 93.2124 37.8297C92.8978 37.8297 92.5434 37.8536 92.2668 37.8536C92.089 37.8536 91.9868 37.8113 91.9868 37.7168C91.9868 37.6467 92.0492 37.6133 92.207 37.6133C92.4147 37.6133 92.5836 37.5817 92.708 37.5531C92.982 37.4983 93.047 37.194 93.1043 36.7981C93.1723 36.2197 93.1723 35.1382 93.1723 33.8724V31.4604Z" fill="#1A1919"/>
<path fill-rule="evenodd" clip-rule="evenodd" d="M103.25 37.692C103.025 37.5915 102.986 37.5274 102.986 37.2239C102.986 36.4659 103.037 35.6447 103.05 35.4271C103.066 35.2185 103.109 35.0727 103.217 35.0727C103.342 35.0727 103.354 35.1946 103.354 35.3032C103.354 35.4776 103.412 35.7657 103.478 36.0038C103.779 37.0183 104.592 37.3885 105.445 37.3885C106.675 37.3885 107.281 36.5463 107.281 35.8174C107.281 35.1463 107.071 34.5196 105.936 33.6265L105.305 33.1298C103.795 31.952 103.274 30.9868 103.274 29.88C103.274 28.3671 104.536 27.2812 106.447 27.2812C107.335 27.2812 107.912 27.4223 108.27 27.5189C108.395 27.5506 108.465 27.5861 108.465 27.6827C108.465 27.8605 108.404 28.2551 108.404 29.3294C108.404 29.6333 108.362 29.7415 108.256 29.7415C108.156 29.7415 108.117 29.659 108.117 29.4969C108.117 29.3708 108.053 28.9438 107.763 28.5881C107.554 28.3312 107.159 27.9169 106.262 27.9169C105.248 27.9169 104.632 28.5069 104.632 29.3294C104.632 29.9633 104.953 30.4379 106.09 31.3095L106.47 31.5959C108.136 32.8438 108.721 33.7903 108.721 35.0971C108.721 35.8893 108.421 36.8421 107.436 37.4834C106.751 37.9198 105.982 38.0498 105.248 38.0498C104.456 38.0498 103.839 37.9502 103.25 37.692Z" fill="#1A1919"/>
<path fill-rule="evenodd" clip-rule="evenodd" d="M121.94 32.9255C121.94 29.8535 120.17 27.9426 117.923 27.9426C116.342 27.9426 114.542 28.8241 114.542 32.2406C114.542 35.0971 116.124 37.3598 118.756 37.3598C119.721 37.3598 121.94 36.8913 121.94 32.9255ZM112.647 32.6651C112.647 30.3199 114.197 27.2812 118.318 27.2812C121.731 27.2812 123.866 29.2768 123.866 32.421C123.866 35.5652 121.665 38.0498 118.181 38.0498C114.242 38.0498 112.647 35.0971 112.647 32.6651Z" fill="#1A1919"/>
<path fill-rule="evenodd" clip-rule="evenodd" d="M128.431 31.4603C128.431 29.372 128.431 28.9851 128.405 28.5487C128.377 28.084 128.266 27.8617 127.812 27.7676C127.703 27.7394 127.467 27.7283 127.276 27.7283C127.123 27.7283 127.043 27.7001 127.043 27.5975C127.043 27.5034 127.138 27.4727 127.347 27.4727C128.072 27.4727 128.936 27.5201 129.35 27.5201C129.677 27.5201 130.547 27.4727 131.036 27.4727C131.245 27.4727 131.34 27.5034 131.34 27.5975C131.34 27.7001 131.257 27.7283 131.121 27.7283C130.968 27.7283 130.884 27.7394 130.72 27.7676C130.347 27.8322 130.245 28.0724 130.213 28.5487C130.189 28.9851 130.189 29.372 130.189 31.4603V33.381C130.189 35.3676 130.583 36.2081 131.257 36.7595C131.874 37.267 132.509 37.3204 132.971 37.3204C133.576 37.3204 134.32 37.1289 134.869 36.5791C135.623 35.8186 135.662 34.5879 135.662 33.1733V31.4603C135.662 29.372 135.662 28.9851 135.639 28.5487C135.61 28.084 135.499 27.8617 135.047 27.7676C134.937 27.7394 134.705 27.7283 134.548 27.7283C134.401 27.7283 134.32 27.7001 134.32 27.5975C134.32 27.5034 134.412 27.4727 134.611 27.4727C135.304 27.4727 136.167 27.5201 136.167 27.5201C136.353 27.5201 137.213 27.4727 137.749 27.4727C137.945 27.4727 138.035 27.5034 138.035 27.5975C138.035 27.7001 137.957 27.7283 137.789 27.7283C137.64 27.7283 137.553 27.7394 137.397 27.7676C137.024 27.8322 136.908 28.0724 136.883 28.5487C136.857 28.9851 136.857 29.372 136.857 31.4603V32.9266C136.857 34.4528 136.709 36.067 135.551 37.0562C134.578 37.8958 133.592 38.051 132.694 38.051C131.974 38.051 130.651 38.0057 129.652 37.0972C128.949 36.4671 128.431 35.4522 128.431 33.464V31.4603Z" fill="#1A1919"/>
<path fill-rule="evenodd" clip-rule="evenodd" d="M144.488 32.5402C144.488 32.6946 144.514 32.751 144.612 32.7907C144.901 32.8861 145.311 32.9267 145.655 32.9267C146.205 32.9267 146.381 32.8703 146.629 32.6946C147.042 32.3893 147.439 31.7626 147.439 30.6358C147.439 28.6851 146.148 28.1242 145.339 28.1242C144.995 28.1242 144.752 28.1366 144.612 28.1772C144.514 28.2072 144.488 28.2563 144.488 28.3683V32.5402ZM142.868 31.4603C142.868 29.372 142.868 28.9851 142.84 28.5487C142.811 28.084 142.705 27.8617 142.251 27.7676C142.136 27.7394 141.907 27.7283 141.716 27.7283C141.566 27.7283 141.478 27.7001 141.478 27.5975C141.478 27.5034 141.574 27.4727 141.786 27.4727C142.507 27.4727 143.376 27.5201 143.663 27.5201C144.134 27.5201 145.173 27.4727 145.6 27.4727C146.464 27.4727 147.386 27.5633 148.122 28.0724C148.512 28.3323 149.06 29.0313 149.06 29.9504C149.06 30.9623 148.635 31.8981 147.244 33.0254C148.467 34.5609 149.413 35.7836 150.221 36.6355C150.99 37.429 151.556 37.5286 151.76 37.5653C151.912 37.5927 152.038 37.6132 152.146 37.6132C152.256 37.6132 152.31 37.6466 152.31 37.7167C152.31 37.8295 152.216 37.8535 152.046 37.8535H150.746C149.981 37.8535 149.632 37.7872 149.28 37.5927C148.688 37.2768 148.163 36.6355 147.397 35.5762C146.846 34.8251 146.217 33.8885 146.038 33.6858C145.968 33.5991 145.884 33.5884 145.791 33.5884L144.602 33.561C144.531 33.561 144.488 33.5884 144.488 33.6683V33.8641C144.488 35.138 144.488 36.2196 144.558 36.798C144.602 37.1939 144.678 37.4982 145.095 37.5529C145.297 37.5816 145.6 37.6132 145.764 37.6132C145.873 37.6132 145.927 37.6466 145.927 37.7167C145.927 37.8112 145.831 37.8535 145.655 37.8535C144.859 37.8535 143.841 37.8112 143.637 37.8112C143.376 37.8112 142.507 37.8535 141.963 37.8535C141.786 37.8535 141.69 37.8112 141.69 37.7167C141.69 37.6466 141.74 37.6132 141.907 37.6132C142.115 37.6132 142.279 37.5816 142.4 37.5529C142.675 37.4982 142.743 37.1939 142.8 36.798C142.868 36.2196 142.868 35.138 142.868 33.8722V31.4603Z" fill="#1A1919"/>
<path fill-rule="evenodd" clip-rule="evenodd" d="M155.521 36.5463C154.172 35.3664 153.82 33.8309 153.82 32.5009C153.82 31.5711 154.108 29.9492 155.429 28.7394C156.41 27.831 157.716 27.2812 159.762 27.2812C160.612 27.2812 161.123 27.3402 161.752 27.4223C162.275 27.4882 162.715 27.6185 163.127 27.6532C163.274 27.669 163.333 27.7382 163.333 27.8229C163.333 27.9327 163.291 28.0905 163.264 28.5723C163.235 29.0301 163.247 29.7838 163.22 30.0548C163.207 30.2622 163.179 30.3737 163.055 30.3737C162.947 30.3737 162.921 30.2622 162.921 30.0694C162.905 29.6444 162.726 29.1708 162.385 28.81C161.933 28.3312 160.864 27.9567 159.599 27.9567C158.405 27.9567 157.62 28.2551 157.018 28.81C156.015 29.7257 155.753 31.0291 155.753 32.3612C155.753 35.6285 158.241 37.2474 160.079 37.2474C161.297 37.2474 162.039 37.1153 162.586 36.4788C162.823 36.2184 163.003 35.8174 163.055 35.575C163.096 35.3527 163.127 35.3032 163.235 35.3032C163.333 35.3032 163.359 35.3964 163.359 35.5088C163.359 35.6695 163.196 36.8669 163.055 37.332C162.982 37.5642 162.932 37.6368 162.703 37.7317C162.15 37.9502 161.106 38.0498 160.228 38.0498C158.349 38.0498 156.77 37.6368 155.521 36.5463Z" fill="#1A1919"/>
<path fill-rule="evenodd" clip-rule="evenodd" d="M168.446 31.4604C168.446 29.3721 168.446 28.9852 168.423 28.5488C168.395 28.0841 168.282 27.8618 167.831 27.7677C167.722 27.7395 167.49 27.7284 167.296 27.7284C167.145 27.7284 167.061 27.7002 167.061 27.5976C167.061 27.5036 167.158 27.4728 167.357 27.4728C167.738 27.4728 168.131 27.4895 168.475 27.4895C168.838 27.5036 169.152 27.5202 169.342 27.5202C169.781 27.5202 172.511 27.5202 172.774 27.5036C173.033 27.4728 173.252 27.4497 173.362 27.4236C173.434 27.4112 173.521 27.3672 173.577 27.3672C173.653 27.3672 173.661 27.4236 173.661 27.4895C173.661 27.5873 173.593 27.7536 173.557 28.385C173.542 28.521 173.521 29.1302 173.489 29.2875C173.474 29.358 173.446 29.4384 173.353 29.4384C173.252 29.4384 173.225 29.3721 173.225 29.2499C173.225 29.1537 173.213 28.9169 173.141 28.7565C173.047 28.5082 172.909 28.341 172.224 28.2564C171.992 28.2299 170.547 28.2072 170.277 28.2072C170.205 28.2072 170.177 28.244 170.177 28.341V31.817C170.177 31.9114 170.197 31.9653 170.277 31.9653C170.574 31.9653 172.16 31.9653 172.472 31.9371C172.801 31.9114 173.004 31.8708 173.129 31.7327C173.225 31.622 173.282 31.5532 173.353 31.5532C173.402 31.5532 173.446 31.5814 173.446 31.6652C173.446 31.7469 173.39 31.9653 173.337 32.6664C173.319 32.9387 173.282 33.4897 173.282 33.5885C173.282 33.6954 173.282 33.8446 173.156 33.8446C173.063 33.8446 173.033 33.7916 173.033 33.7244C173.023 33.5885 173.023 33.4111 172.981 33.2273C172.909 32.9554 172.716 32.751 172.208 32.6946C171.948 32.6664 170.589 32.6506 170.266 32.6506C170.197 32.6506 170.177 32.707 170.177 32.7908V33.8724C170.177 34.3392 170.167 35.6067 170.177 36.0051C170.205 36.9439 170.43 37.1572 171.825 37.1572C172.184 37.1572 172.759 37.1572 173.117 36.9952C173.474 36.8238 173.638 36.5425 173.738 35.9752C173.757 35.8187 173.79 35.767 173.887 35.767C173.996 35.767 173.996 35.8799 173.996 36.0158C173.996 36.3326 173.887 37.2671 173.818 37.5394C173.721 37.8959 173.593 37.8959 173.076 37.8959C172.05 37.8959 171.294 37.8647 170.702 37.8536C170.108 37.8297 169.684 37.8113 169.28 37.8113C169.124 37.8113 168.821 37.8113 168.494 37.8297C168.174 37.8297 167.818 37.8536 167.544 37.8536C167.357 37.8536 167.269 37.8113 167.269 37.7168C167.269 37.6467 167.326 37.6133 167.49 37.6133C167.698 37.6133 167.861 37.5817 167.983 37.5531C168.258 37.4983 168.327 37.194 168.382 36.7981C168.446 36.2197 168.446 35.1382 168.446 33.8724V31.4604Z" fill="#1A1919"/>
<path fill-rule="evenodd" clip-rule="evenodd" d="M178.524 37.692C178.307 37.5915 178.262 37.5274 178.262 37.2239C178.262 36.4659 178.315 35.6447 178.332 35.4271C178.348 35.2185 178.383 35.0727 178.492 35.0727C178.62 35.0727 178.628 35.1946 178.628 35.3032C178.628 35.4776 178.682 35.7657 178.756 36.0038C179.055 37.0183 179.87 37.3885 180.719 37.3885C181.95 37.3885 182.558 36.5463 182.558 35.8174C182.558 35.1463 182.352 34.5196 181.211 33.6265L180.58 33.1298C179.071 31.952 178.552 30.9868 178.552 29.88C178.552 28.3671 179.813 27.2812 181.721 27.2812C182.613 27.2812 183.194 27.4223 183.547 27.5189C183.671 27.5506 183.74 27.5861 183.74 27.6827C183.74 27.8605 183.687 28.2551 183.687 29.3294C183.687 29.6333 183.643 29.7415 183.531 29.7415C183.438 29.7415 183.392 29.659 183.392 29.4969C183.392 29.3708 183.327 28.9438 183.04 28.5881C182.832 28.3312 182.433 27.9169 181.538 27.9169C180.527 27.9169 179.91 28.5069 179.91 29.3294C179.91 29.9633 180.227 30.4379 181.367 31.3095L181.747 31.5959C183.41 32.8438 184 33.7903 184 35.0971C184 35.8893 183.695 36.8421 182.709 37.4834C182.02 37.9198 181.252 38.0498 180.527 38.0498C179.73 38.0498 179.112 37.9502 178.524 37.692Z" fill="#1A1919"/>
<path fill-rule="evenodd" clip-rule="evenodd" d="M80.6552 53.7382C80.6552 51.655 80.6552 51.2707 80.6308 50.8287C80.603 50.3602 80.4671 50.1293 80.1623 50.0605C80.0144 50.0169 79.8284 50.0113 79.6655 50.0113C79.5317 50.0113 79.4492 49.9797 79.4492 49.8634C79.4492 49.7877 79.5612 49.7578 79.7741 49.7578C80.2986 49.7578 81.1635 49.7967 81.5602 49.7967C81.9052 49.7967 82.7161 49.7578 83.2385 49.7578C83.4151 49.7578 83.5228 49.7877 83.5228 49.8634C83.5228 49.9797 83.4407 50.0113 83.3022 50.0113C83.171 50.0113 83.0585 50.0169 82.8897 50.0468C82.522 50.1156 82.4135 50.3478 82.3891 50.8287C82.3575 51.2707 82.3575 51.655 82.3575 53.7382V56.1523C82.3575 57.4852 82.3575 58.5702 82.4135 59.1639C82.4575 59.5333 82.5515 59.777 82.9581 59.83C83.1543 59.8595 83.4548 59.8894 83.6634 59.8894C83.8135 59.8894 83.8798 59.93 83.8798 60.0001C83.8798 60.0937 83.7733 60.1344 83.6194 60.1344C82.7161 60.1344 81.8492 60.0937 81.4781 60.0937C81.1635 60.0937 80.2986 60.1344 79.7536 60.1344C79.5775 60.1344 79.474 60.0937 79.474 60.0001C79.474 59.93 79.5317 59.8894 79.6963 59.8894C79.9028 59.8894 80.0687 59.8595 80.1948 59.83C80.4671 59.777 80.5466 59.5495 80.5915 59.1481C80.6552 58.5702 80.6552 57.4852 80.6552 56.1523V53.7382Z" fill="#1A1919"/>
<path fill-rule="evenodd" clip-rule="evenodd" d="M89.7839 58.2708C89.8121 59.34 89.9887 59.6973 90.2648 59.7927C90.4974 59.8735 90.7582 59.8893 90.9779 59.8893C91.1322 59.8893 91.21 59.9158 91.21 60C91.21 60.106 91.0899 60.1342 90.8975 60.1342C90.0045 60.1342 89.4496 60.0936 89.1935 60.0936C89.0713 60.0936 88.427 60.1342 87.7097 60.1342C87.5357 60.1342 87.4092 60.1236 87.4092 60C87.4092 59.9158 87.4891 59.8893 87.6251 59.8893C87.8059 59.8893 88.0538 59.8735 88.2462 59.8226C88.6066 59.7115 88.657 59.3083 88.6711 58.1195L88.7994 49.9903C88.7994 49.7154 88.8349 49.5234 88.9751 49.5234C89.123 49.5234 89.2474 49.7034 89.4838 49.9475C89.6441 50.1292 91.7354 52.3658 93.7378 54.3562C94.6731 55.2912 96.5221 57.2688 96.7533 57.4851H96.8286L96.6896 51.3215C96.6738 50.4814 96.5468 50.2245 96.2207 50.0852C96.0185 50.0112 95.6846 50.0112 95.4965 50.0112C95.3315 50.0112 95.2716 49.9655 95.2716 49.8808C95.2716 49.7684 95.4281 49.7577 95.6329 49.7577C96.3476 49.7577 97.0064 49.7966 97.2941 49.7966C97.4463 49.7966 97.9653 49.7577 98.636 49.7577C98.8151 49.7577 98.9549 49.7684 98.9549 49.8808C98.9549 49.9655 98.872 50.0112 98.704 50.0112C98.568 50.0112 98.462 50.0112 98.2923 50.0467C97.9071 50.1595 97.8015 50.4451 97.7874 51.2142L97.6352 59.8735C97.6352 60.1749 97.5788 60.3052 97.4548 60.3052C97.3056 60.3052 97.1402 60.1466 96.9906 60C96.1275 59.1728 94.3683 57.3761 92.9405 55.9623C91.4426 54.4772 89.9203 52.7638 89.6723 52.5035H89.6364L89.7839 58.2708Z" fill="#1A1919"/>
<path fill-rule="evenodd" clip-rule="evenodd" d="M103.413 59.9751C103.191 59.8742 103.154 59.8058 103.154 59.5061C103.154 58.7524 103.206 57.9278 103.218 57.7064C103.234 57.5037 103.274 57.3507 103.383 57.3507C103.506 57.3507 103.523 57.4738 103.523 57.5867C103.523 57.7589 103.577 58.0479 103.647 58.2805C103.947 59.2971 104.757 59.6703 105.61 59.6703C106.839 59.6703 107.448 58.8337 107.448 58.1044C107.448 57.4353 107.239 56.8031 106.103 55.9066L105.469 55.4154C103.959 54.23 103.439 53.2741 103.439 52.1622C103.439 50.6497 104.698 49.5703 106.607 49.5703C107.501 49.5703 108.077 49.7041 108.435 49.7973C108.56 49.8289 108.627 49.864 108.627 49.9662C108.627 50.1479 108.574 50.542 108.574 51.6095C108.574 51.9121 108.533 52.0233 108.421 52.0233C108.325 52.0233 108.281 51.9438 108.281 51.7749C108.281 51.6556 108.215 51.2294 107.929 50.875C107.72 50.6087 107.32 50.2004 106.432 50.2004C105.416 50.2004 104.801 50.7904 104.801 51.6095C104.801 52.2434 105.117 52.7205 106.254 53.5887L106.638 53.876C108.297 55.123 108.885 56.0738 108.885 57.3768C108.885 58.171 108.582 59.1205 107.596 59.7618C106.915 60.2016 106.142 60.3307 105.416 60.3307C104.62 60.3307 103.999 60.2299 103.413 59.9751Z" fill="#1A1919"/>
<path fill-rule="evenodd" clip-rule="evenodd" d="M116.132 50.53L114.088 50.5809C113.287 50.6087 112.966 50.6762 112.758 50.9806C112.621 51.1884 112.546 51.3504 112.521 51.4581C112.496 51.5706 112.455 51.6248 112.373 51.6248C112.278 51.6248 112.248 51.5582 112.248 51.4068C112.248 51.1884 112.507 49.9401 112.543 49.8289C112.582 49.6443 112.621 49.5703 112.699 49.5703C112.811 49.5703 112.951 49.7041 113.287 49.7289C113.689 49.7691 114.209 49.7973 114.662 49.7973H120.102C120.538 49.7973 120.839 49.7584 121.045 49.7289C121.252 49.6879 121.362 49.6652 121.419 49.6652C121.516 49.6652 121.527 49.7443 121.527 49.9482C121.527 50.2393 121.486 51.1884 121.486 51.5428C121.473 51.6834 121.447 51.7629 121.362 51.7629C121.252 51.7629 121.222 51.6907 121.207 51.4936L121.202 51.3367C121.171 50.9806 120.801 50.5984 119.58 50.5706L117.85 50.53V56.1529C117.85 57.4174 117.85 58.5002 117.923 59.0906C117.958 59.4779 118.042 59.7776 118.452 59.8306C118.645 59.8601 118.947 59.89 119.152 59.89C119.303 59.89 119.372 59.9306 119.372 60.0007C119.372 60.0943 119.261 60.135 119.112 60.135C118.207 60.135 117.345 60.0943 116.961 60.0943C116.641 60.0943 115.772 60.135 115.228 60.135C115.05 60.135 114.949 60.0943 114.949 60.0007C114.949 59.9306 115.009 59.89 115.17 59.89C115.383 59.89 115.547 59.8601 115.666 59.8306C115.945 59.7776 116.023 59.4779 116.063 59.082C116.132 58.5002 116.132 57.4174 116.132 56.1529V50.53Z" fill="#1A1919"/>
<path fill-rule="evenodd" clip-rule="evenodd" d="M126.21 53.7382C126.21 51.655 126.21 51.2707 126.182 50.8287C126.154 50.3602 126.013 50.1293 125.716 50.0605C125.565 50.0169 125.387 50.0113 125.216 50.0113C125.081 50.0113 124.998 49.9797 124.998 49.8634C124.998 49.7877 125.108 49.7578 125.324 49.7578C125.85 49.7578 126.719 49.7967 127.115 49.7967C127.457 49.7967 128.267 49.7578 128.789 49.7578C128.966 49.7578 129.075 49.7877 129.075 49.8634C129.075 49.9797 128.992 50.0113 128.857 50.0113C128.721 50.0113 128.614 50.0169 128.447 50.0468C128.077 50.1156 127.961 50.3478 127.94 50.8287C127.91 51.2707 127.91 51.655 127.91 53.7382V56.1523C127.91 57.4852 127.91 58.5702 127.961 59.1639C128.008 59.5333 128.1 59.777 128.517 59.83C128.703 59.8595 129.008 59.8894 129.218 59.8894C129.367 59.8894 129.434 59.93 129.434 60.0001C129.434 60.0937 129.318 60.1344 129.169 60.1344C128.267 60.1344 127.401 60.0937 127.029 60.0937C126.719 60.0937 125.85 60.1344 125.3 60.1344C125.121 60.1344 125.025 60.0937 125.025 60.0001C125.025 59.93 125.081 59.8894 125.246 59.8894C125.452 59.8894 125.617 59.8595 125.737 59.83C126.013 59.777 126.095 59.5495 126.136 59.1481C126.21 58.5702 126.21 57.4852 126.21 56.1523V53.7382Z" fill="#1A1919"/>
<path fill-rule="evenodd" clip-rule="evenodd" d="M136.388 50.53L134.347 50.5809C133.551 50.6087 133.22 50.6762 133.011 50.9806C132.876 51.1884 132.805 51.3504 132.783 51.4581C132.75 51.5706 132.71 51.6248 132.631 51.6248C132.53 51.6248 132.509 51.5582 132.509 51.4068C132.509 51.1884 132.766 49.9401 132.794 49.8289C132.837 49.6443 132.876 49.5703 132.96 49.5703C133.069 49.5703 133.207 49.7041 133.551 49.7289C133.95 49.7691 134.469 49.7973 134.921 49.7973H140.357C140.797 49.7973 141.098 49.7584 141.31 49.7289C141.51 49.6879 141.623 49.6652 141.674 49.6652C141.77 49.6652 141.787 49.7443 141.787 49.9482C141.787 50.2393 141.742 51.1884 141.742 51.5428C141.731 51.6834 141.703 51.7629 141.623 51.7629C141.51 51.7629 141.484 51.6907 141.468 51.4936L141.459 51.3367C141.431 50.9806 141.056 50.5984 139.84 50.5706L138.106 50.53V56.1529C138.106 57.4174 138.106 58.5002 138.174 59.0906C138.215 59.4779 138.297 59.7776 138.71 59.8306C138.904 59.8601 139.203 59.89 139.407 59.89C139.564 59.89 139.633 59.9306 139.633 60.0007C139.633 60.0943 139.521 60.135 139.367 60.135C138.465 60.135 137.598 60.0943 137.21 60.0943C136.9 60.0943 136.035 60.135 135.482 60.135C135.304 60.135 135.206 60.0943 135.206 60.0007C135.206 59.9306 135.266 59.89 135.428 59.89C135.635 59.89 135.799 59.8601 135.918 59.8306C136.198 59.7776 136.279 59.4779 136.324 59.082C136.388 58.5002 136.388 57.4174 136.388 56.1529V50.53Z" fill="#1A1919"/>
<path fill-rule="evenodd" clip-rule="evenodd" d="M145.873 53.7382C145.873 51.655 145.873 51.2707 145.843 50.8287C145.816 50.3602 145.709 50.1473 145.256 50.0468C145.141 50.0169 144.914 50.0113 144.723 50.0113C144.574 50.0113 144.488 49.9797 144.488 49.8809C144.488 49.7877 144.582 49.7578 144.791 49.7578C145.515 49.7578 146.381 49.7967 146.793 49.7967C147.122 49.7967 147.983 49.7578 148.482 49.7578C148.688 49.7578 148.784 49.7877 148.784 49.8809C148.784 49.9797 148.7 50.0113 148.563 50.0113C148.416 50.0113 148.327 50.0169 148.163 50.0468C147.798 50.1156 147.683 50.3478 147.658 50.8287C147.63 51.2707 147.63 51.655 147.63 53.7382V55.6594C147.63 57.6515 148.028 58.4915 148.7 59.037C149.317 59.5495 149.949 59.6008 150.418 59.6008C151.019 59.6008 151.756 59.4089 152.311 58.8591C153.066 58.1038 153.104 56.8713 153.104 55.455V53.7382C153.104 51.655 153.104 51.2707 153.077 50.8287C153.057 50.3602 152.945 50.1473 152.489 50.0468C152.381 50.0169 152.146 50.0113 152.001 50.0113C151.84 50.0113 151.756 49.9797 151.756 49.8809C151.756 49.7877 151.856 49.7578 152.046 49.7578C152.753 49.7578 153.615 49.7967 153.627 49.7967C153.795 49.7967 154.66 49.7578 155.197 49.7578C155.385 49.7578 155.481 49.7877 155.481 49.8809C155.481 49.9797 155.401 50.0113 155.237 50.0113C155.082 50.0113 155.004 50.0169 154.836 50.0468C154.463 50.1156 154.355 50.3478 154.327 50.8287C154.299 51.2707 154.299 51.655 154.299 53.7382V55.2045C154.299 56.7302 154.147 58.3504 152.996 59.3401C152.024 60.175 151.036 60.3301 150.14 60.3301C149.413 60.3301 148.095 60.2891 147.095 59.3875C146.396 58.7518 145.873 57.7336 145.873 55.7419V53.7382Z" fill="#1A1919"/>
<path fill-rule="evenodd" clip-rule="evenodd" d="M162.135 50.53L160.091 50.5809C159.294 50.6087 158.967 50.6762 158.762 50.9806C158.625 51.1884 158.557 51.3504 158.525 51.4581C158.501 51.5706 158.457 51.6248 158.375 51.6248C158.281 51.6248 158.251 51.5582 158.251 51.4068C158.251 51.1884 158.51 49.9401 158.537 49.8289C158.581 49.6443 158.625 49.5703 158.705 49.5703C158.814 49.5703 158.95 49.7041 159.294 49.7289C159.691 49.7691 160.215 49.7973 160.668 49.7973H166.104C166.545 49.7973 166.841 49.7584 167.053 49.7289C167.257 49.6879 167.366 49.6652 167.427 49.6652C167.517 49.6652 167.534 49.7443 167.534 49.9482C167.534 50.2393 167.49 51.1884 167.49 51.5428C167.474 51.6834 167.449 51.7629 167.366 51.7629C167.257 51.7629 167.225 51.6907 167.218 51.4936L167.205 51.3367C167.173 50.9806 166.805 50.5984 165.587 50.5706L163.853 50.53V56.1529C163.853 57.4174 163.853 58.5002 163.921 59.0906C163.965 59.4779 164.049 59.7776 164.453 59.8306C164.654 59.8601 164.947 59.89 165.155 59.89C165.31 59.89 165.378 59.9306 165.378 60.0007C165.378 60.0943 165.265 60.135 165.117 60.135C164.205 60.135 163.344 60.0943 162.964 60.0943C162.647 60.0943 161.778 60.135 161.229 60.135C161.053 60.135 160.957 60.0943 160.957 60.0007C160.957 59.9306 161.008 59.89 161.177 59.89C161.382 59.89 161.546 59.8601 161.668 59.8306C161.946 59.7776 162.024 59.4779 162.071 59.082C162.135 58.5002 162.135 57.4174 162.135 56.1529V50.53Z" fill="#1A1919"/>
<path fill-rule="evenodd" clip-rule="evenodd" d="M172.207 53.7391C172.207 51.6559 172.207 51.2716 172.183 50.8295C172.155 50.361 172.049 50.1481 171.594 50.0477C171.483 50.0177 171.25 50.0122 171.055 50.0122C170.906 50.0122 170.821 49.9805 170.821 49.8818C170.821 49.7886 170.918 49.7587 171.127 49.7587C171.498 49.7587 171.891 49.7694 172.243 49.7694C172.596 49.7886 172.908 49.7976 173.1 49.7976C173.542 49.7976 176.277 49.7976 176.533 49.7886C176.793 49.7587 177.016 49.7292 177.126 49.7044C177.196 49.6881 177.274 49.6445 177.344 49.6445C177.412 49.6445 177.427 49.7044 177.427 49.7694C177.427 49.8643 177.355 50.0318 177.319 50.662C177.302 50.7996 177.274 51.4071 177.242 51.5708C177.235 51.6426 177.204 51.7187 177.11 51.7187C177.016 51.7187 176.986 51.6559 176.986 51.5306C176.986 51.4336 176.978 51.2027 176.901 51.0356C176.805 50.7906 176.674 50.6218 175.98 50.5423C175.752 50.5128 174.314 50.4824 174.035 50.4824C173.966 50.4824 173.938 50.5303 173.938 50.6218V54.0947C173.938 54.1952 173.954 54.2461 174.035 54.2461C174.338 54.2461 175.919 54.2461 176.232 54.22C176.557 54.1952 176.761 54.1542 176.889 54.0156C176.986 53.9062 177.043 53.8374 177.11 53.8374C177.164 53.8374 177.204 53.8622 177.204 53.943C177.204 54.0263 177.149 54.2461 177.094 54.9437C177.078 55.2199 177.043 55.7726 177.043 55.8658C177.043 55.9774 177.043 56.1339 176.916 56.1339C176.822 56.1339 176.793 56.074 176.793 56.0052C176.778 55.8658 176.778 55.6884 176.737 55.5106C176.674 55.2361 176.477 55.028 175.974 54.9805C175.713 54.9437 174.346 54.933 174.018 54.933C173.954 54.933 173.938 54.9891 173.938 55.072V56.1531C173.938 56.6216 173.926 57.8845 173.938 58.2807C173.966 59.2315 174.19 59.4324 175.583 59.4324C175.943 59.4324 176.519 59.4324 176.878 59.2704C177.235 59.1045 177.399 58.8194 177.495 58.2521C177.519 58.1046 177.546 58.0482 177.647 58.0482C177.756 58.0482 177.756 58.1576 177.756 58.2966C177.756 58.6133 177.647 59.5504 177.576 59.8236C177.478 60.1758 177.355 60.1758 176.833 60.1758C175.804 60.1758 175.047 60.1476 174.462 60.1352C173.871 60.107 173.445 60.0946 173.032 60.0946C172.881 60.0946 172.58 60.0946 172.248 60.107C171.934 60.107 171.575 60.1352 171.304 60.1352C171.127 60.1352 171.032 60.0946 171.032 60.001C171.032 59.9309 171.082 59.8903 171.25 59.8903C171.454 59.8903 171.622 59.8603 171.743 59.8308C172.02 59.7778 172.089 59.4782 172.14 59.0823C172.207 58.5005 172.207 57.4176 172.207 56.1531V53.7391Z" fill="#1A1919"/>
</svg>
