<svg width="185" height="65" viewBox="0 0 185 65" fill="none" xmlns="http://www.w3.org/2000/svg">
<path fill-rule="evenodd" clip-rule="evenodd" d="M18.9465 5.68359L15.3564 9.27368L18.7383 12.6556L22.3284 9.06549L18.9465 5.68359Z" fill="#212629"/>
<path fill-rule="evenodd" clip-rule="evenodd" d="M42.9512 36.8674L55.9286 49.8444L59.5187 46.2548L46.5413 33.2773L42.9512 36.8674Z" fill="#212629"/>
<path fill-rule="evenodd" clip-rule="evenodd" d="M14.8887 18.2989L18.4783 21.8886L32.8126 7.55475L37.919 12.6616L41.5091 9.07149L32.8126 0.375L14.8887 18.2989Z" fill="#212629"/>
<path fill-rule="evenodd" clip-rule="evenodd" d="M52.5391 18.3041L56.1287 21.8942L59.5192 18.5042L55.9291 14.9141L52.5391 18.3041Z" fill="#212629"/>
<path fill-rule="evenodd" clip-rule="evenodd" d="M15.3564 55.4883L18.9461 59.0784L31.9231 46.1018L28.333 42.5117L15.3564 55.4883Z" fill="#212629"/>
<path fill-rule="evenodd" clip-rule="evenodd" d="M33.7168 37.1279L37.3069 40.7176L50.7434 27.2811L47.1533 23.6914L33.7168 37.1279Z" fill="#212629"/>
<path fill-rule="evenodd" clip-rule="evenodd" d="M43.3047 18.0467L57.6454 32.3878L52.5458 37.4878L56.1359 41.0775L64.8256 32.3878L46.8943 14.457L43.3047 18.0467Z" fill="#212629"/>
<path fill-rule="evenodd" clip-rule="evenodd" d="M6.12207 46.2535L9.71173 49.8436L13.0868 46.4686L9.4967 42.8789L6.12207 46.2535Z" fill="#212629"/>
<path fill-rule="evenodd" clip-rule="evenodd" d="M33.7168 18.6571L37.3069 22.2468L50.2843 9.26978L46.6942 5.67969L33.7168 18.6571Z" fill="#212629"/>
<path fill-rule="evenodd" clip-rule="evenodd" d="M0.799805 32.3882L18.7306 50.319L22.3207 46.7289L7.97955 32.3882L13.0941 27.2737L9.50399 23.6836L0.799805 32.3882Z" fill="#212629"/>
<path fill-rule="evenodd" clip-rule="evenodd" d="M24.123 18.0393L37.5664 31.4827L41.1561 27.893L27.7127 14.4492L24.123 18.0393Z" fill="#212629"/>
<path fill-rule="evenodd" clip-rule="evenodd" d="M43.3115 55.6956L46.6947 59.0783L50.2848 55.4886L46.9016 52.1055L43.3115 55.6956Z" fill="#212629"/>
<path fill-rule="evenodd" clip-rule="evenodd" d="M6.12207 18.5076L19.0982 31.4838L22.6883 27.8941L9.71216 14.918L6.12207 18.5076Z" fill="#212629"/>
<mask id="mask0_3854_7215" style="mask-type:luminance" maskUnits="userSpaceOnUse" x="24" y="33" width="27" height="32">
<path fill-rule="evenodd" clip-rule="evenodd" d="M24.1152 33.2773H50.7502V64.3745H24.1152V33.2773Z" fill="white"/>
</mask>
<g mask="url(#mask0_3854_7215)">
<path fill-rule="evenodd" clip-rule="evenodd" d="M24.4824 36.8674L37.9258 50.3108L41.5155 46.7207L28.0721 33.2773L24.4824 36.8674Z" fill="#212629"/>
<path fill-rule="evenodd" clip-rule="evenodd" d="M32.8117 57.2199L27.7049 52.1131L24.1152 55.7027L32.8117 64.3996L50.7502 46.4612L47.1605 42.8711L32.8117 57.2199Z" fill="#212629"/>
</g>
<path fill-rule="evenodd" clip-rule="evenodd" d="M14.8809 37.494L18.4705 41.0841L31.922 27.6331L28.3319 24.043L14.8809 37.494Z" fill="#212629"/>
<path fill-rule="evenodd" clip-rule="evenodd" d="M80.2321 6.24778C80.0739 5.74291 79.9196 5.41203 79.7251 5.27994C79.5768 5.17777 79.3006 5.15596 79.1805 5.15596C79.0403 5.15596 78.9561 5.14186 78.9561 5.02985C78.9561 4.93367 79.0723 4.91016 79.2579 4.91016C79.9756 4.91016 80.7284 4.9435 80.855 4.9435C80.9794 4.9435 81.5834 4.91016 82.3786 4.91016C82.5654 4.91016 82.6654 4.9435 82.6654 5.02985C82.6654 5.14186 82.553 5.15596 82.417 5.15596C82.3085 5.15596 82.1725 5.15596 82.0768 5.20598C81.9519 5.26412 81.9241 5.35774 81.9241 5.50608C81.9241 5.69033 82.0605 6.15544 82.2285 6.76804C82.4594 7.67775 83.735 11.8411 83.9829 12.6076H84.0231L86.6847 5.45606C86.8224 5.06662 86.9147 4.96103 87.031 4.96103C87.181 4.96103 87.2477 5.17007 87.4315 5.61082L90.2833 12.5093H90.3231C90.5676 11.5897 91.6693 7.96545 92.1541 6.3615C92.2421 6.04686 92.2857 5.75873 92.2857 5.56166C92.2857 5.34577 92.1643 5.15596 91.627 5.15596C91.4931 5.15596 91.397 5.1098 91.397 5.02985C91.397 4.93367 91.5013 4.91016 91.7133 4.91016C92.4379 4.91016 93.0137 4.9435 93.1373 4.9435C93.2313 4.9435 93.8238 4.91016 94.2766 4.91016C94.4253 4.91016 94.5232 4.93367 94.5232 5.01746C94.5232 5.1098 94.4599 5.15596 94.3347 5.15596C94.1949 5.15596 94.0042 5.17007 93.8525 5.2218C93.5203 5.34577 93.375 5.89254 93.0791 6.67998C92.4546 8.40748 91.0126 12.7718 90.3398 14.8306C90.1876 15.3111 90.1192 15.4765 89.9392 15.4765C89.799 15.4765 89.7212 15.3111 89.5147 14.7985L86.6608 7.92484H86.6308C86.3722 8.62593 84.5438 13.4848 83.9547 14.7442C83.6901 15.3111 83.6264 15.4765 83.4618 15.4765C83.3225 15.4765 83.2703 15.3269 83.1459 14.9669L80.2321 6.24778Z" fill="#212629"/>
<path fill-rule="evenodd" clip-rule="evenodd" d="M106.297 10.3552C106.297 7.27893 104.527 5.36974 102.275 5.36974C100.698 5.36974 98.8969 6.2461 98.8969 9.6669C98.8969 12.5234 100.482 14.7891 103.116 14.7891C104.079 14.7891 106.297 14.3232 106.297 10.3552ZM97.0059 10.0948C97.0059 7.74534 98.5542 4.71484 102.676 4.71484C106.093 4.71484 108.222 6.69927 108.222 9.84647C108.222 12.9911 106.02 15.4748 102.539 15.4748C98.5978 15.4748 97.0059 12.5234 97.0059 10.0948Z" fill="#212629"/>
<path fill-rule="evenodd" clip-rule="evenodd" d="M114.861 9.97212C114.861 10.1247 114.889 10.1752 114.984 10.2209C115.267 10.3167 115.686 10.3569 116.028 10.3569C116.573 10.3569 116.753 10.2992 117.004 10.1247C117.415 9.81993 117.812 9.1851 117.812 8.05695C117.812 6.11314 116.527 5.55312 115.71 5.55312C115.368 5.55312 115.121 5.56167 114.984 5.61083C114.889 5.63648 114.861 5.69035 114.861 5.79936V9.97212ZM113.243 8.88841C113.243 6.8031 113.243 6.41408 113.216 5.97889C113.188 5.50608 113.078 5.28977 112.627 5.19187C112.512 5.17007 112.286 5.15596 112.089 5.15596C111.938 5.15596 111.853 5.12305 111.853 5.02985C111.853 4.93367 111.951 4.91016 112.153 4.91016C112.887 4.91016 113.751 4.9435 114.04 4.9435C114.504 4.9435 115.547 4.91016 115.971 4.91016C116.838 4.91016 117.761 4.99309 118.498 5.49668C118.886 5.75873 119.432 6.46153 119.432 7.37722C119.432 8.39465 119.007 9.32018 117.621 10.447C118.842 11.9886 119.789 13.2121 120.598 14.0598C121.366 14.8549 121.929 14.9503 122.139 14.996C122.286 15.0246 122.414 15.0353 122.519 15.0353C122.632 15.0353 122.686 15.0836 122.686 15.149C122.686 15.2512 122.592 15.2829 122.423 15.2829H121.121C120.351 15.2829 120.007 15.2115 119.656 15.0246C119.063 14.707 118.538 14.0598 117.773 13.006C117.224 12.2468 116.596 11.3179 116.411 11.1054C116.348 11.0314 116.263 11.0156 116.167 11.0156L114.972 10.984C114.906 10.984 114.861 11.0156 114.861 11.0934V11.2905C114.861 12.5653 114.861 13.6485 114.93 14.2265C114.972 14.6224 115.049 14.9289 115.468 14.9789C115.674 15.0118 115.971 15.0353 116.135 15.0353C116.247 15.0353 116.307 15.0836 116.307 15.149C116.307 15.2435 116.21 15.2829 116.028 15.2829C115.233 15.2829 114.217 15.2435 114.013 15.2435C113.751 15.2435 112.887 15.2829 112.337 15.2829C112.153 15.2829 112.062 15.2435 112.062 15.149C112.062 15.0836 112.116 15.0353 112.286 15.0353C112.489 15.0353 112.652 15.0118 112.775 14.9789C113.049 14.9289 113.119 14.6224 113.173 14.2265C113.243 13.6485 113.243 12.5653 113.243 11.3046V8.88841Z" fill="#212629"/>
<path fill-rule="evenodd" clip-rule="evenodd" d="M127.474 11.3046C127.474 13.0569 127.474 14.0059 127.762 14.2526C127.995 14.4621 128.355 14.5591 129.421 14.5591C130.15 14.5591 130.687 14.5407 131.029 14.1701C131.199 13.9935 131.359 13.6054 131.383 13.351C131.399 13.2258 131.423 13.1407 131.533 13.1407C131.636 13.1407 131.648 13.2121 131.648 13.3724C131.648 13.5288 131.55 14.5591 131.441 14.9503C131.359 15.2512 131.287 15.3269 130.574 15.3269C129.589 15.3269 128.877 15.2952 128.257 15.2829C127.638 15.2512 127.145 15.2435 126.58 15.2435C126.433 15.2435 126.123 15.2435 125.798 15.2512C125.484 15.2512 125.129 15.2829 124.856 15.2829C124.676 15.2829 124.576 15.2435 124.576 15.149C124.576 15.0836 124.638 15.0353 124.795 15.0353C125.005 15.0353 125.167 15.0118 125.292 14.9789C125.572 14.9289 125.636 14.6224 125.688 14.2265C125.758 13.6485 125.758 12.5653 125.758 11.3046V8.88841C125.758 6.8031 125.758 6.41408 125.731 5.97889C125.704 5.50608 125.591 5.28977 125.142 5.19187C125.035 5.17007 124.863 5.15596 124.687 5.15596C124.536 5.15596 124.454 5.12305 124.454 5.02985C124.454 4.93367 124.552 4.91016 124.754 4.91016C125.402 4.91016 126.265 4.9435 126.637 4.9435C126.966 4.9435 127.97 4.91016 128.503 4.91016C128.696 4.91016 128.794 4.93367 128.794 5.02985C128.794 5.12305 128.71 5.15596 128.544 5.15596C128.396 5.15596 128.179 5.17007 128.009 5.19187C127.638 5.26412 127.525 5.49668 127.502 5.97889C127.474 6.41408 127.474 6.8031 127.474 8.88841V11.3046Z" fill="#212629"/>
<path fill-rule="evenodd" clip-rule="evenodd" d="M137.932 10.3979C137.932 11.8488 137.941 12.9064 137.96 13.1715C137.972 13.513 138.004 14.0598 138.113 14.2141C138.289 14.4728 138.825 14.7596 139.907 14.7596C141.309 14.7596 142.244 14.486 143.063 13.7721C143.949 13.0146 144.217 11.7689 144.217 10.3569C144.217 8.61483 143.49 7.48496 142.903 6.92153C141.637 5.71472 140.073 5.55312 139.002 5.55312C138.727 5.55312 138.221 5.58989 138.113 5.64632C137.989 5.70275 137.941 5.77029 137.941 5.91906C137.932 6.39144 137.932 7.585 137.932 8.67126V10.3979ZM136.218 8.88841C136.218 6.8031 136.218 6.41408 136.186 5.97889C136.158 5.50608 136.049 5.28977 135.597 5.19187C135.489 5.17007 135.254 5.15596 135.064 5.15596C134.908 5.15596 134.826 5.12305 134.826 5.02985C134.826 4.93367 134.927 4.91016 135.129 4.91016C135.857 4.91016 136.718 4.9435 137.106 4.9435C137.531 4.9435 138.397 4.91016 139.223 4.91016C140.938 4.91016 143.231 4.91016 144.728 6.47051C145.415 7.18656 146.056 8.32668 146.056 9.95543C146.056 11.6868 145.331 13.006 144.561 13.7896C143.928 14.4326 142.503 15.4077 139.965 15.4077C139.471 15.4077 138.905 15.3658 138.385 15.3269C137.862 15.2828 137.379 15.2435 137.043 15.2435C136.889 15.2435 136.586 15.2435 136.254 15.2512C135.94 15.2512 135.585 15.2828 135.307 15.2828C135.129 15.2828 135.038 15.2435 135.038 15.149C135.038 15.0836 135.093 15.0353 135.254 15.0353C135.461 15.0353 135.629 15.0118 135.75 14.9789C136.025 14.9289 136.094 14.6224 136.149 14.2265C136.218 13.6485 136.218 12.5653 136.218 11.3046V8.88841Z" fill="#212629"/>
<path fill-rule="evenodd" clip-rule="evenodd" d="M83.0785 32.2473C83.0785 32.4016 83.1068 32.458 83.1987 32.4978C83.4868 32.5931 83.9036 32.6337 84.2418 32.6337C84.7945 32.6337 84.9728 32.5773 85.2177 32.4016C85.6337 32.0964 86.0248 31.4697 86.0248 30.3428C86.0248 28.3921 84.7385 27.8313 83.9297 27.8313C83.5868 27.8313 83.3368 27.8437 83.1987 27.8843C83.1068 27.9142 83.0785 27.9634 83.0785 28.0754V32.2473ZM81.4559 31.1673C81.4559 29.079 81.4559 28.6922 81.4315 28.2557C81.4037 27.791 81.2956 27.5687 80.8347 27.4747C80.7287 27.4464 80.497 27.4353 80.3063 27.4353C80.158 27.4353 80.0742 27.4071 80.0742 27.3045C80.0742 27.2105 80.1661 27.1797 80.3782 27.1797C81.0993 27.1797 81.9642 27.2271 82.2549 27.2271C82.7174 27.2271 83.7588 27.1797 84.1914 27.1797C85.0502 27.1797 85.9762 27.2703 86.7166 27.7795C87.0975 28.0394 87.6507 28.7383 87.6507 29.6574C87.6507 30.6693 87.2198 31.6051 85.836 32.7324C87.0573 34.268 88.0046 35.4906 88.8139 36.3426C89.5808 37.136 90.1438 37.2356 90.3499 37.2724C90.5046 37.2997 90.6243 37.3203 90.7363 37.3203C90.8406 37.3203 90.9009 37.3536 90.9009 37.4237C90.9009 37.5366 90.8043 37.5605 90.641 37.5605H89.3346C88.5612 37.5605 88.2248 37.4942 87.8644 37.2997C87.2758 36.9838 86.7547 36.3426 85.986 35.2832C85.4375 34.5321 84.8083 33.5955 84.6283 33.3929C84.5603 33.3061 84.4736 33.2954 84.3757 33.2954L83.1898 33.268C83.1201 33.268 83.0782 33.2954 83.0782 33.3753V33.5711C83.0782 34.8451 83.0782 35.9266 83.1462 36.505C83.1898 36.9009 83.2706 37.2053 83.6814 37.26C83.8875 37.2886 84.1914 37.3203 84.3517 37.3203C84.4641 37.3203 84.5201 37.3536 84.5201 37.4237C84.5201 37.5182 84.4201 37.5605 84.2414 37.5605C83.4467 37.5605 82.4331 37.5182 82.2288 37.5182C81.9642 37.5182 81.0993 37.5605 80.5543 37.5605C80.3782 37.5605 80.2747 37.5182 80.2747 37.4237C80.2747 37.3536 80.3324 37.3203 80.497 37.3203C80.7035 37.3203 80.8694 37.2886 80.9955 37.26C81.2678 37.2053 81.3375 36.9009 81.3922 36.505C81.4559 35.9266 81.4559 34.8451 81.4559 33.5793V31.1673Z" fill="#212629"/>
<path fill-rule="evenodd" clip-rule="evenodd" d="M93.9721 31.1675C93.9721 29.0792 93.9721 28.6923 93.9464 28.2558C93.9208 27.7911 93.8079 27.5688 93.3556 27.4748C93.2453 27.4466 93.0068 27.4355 92.8238 27.4355C92.6703 27.4355 92.584 27.4072 92.584 27.3046C92.584 27.2106 92.6827 27.1798 92.8888 27.1798C93.2594 27.1798 93.6604 27.1965 94.0041 27.1965C94.3564 27.2106 94.6736 27.2273 94.8659 27.2273C95.3067 27.2273 98.0345 27.2273 98.2987 27.2106C98.5544 27.1798 98.7749 27.1567 98.8869 27.1306C98.9545 27.1183 99.0396 27.0742 99.1037 27.0742C99.1712 27.0742 99.1879 27.1306 99.1879 27.1965C99.1879 27.2944 99.1233 27.4607 99.0755 28.0921C99.0669 28.228 99.0396 28.8372 99.0109 28.9945C98.9981 29.0651 98.9665 29.1454 98.8711 29.1454C98.7749 29.1454 98.7489 29.0792 98.7489 28.9569C98.7489 28.8607 98.739 28.6239 98.6702 28.4636C98.5697 28.2152 98.4347 28.048 97.746 27.9634C97.5134 27.9369 96.071 27.9142 95.7983 27.9142C95.7282 27.9142 95.703 27.951 95.703 28.048V31.524C95.703 31.6185 95.7188 31.6723 95.7983 31.6723C96.0993 31.6723 97.6814 31.6723 97.9939 31.6441C98.3269 31.6185 98.5304 31.5779 98.6505 31.4398C98.7489 31.3291 98.8027 31.2602 98.8711 31.2602C98.9297 31.2602 98.9665 31.2884 98.9665 31.3722C98.9665 31.4539 98.9156 31.6723 98.8592 32.3734C98.8485 32.6457 98.8027 33.1968 98.8027 33.2955C98.8027 33.4024 98.8027 33.5516 98.6783 33.5516C98.5821 33.5516 98.5544 33.4986 98.5544 33.4315C98.5471 33.2955 98.5471 33.1181 98.5026 32.9343C98.4347 32.6624 98.2457 32.4581 97.7336 32.4016C97.4732 32.3734 96.1117 32.3576 95.7868 32.3576C95.7188 32.3576 95.703 32.414 95.703 32.4978V33.5794C95.703 34.0462 95.6872 35.3137 95.703 35.7121C95.7282 36.6509 95.9466 36.8642 97.3463 36.8642C97.7054 36.8642 98.282 36.8642 98.6403 36.7022C98.9981 36.5308 99.1618 36.2495 99.2614 35.6822C99.2862 35.5258 99.311 35.474 99.4098 35.474C99.5196 35.474 99.5196 35.5869 99.5196 35.7228C99.5196 36.0396 99.4098 36.9741 99.3397 37.2464C99.2392 37.6029 99.1233 37.6029 98.601 37.6029C97.5698 37.6029 96.8179 37.5717 96.2237 37.5606C95.6346 37.5367 95.2062 37.5183 94.7958 37.5183C94.6445 37.5183 94.3431 37.5183 94.0122 37.5367C93.6976 37.5367 93.3432 37.5606 93.0666 37.5606C92.8888 37.5606 92.7866 37.5183 92.7866 37.4238C92.7866 37.3537 92.849 37.3204 93.0068 37.3204C93.2145 37.3204 93.3834 37.2887 93.5078 37.2601C93.7818 37.2054 93.8468 36.901 93.9041 36.5051C93.9721 35.9267 93.9721 34.8452 93.9721 33.5794V31.1675Z" fill="#212629"/>
<path fill-rule="evenodd" clip-rule="evenodd" d="M104.051 37.399C103.826 37.2986 103.787 37.2344 103.787 36.9309C103.787 36.173 103.838 35.3518 103.851 35.1342C103.867 34.9255 103.91 34.7798 104.018 34.7798C104.143 34.7798 104.155 34.9016 104.155 35.0102C104.155 35.1846 104.213 35.4727 104.279 35.7109C104.58 36.7253 105.392 37.0955 106.246 37.0955C107.476 37.0955 108.082 36.2533 108.082 35.5245C108.082 34.8533 107.872 34.2266 106.736 33.3336L106.105 32.8368C104.595 31.6591 104.074 30.6938 104.074 29.587C104.074 28.0741 105.337 26.9883 107.248 26.9883C108.136 26.9883 108.713 27.1294 109.071 27.226C109.196 27.2576 109.266 27.2931 109.266 27.3897C109.266 27.5675 109.205 27.9621 109.205 29.0364C109.205 29.3403 109.162 29.4485 109.057 29.4485C108.957 29.4485 108.918 29.366 108.918 29.204C108.918 29.0779 108.854 28.6508 108.564 28.2951C108.354 28.0382 107.96 27.624 107.063 27.624C106.049 27.624 105.433 28.2139 105.433 29.0364C105.433 29.6704 105.754 30.1449 106.891 31.0165L107.271 31.303C108.937 32.5508 109.522 33.4973 109.522 34.8041C109.522 35.5963 109.222 36.5492 108.236 37.1904C107.552 37.6269 106.783 37.7568 106.049 37.7568C105.257 37.7568 104.64 37.6572 104.051 37.399Z" fill="#212629"/>
<path fill-rule="evenodd" clip-rule="evenodd" d="M122.74 32.6325C122.74 29.5605 120.969 27.6496 118.723 27.6496C117.142 27.6496 115.342 28.5311 115.342 31.9476C115.342 34.8042 116.924 37.0669 119.556 37.0669C120.521 37.0669 122.74 36.5983 122.74 32.6325ZM113.447 32.3721C113.447 30.0269 114.997 26.9883 119.118 26.9883C122.531 26.9883 124.666 28.9838 124.666 32.128C124.666 35.2722 122.465 37.7568 118.981 37.7568C115.042 37.7568 113.447 34.8041 113.447 32.3721Z" fill="#212629"/>
<path fill-rule="evenodd" clip-rule="evenodd" d="M129.231 31.1673C129.231 29.079 129.231 28.6922 129.205 28.2557C129.177 27.791 129.066 27.5687 128.612 27.4747C128.503 27.4464 128.267 27.4353 128.075 27.4353C127.923 27.4353 127.843 27.4071 127.843 27.3045C127.843 27.2105 127.938 27.1797 128.147 27.1797C128.872 27.1797 129.736 27.2271 130.15 27.2271C130.477 27.2271 131.347 27.1797 131.836 27.1797C132.045 27.1797 132.14 27.2105 132.14 27.3045C132.14 27.4071 132.057 27.4353 131.921 27.4353C131.768 27.4353 131.684 27.4464 131.52 27.4747C131.147 27.5392 131.045 27.7795 131.013 28.2557C130.989 28.6922 130.989 29.079 130.989 31.1673V33.0881C130.989 35.0746 131.383 35.9151 132.057 36.4665C132.674 36.974 133.309 37.0274 133.77 37.0274C134.376 37.0274 135.12 36.8359 135.668 36.2861C136.423 35.5256 136.462 34.2949 136.462 32.8803V31.1673C136.462 29.079 136.462 28.6922 136.438 28.2557C136.41 27.791 136.299 27.5687 135.847 27.4747C135.737 27.4464 135.505 27.4353 135.348 27.4353C135.201 27.4353 135.12 27.4071 135.12 27.3045C135.12 27.2105 135.211 27.1797 135.411 27.1797C136.104 27.1797 136.966 27.2271 136.966 27.2271C137.153 27.2271 138.013 27.1797 138.549 27.1797C138.745 27.1797 138.835 27.2105 138.835 27.3045C138.835 27.4071 138.757 27.4353 138.589 27.4353C138.44 27.4353 138.353 27.4464 138.197 27.4747C137.823 27.5392 137.708 27.7795 137.683 28.2557C137.656 28.6922 137.656 29.079 137.656 31.1673V32.6336C137.656 34.1598 137.508 35.774 136.35 36.7632C135.378 37.6028 134.392 37.758 133.494 37.758C132.773 37.758 131.451 37.7127 130.452 36.8043C129.749 36.1741 129.231 35.1593 129.231 33.171V31.1673Z" fill="#212629"/>
<path fill-rule="evenodd" clip-rule="evenodd" d="M145.288 32.2473C145.288 32.4016 145.314 32.458 145.412 32.4978C145.7 32.5931 146.11 32.6337 146.455 32.6337C147.004 32.6337 147.18 32.5773 147.429 32.4016C147.842 32.0964 148.239 31.4697 148.239 30.3428C148.239 28.3921 146.948 27.8313 146.139 27.8313C145.795 27.8313 145.552 27.8437 145.412 27.8843C145.314 27.9142 145.288 27.9634 145.288 28.0754V32.2473ZM143.668 31.1673C143.668 29.079 143.668 28.6922 143.64 28.2557C143.611 27.791 143.505 27.5687 143.051 27.4747C142.936 27.4464 142.707 27.4353 142.515 27.4353C142.366 27.4353 142.277 27.4071 142.277 27.3045C142.277 27.2105 142.374 27.1797 142.586 27.1797C143.307 27.1797 144.176 27.2271 144.463 27.2271C144.933 27.2271 145.973 27.1797 146.4 27.1797C147.264 27.1797 148.186 27.2703 148.922 27.7795C149.311 28.0394 149.859 28.7383 149.859 29.6574C149.859 30.6693 149.434 31.6051 148.044 32.7324C149.266 34.268 150.212 35.4906 151.021 36.3426C151.79 37.136 152.355 37.2356 152.56 37.2724C152.712 37.2997 152.838 37.3203 152.946 37.3203C153.056 37.3203 153.11 37.3536 153.11 37.4237C153.11 37.5366 153.016 37.5605 152.846 37.5605H151.546C150.781 37.5605 150.432 37.4942 150.08 37.2997C149.487 36.9838 148.963 36.3426 148.197 35.2832C147.646 34.5321 147.017 33.5955 146.837 33.3929C146.768 33.3061 146.684 33.2954 146.591 33.2954L145.402 33.268C145.33 33.268 145.288 33.2954 145.288 33.3753V33.5711C145.288 34.8451 145.288 35.9266 145.358 36.505C145.402 36.9009 145.478 37.2053 145.894 37.26C146.097 37.2886 146.4 37.3203 146.563 37.3203C146.673 37.3203 146.727 37.3536 146.727 37.4237C146.727 37.5182 146.631 37.5605 146.455 37.5605C145.658 37.5605 144.641 37.5182 144.437 37.5182C144.176 37.5182 143.307 37.5605 142.763 37.5605C142.586 37.5605 142.49 37.5182 142.49 37.4237C142.49 37.3536 142.54 37.3203 142.707 37.3203C142.915 37.3203 143.079 37.2886 143.2 37.26C143.475 37.2053 143.543 36.9009 143.6 36.505C143.668 35.9266 143.668 34.8451 143.668 33.5793V31.1673Z" fill="#212629"/>
<path fill-rule="evenodd" clip-rule="evenodd" d="M156.321 36.2533C154.972 35.0735 154.62 33.5379 154.62 32.208C154.62 31.2782 154.907 29.6563 156.228 28.4465C157.21 27.538 158.516 26.9883 160.562 26.9883C161.412 26.9883 161.923 27.0473 162.551 27.1294C163.075 27.1952 163.515 27.3256 163.927 27.3602C164.074 27.376 164.133 27.4453 164.133 27.5299C164.133 27.6398 164.091 27.7975 164.063 28.2793C164.035 28.7372 164.046 29.4908 164.019 29.7619C164.007 29.9692 163.979 30.0808 163.855 30.0808C163.747 30.0808 163.721 29.9692 163.721 29.7764C163.705 29.3515 163.526 28.8778 163.185 28.517C162.733 28.0382 161.664 27.6637 160.399 27.6637C159.205 27.6637 158.42 27.9621 157.818 28.517C156.815 29.4327 156.553 30.7361 156.553 32.0682C156.553 35.3355 159.04 36.9544 160.879 36.9544C162.097 36.9544 162.839 36.8223 163.386 36.1858C163.623 35.9255 163.803 35.5245 163.855 35.2821C163.896 35.0598 163.927 35.0102 164.035 35.0102C164.133 35.0102 164.159 35.1034 164.159 35.2158C164.159 35.3766 163.995 36.574 163.855 37.0391C163.782 37.2712 163.732 37.3439 163.503 37.4388C162.949 37.6572 161.906 37.7568 161.027 37.7568C159.149 37.7568 157.57 37.3439 156.321 36.2533Z" fill="#212629"/>
<path fill-rule="evenodd" clip-rule="evenodd" d="M169.245 31.1675C169.245 29.0792 169.245 28.6923 169.222 28.2558C169.195 27.7911 169.082 27.5688 168.631 27.4748C168.522 27.4466 168.29 27.4355 168.096 27.4355C167.945 27.4355 167.86 27.4072 167.86 27.3046C167.86 27.2106 167.957 27.1798 168.157 27.1798C168.538 27.1798 168.93 27.1965 169.275 27.1965C169.637 27.2106 169.952 27.2273 170.142 27.2273C170.58 27.2273 173.311 27.2273 173.574 27.2106C173.832 27.1798 174.052 27.1567 174.162 27.1306C174.234 27.1183 174.321 27.0742 174.377 27.0742C174.453 27.0742 174.461 27.1306 174.461 27.1965C174.461 27.2944 174.393 27.4607 174.357 28.0921C174.342 28.228 174.321 28.8372 174.289 28.9945C174.274 29.0651 174.245 29.1454 174.153 29.1454C174.052 29.1454 174.025 29.0792 174.025 28.9569C174.025 28.8607 174.013 28.6239 173.941 28.4636C173.847 28.2152 173.708 28.048 173.024 27.9634C172.791 27.9369 171.347 27.9142 171.077 27.9142C171.005 27.9142 170.977 27.951 170.977 28.048V31.524C170.977 31.6185 170.997 31.6723 171.077 31.6723C171.374 31.6723 172.96 31.6723 173.272 31.6441C173.601 31.6185 173.804 31.5779 173.929 31.4398C174.025 31.3291 174.082 31.2602 174.153 31.2602C174.201 31.2602 174.245 31.2884 174.245 31.3722C174.245 31.4539 174.189 31.6723 174.137 32.3734C174.119 32.6457 174.082 33.1968 174.082 33.2955C174.082 33.4024 174.082 33.5516 173.956 33.5516C173.862 33.5516 173.832 33.4986 173.832 33.4315C173.823 33.2955 173.823 33.1181 173.781 32.9343C173.708 32.6624 173.516 32.4581 173.007 32.4016C172.748 32.3734 171.389 32.3576 171.066 32.3576C170.997 32.3576 170.977 32.414 170.977 32.4978V33.5794C170.977 34.0462 170.967 35.3137 170.977 35.7121C171.005 36.6509 171.229 36.8642 172.625 36.8642C172.983 36.8642 173.558 36.8642 173.917 36.7022C174.274 36.5308 174.438 36.2495 174.538 35.6822C174.557 35.5258 174.59 35.474 174.687 35.474C174.796 35.474 174.796 35.5869 174.796 35.7228C174.796 36.0396 174.687 36.9741 174.618 37.2464C174.521 37.6029 174.393 37.6029 173.876 37.6029C172.85 37.6029 172.094 37.5717 171.502 37.5606C170.908 37.5367 170.483 37.5183 170.079 37.5183C169.923 37.5183 169.621 37.5183 169.294 37.5367C168.974 37.5367 168.618 37.5606 168.344 37.5606C168.157 37.5606 168.069 37.5183 168.069 37.4238C168.069 37.3537 168.125 37.3204 168.29 37.3204C168.497 37.3204 168.661 37.2887 168.782 37.2601C169.058 37.2054 169.127 36.901 169.182 36.5051C169.245 35.9267 169.245 34.8452 169.245 33.5794V31.1675Z" fill="#212629"/>
<path fill-rule="evenodd" clip-rule="evenodd" d="M179.324 37.399C179.107 37.2986 179.062 37.2344 179.062 36.9309C179.062 36.173 179.115 35.3518 179.132 35.1342C179.147 34.9255 179.183 34.7798 179.292 34.7798C179.42 34.7798 179.427 34.9016 179.427 35.0102C179.427 35.1846 179.481 35.4727 179.556 35.7109C179.855 36.7253 180.669 37.0955 181.519 37.0955C182.75 37.0955 183.358 36.2533 183.358 35.5245C183.358 34.8533 183.152 34.2266 182.011 33.3336L181.38 32.8368C179.871 31.6591 179.352 30.6938 179.352 29.587C179.352 28.0741 180.613 26.9883 182.52 26.9883C183.413 26.9883 183.994 27.1294 184.347 27.226C184.471 27.2576 184.539 27.2931 184.539 27.3897C184.539 27.5675 184.487 27.9621 184.487 29.0364C184.487 29.3403 184.442 29.4485 184.33 29.4485C184.238 29.4485 184.192 29.366 184.192 29.204C184.192 29.0779 184.126 28.6508 183.84 28.2951C183.631 28.0382 183.233 27.624 182.338 27.624C181.326 27.624 180.71 28.2139 180.71 29.0364C180.71 29.6704 181.027 30.1449 182.167 31.0165L182.547 31.303C184.21 32.5508 184.799 33.4973 184.799 34.8041C184.799 35.5963 184.495 36.5492 183.509 37.1904C182.82 37.6269 182.052 37.7568 181.326 37.7568C180.53 37.7568 179.912 37.6572 179.324 37.399Z" fill="#212629"/>
<path fill-rule="evenodd" clip-rule="evenodd" d="M81.456 53.4452C81.456 51.3621 81.456 50.9777 81.4316 50.5357C81.4038 50.0672 81.2679 49.8363 80.9631 49.7675C80.8151 49.7239 80.6292 49.7183 80.4663 49.7183C80.3325 49.7183 80.25 49.6867 80.25 49.5704C80.25 49.4948 80.362 49.4648 80.5749 49.4648C81.0994 49.4648 81.9642 49.5037 82.361 49.5037C82.7059 49.5037 83.5169 49.4648 84.0393 49.4648C84.2159 49.4648 84.3236 49.4948 84.3236 49.5704C84.3236 49.6867 84.2415 49.7183 84.103 49.7183C83.9718 49.7183 83.8593 49.7239 83.6905 49.7538C83.3228 49.8227 83.2142 50.0548 83.1899 50.5357C83.1582 50.9777 83.1582 51.3621 83.1582 53.4452V55.8593C83.1582 57.1922 83.1582 58.2772 83.2142 58.871C83.2583 59.2403 83.3523 59.484 83.7589 59.537C83.9551 59.5665 84.2556 59.5964 84.4642 59.5964C84.6143 59.5964 84.6805 59.637 84.6805 59.7072C84.6805 59.8008 84.5741 59.8414 84.4202 59.8414C83.5169 59.8414 82.6499 59.8008 82.2789 59.8008C81.9642 59.8008 81.0994 59.8414 80.5544 59.8414C80.3782 59.8414 80.2748 59.8008 80.2748 59.7072C80.2748 59.637 80.3325 59.5964 80.4971 59.5964C80.7036 59.5964 80.8694 59.5665 80.9955 59.537C81.2679 59.484 81.3474 59.2566 81.3923 58.8552C81.456 58.2772 81.456 57.1922 81.456 55.8593V53.4452Z" fill="#212629"/>
<path fill-rule="evenodd" clip-rule="evenodd" d="M90.5837 57.9778C90.6119 59.047 90.7885 59.4044 91.0646 59.4997C91.2972 59.5805 91.558 59.5963 91.7777 59.5963C91.932 59.5963 92.0098 59.6228 92.0098 59.707C92.0098 59.8131 91.8897 59.8413 91.6973 59.8413C90.8043 59.8413 90.2494 59.8007 89.9933 59.8007C89.8711 59.8007 89.2268 59.8413 88.5095 59.8413C88.3355 59.8413 88.209 59.8306 88.209 59.707C88.209 59.6228 88.2889 59.5963 88.4249 59.5963C88.6057 59.5963 88.8536 59.5805 89.046 59.5296C89.4064 59.4185 89.4568 59.0154 89.4709 57.8265L89.5992 49.6973C89.5992 49.4224 89.6347 49.2305 89.7749 49.2305C89.9228 49.2305 90.0472 49.4104 90.2836 49.6545C90.4439 49.8362 92.5352 52.0729 94.5376 54.0633C95.4729 54.9982 97.3219 56.9758 97.5531 57.1921H97.6284L97.4894 51.0285C97.4736 50.1885 97.3467 49.9316 97.0205 49.7922C96.8183 49.7182 96.4844 49.7182 96.2963 49.7182C96.1313 49.7182 96.0714 49.6725 96.0714 49.5879C96.0714 49.4754 96.2279 49.4647 96.4327 49.4647C97.1474 49.4647 97.8062 49.5036 98.0939 49.5036C98.2461 49.5036 98.7651 49.4647 99.4358 49.4647C99.6149 49.4647 99.7547 49.4754 99.7547 49.5879C99.7547 49.6725 99.6718 49.7182 99.5038 49.7182C99.3678 49.7182 99.2618 49.7182 99.0921 49.7537C98.7069 49.8666 98.6013 50.1521 98.5872 50.9212L98.435 59.5805C98.435 59.8819 98.3786 60.0123 98.2546 60.0123C98.1054 60.0123 97.94 59.8537 97.7904 59.707C96.9273 58.8798 95.1681 57.0831 93.7403 55.6694C92.2424 54.1843 90.7201 52.4709 90.4721 52.2105H90.4362L90.5837 57.9778Z" fill="#212629"/>
<path fill-rule="evenodd" clip-rule="evenodd" d="M104.212 59.6821C103.991 59.5812 103.954 59.5128 103.954 59.2131C103.954 58.4595 104.006 57.6348 104.017 57.4134C104.034 57.2108 104.074 57.0577 104.183 57.0577C104.306 57.0577 104.323 57.1808 104.323 57.2937C104.323 57.466 104.376 57.755 104.447 57.9875C104.747 59.0041 105.557 59.3773 106.41 59.3773C107.639 59.3773 108.248 58.5407 108.248 57.8114C108.248 57.1424 108.039 56.5101 106.903 55.6136L106.269 55.1225C104.759 53.937 104.238 52.9811 104.238 51.8692C104.238 50.3568 105.498 49.2773 107.407 49.2773C108.3 49.2773 108.877 49.4111 109.234 49.5043C109.359 49.536 109.427 49.571 109.427 49.6732C109.427 49.8549 109.373 50.249 109.373 51.3165C109.373 51.6192 109.333 51.7303 109.221 51.7303C109.125 51.7303 109.081 51.6508 109.081 51.4819C109.081 51.3627 109.014 50.9364 108.729 50.5821C108.52 50.3157 108.12 49.9075 107.232 49.9075C106.216 49.9075 105.6 50.4974 105.6 51.3165C105.6 51.9505 105.917 52.4275 107.054 53.2958L107.438 53.5831C109.097 54.8301 109.685 55.7808 109.685 57.0838C109.685 57.8781 109.382 58.8275 108.396 59.4688C107.715 59.9087 106.942 60.0378 106.216 60.0378C105.42 60.0378 104.799 59.9369 104.212 59.6821Z" fill="#212629"/>
<path fill-rule="evenodd" clip-rule="evenodd" d="M116.933 50.2371L114.889 50.2879C114.088 50.3157 113.767 50.3833 113.559 50.6876C113.422 50.8954 113.347 51.0574 113.322 51.1652C113.297 51.2776 113.256 51.3319 113.174 51.3319C113.078 51.3319 113.049 51.2652 113.049 51.1139C113.049 50.8954 113.307 49.6471 113.344 49.536C113.383 49.3513 113.422 49.2773 113.499 49.2773C113.611 49.2773 113.752 49.4111 114.088 49.4359C114.489 49.4761 115.009 49.5043 115.462 49.5043H120.903C121.338 49.5043 121.64 49.4654 121.846 49.4359C122.053 49.3949 122.163 49.3722 122.219 49.3722C122.316 49.3722 122.328 49.4513 122.328 49.6552C122.328 49.9464 122.287 50.8954 122.287 51.2498C122.274 51.3904 122.248 51.47 122.163 51.47C122.053 51.47 122.023 51.3977 122.008 51.2006L122.003 51.0437C121.971 50.6876 121.602 50.3055 120.381 50.2777L118.651 50.2371V55.8599C118.651 57.1244 118.651 58.2072 118.723 58.7976C118.759 59.1849 118.843 59.4846 119.253 59.5376C119.446 59.5671 119.748 59.597 119.952 59.597C120.104 59.597 120.173 59.6376 120.173 59.7077C120.173 59.8014 120.062 59.842 119.913 59.842C119.008 59.842 118.146 59.8014 117.762 59.8014C117.441 59.8014 116.573 59.842 116.028 59.842C115.851 59.842 115.75 59.8014 115.75 59.7077C115.75 59.6376 115.81 59.597 115.971 59.597C116.184 59.597 116.348 59.5671 116.467 59.5376C116.745 59.4846 116.824 59.1849 116.864 58.7891C116.933 58.2072 116.933 57.1244 116.933 55.8599V50.2371Z" fill="#212629"/>
<path fill-rule="evenodd" clip-rule="evenodd" d="M127.01 53.4452C127.01 51.3621 127.01 50.9777 126.982 50.5357C126.954 50.0672 126.813 49.8363 126.516 49.7675C126.365 49.7239 126.186 49.7183 126.016 49.7183C125.881 49.7183 125.798 49.6867 125.798 49.5704C125.798 49.4948 125.908 49.4648 126.124 49.4648C126.65 49.4648 127.519 49.5037 127.915 49.5037C128.257 49.5037 129.066 49.4648 129.589 49.4648C129.766 49.4648 129.875 49.4948 129.875 49.5704C129.875 49.6867 129.791 49.7183 129.657 49.7183C129.521 49.7183 129.414 49.7239 129.246 49.7538C128.877 49.8227 128.76 50.0548 128.74 50.5357C128.71 50.9777 128.71 51.3621 128.71 53.4452V55.8593C128.71 57.1922 128.71 58.2772 128.76 58.871C128.807 59.2403 128.9 59.484 129.317 59.537C129.503 59.5665 129.808 59.5964 130.018 59.5964C130.166 59.5964 130.234 59.637 130.234 59.7072C130.234 59.8008 130.118 59.8414 129.969 59.8414C129.066 59.8414 128.2 59.8008 127.829 59.8008C127.519 59.8008 126.65 59.8414 126.1 59.8414C125.921 59.8414 125.824 59.8008 125.824 59.7072C125.824 59.637 125.881 59.5964 126.046 59.5964C126.252 59.5964 126.417 59.5665 126.537 59.537C126.813 59.484 126.894 59.2566 126.936 58.8552C127.01 58.2772 127.01 57.1922 127.01 55.8593V53.4452Z" fill="#212629"/>
<path fill-rule="evenodd" clip-rule="evenodd" d="M137.188 50.2371L135.147 50.2879C134.351 50.3157 134.02 50.3833 133.811 50.6876C133.675 50.8954 133.605 51.0574 133.583 51.1652C133.55 51.2776 133.51 51.3319 133.43 51.3319C133.33 51.3319 133.309 51.2652 133.309 51.1139C133.309 50.8954 133.566 49.6471 133.594 49.536C133.636 49.3513 133.675 49.2773 133.76 49.2773C133.869 49.2773 134.007 49.4111 134.351 49.4359C134.75 49.4761 135.269 49.5043 135.721 49.5043H141.157C141.597 49.5043 141.898 49.4654 142.11 49.4359C142.309 49.3949 142.422 49.3722 142.474 49.3722C142.57 49.3722 142.586 49.4513 142.586 49.6552C142.586 49.9464 142.542 50.8954 142.542 51.2498C142.53 51.3904 142.503 51.47 142.422 51.47C142.309 51.47 142.283 51.3977 142.268 51.2006L142.259 51.0437C142.23 50.6876 141.855 50.3055 140.64 50.2777L138.905 50.2371V55.8599C138.905 57.1244 138.905 58.2072 138.973 58.7976C139.015 59.1849 139.097 59.4846 139.51 59.5376C139.703 59.5671 140.003 59.597 140.207 59.597C140.364 59.597 140.433 59.6376 140.433 59.7077C140.433 59.8014 140.321 59.842 140.166 59.842C139.264 59.842 138.397 59.8014 138.01 59.8014C137.7 59.8014 136.835 59.842 136.281 59.842C136.104 59.842 136.006 59.8014 136.006 59.7077C136.006 59.6376 136.066 59.597 136.228 59.597C136.434 59.597 136.599 59.5671 136.718 59.5376C136.998 59.4846 137.079 59.1849 137.124 58.7891C137.188 58.2072 137.188 57.1244 137.188 55.8599V50.2371Z" fill="#212629"/>
<path fill-rule="evenodd" clip-rule="evenodd" d="M146.673 53.4452C146.673 51.3621 146.673 50.9777 146.643 50.5357C146.615 50.0672 146.509 49.8543 146.055 49.7538C145.941 49.7239 145.714 49.7183 145.523 49.7183C145.374 49.7183 145.288 49.6867 145.288 49.588C145.288 49.4948 145.382 49.4648 145.59 49.4648C146.315 49.4648 147.181 49.5037 147.593 49.5037C147.921 49.5037 148.782 49.4648 149.282 49.4648C149.488 49.4648 149.584 49.4948 149.584 49.588C149.584 49.6867 149.5 49.7183 149.363 49.7183C149.216 49.7183 149.127 49.7239 148.963 49.7538C148.598 49.8227 148.482 50.0548 148.458 50.5357C148.43 50.9777 148.43 51.3621 148.43 53.4452V55.3664C148.43 57.3585 148.828 58.1985 149.5 58.744C150.117 59.2566 150.749 59.3079 151.218 59.3079C151.819 59.3079 152.555 59.1159 153.11 58.5662C153.866 57.8108 153.903 56.5783 153.903 55.162V53.4452C153.903 51.3621 153.903 50.9777 153.877 50.5357C153.857 50.0672 153.745 49.8543 153.289 49.7538C153.181 49.7239 152.946 49.7183 152.8 49.7183C152.64 49.7183 152.555 49.6867 152.555 49.588C152.555 49.4948 152.656 49.4648 152.846 49.4648C153.553 49.4648 154.415 49.5037 154.427 49.5037C154.595 49.5037 155.459 49.4648 155.996 49.4648C156.185 49.4648 156.281 49.4948 156.281 49.588C156.281 49.6867 156.201 49.7183 156.037 49.7183C155.882 49.7183 155.804 49.7239 155.636 49.7538C155.263 49.8227 155.155 50.0548 155.127 50.5357C155.099 50.9777 155.099 51.3621 155.099 53.4452V54.9115C155.099 56.4373 154.947 58.0575 153.796 59.0471C152.824 59.882 151.836 60.0372 150.94 60.0372C150.213 60.0372 148.894 59.9961 147.895 59.0946C147.196 58.4589 146.673 57.4406 146.673 55.4489V53.4452Z" fill="#212629"/>
<path fill-rule="evenodd" clip-rule="evenodd" d="M162.935 50.2371L160.891 50.2879C160.094 50.3157 159.767 50.3833 159.562 50.6876C159.425 50.8954 159.357 51.0574 159.325 51.1652C159.301 51.2776 159.257 51.3319 159.175 51.3319C159.081 51.3319 159.051 51.2652 159.051 51.1139C159.051 50.8954 159.31 49.6471 159.337 49.536C159.381 49.3513 159.425 49.2773 159.505 49.2773C159.613 49.2773 159.749 49.4111 160.094 49.4359C160.491 49.4761 161.015 49.5043 161.468 49.5043H166.903C167.345 49.5043 167.641 49.4654 167.852 49.4359C168.057 49.3949 168.165 49.3722 168.227 49.3722C168.317 49.3722 168.333 49.4513 168.333 49.6552C168.333 49.9464 168.29 50.8954 168.29 51.2498C168.274 51.3904 168.249 51.47 168.165 51.47C168.057 51.47 168.025 51.3977 168.017 51.2006L168.005 51.0437C167.973 50.6876 167.604 50.3055 166.387 50.2777L164.653 50.2371V55.8599C164.653 57.1244 164.653 58.2072 164.721 58.7976C164.765 59.1849 164.849 59.4846 165.253 59.5376C165.454 59.5671 165.747 59.597 165.954 59.597C166.11 59.597 166.178 59.6376 166.178 59.7077C166.178 59.8014 166.065 59.842 165.916 59.842C165.005 59.842 164.144 59.8014 163.764 59.8014C163.447 59.8014 162.578 59.842 162.029 59.842C161.853 59.842 161.757 59.8014 161.757 59.7077C161.757 59.6376 161.808 59.597 161.977 59.597C162.181 59.597 162.346 59.5671 162.468 59.5376C162.746 59.4846 162.824 59.1849 162.871 58.7891C162.935 58.2072 162.935 57.1244 162.935 55.8599V50.2371Z" fill="#212629"/>
<path fill-rule="evenodd" clip-rule="evenodd" d="M173.007 53.4461C173.007 51.3629 173.007 50.9786 172.983 50.5366C172.955 50.068 172.849 49.8551 172.394 49.7547C172.282 49.7248 172.05 49.7192 171.855 49.7192C171.705 49.7192 171.621 49.6876 171.621 49.5888C171.621 49.4956 171.718 49.4657 171.927 49.4657C172.298 49.4657 172.691 49.4764 173.043 49.4764C173.396 49.4956 173.708 49.5046 173.9 49.5046C174.342 49.5046 177.077 49.5046 177.333 49.4956C177.593 49.4657 177.815 49.4362 177.926 49.4114C177.996 49.3952 178.074 49.3516 178.144 49.3516C178.212 49.3516 178.227 49.4114 178.227 49.4764C178.227 49.5713 178.154 49.7389 178.119 50.369C178.102 50.5066 178.074 51.1141 178.042 51.2778C178.034 51.3497 178.004 51.4258 177.91 51.4258C177.815 51.4258 177.786 51.3629 177.786 51.2377C177.786 51.1406 177.777 50.9098 177.701 50.7426C177.605 50.4977 177.474 50.3288 176.78 50.2493C176.552 50.2198 175.114 50.1894 174.835 50.1894C174.765 50.1894 174.738 50.2373 174.738 50.3288V53.8018C174.738 53.9022 174.754 53.9531 174.835 53.9531C175.138 53.9531 176.719 53.9531 177.032 53.927C177.357 53.9022 177.561 53.8612 177.689 53.7227C177.786 53.6132 177.842 53.5444 177.91 53.5444C177.964 53.5444 178.004 53.5692 178.004 53.65C178.004 53.7334 177.949 53.9531 177.894 54.6508C177.878 54.9269 177.842 55.4797 177.842 55.5729C177.842 55.6844 177.842 55.8409 177.716 55.8409C177.621 55.8409 177.593 55.7811 177.593 55.7122C177.578 55.5729 177.578 55.3955 177.537 55.2176C177.474 54.9432 177.276 54.735 176.774 54.6875C176.512 54.6508 175.146 54.6401 174.817 54.6401C174.754 54.6401 174.738 54.6961 174.738 54.779V55.8601C174.738 56.3287 174.726 57.5915 174.738 57.9878C174.765 58.9385 174.99 59.1394 176.383 59.1394C176.742 59.1394 177.319 59.1394 177.677 58.9774C178.034 58.8116 178.199 58.5264 178.295 57.9591C178.319 57.8117 178.346 57.7552 178.447 57.7552C178.556 57.7552 178.556 57.8647 178.556 58.0036C178.556 58.3204 178.447 59.2574 178.376 59.5306C178.278 59.8829 178.154 59.8829 177.633 59.8829C176.604 59.8829 175.847 59.8546 175.262 59.8422C174.671 59.814 174.245 59.8016 173.832 59.8016C173.681 59.8016 173.379 59.8016 173.048 59.814C172.734 59.814 172.375 59.8422 172.103 59.8422C171.927 59.8422 171.831 59.8016 171.831 59.708C171.831 59.6379 171.881 59.5973 172.05 59.5973C172.254 59.5973 172.422 59.5674 172.543 59.5379C172.819 59.4849 172.889 59.1852 172.939 58.7893C173.007 58.2075 173.007 57.1247 173.007 55.8601V53.4461Z" fill="#212629"/>
</svg>
